<svg version="1.1" xmlns="http://www.w3.org/2000/svg" xmlns:xlink="http://www.w3.org/1999/xlink" width="593.16015625" height="789"><defs/><g><text fill="#eeeeee" stroke="none" font-family="Arial" font-size="24px" font-style="normal" font-weight="normal" text-decoration="none" x="0" y="0">UNREGISTERED</text><text fill="#eeeeee" stroke="none" font-family="Arial" font-size="24px" font-style="normal" font-weight="normal" text-decoration="none" x="0" y="30">UNREGISTERED</text><text fill="#eeeeee" stroke="none" font-family="Arial" font-size="24px" font-style="normal" font-weight="normal" text-decoration="none" x="0" y="60">UNREGISTERED</text><text fill="#eeeeee" stroke="none" font-family="Arial" font-size="24px" font-style="normal" font-weight="normal" text-decoration="none" x="0" y="90">UNREGISTERED</text><text fill="#eeeeee" stroke="none" font-family="Arial" font-size="24px" font-style="normal" font-weight="normal" text-decoration="none" x="0" y="120">UNREGISTERED</text><text fill="#eeeeee" stroke="none" font-family="Arial" font-size="24px" font-style="normal" font-weight="normal" text-decoration="none" x="0" y="150">UNREGISTERED</text><text fill="#eeeeee" stroke="none" font-family="Arial" font-size="24px" font-style="normal" font-weight="normal" text-decoration="none" x="0" y="180">UNREGISTERED</text><text fill="#eeeeee" stroke="none" font-family="Arial" font-size="24px" font-style="normal" font-weight="normal" text-decoration="none" x="0" y="210">UNREGISTERED</text><text fill="#eeeeee" stroke="none" font-family="Arial" font-size="24px" font-style="normal" font-weight="normal" text-decoration="none" x="0" y="240">UNREGISTERED</text><text fill="#eeeeee" stroke="none" font-family="Arial" font-size="24px" font-style="normal" font-weight="normal" text-decoration="none" x="0" y="270">UNREGISTERED</text><text fill="#eeeeee" stroke="none" font-family="Arial" font-size="24px" font-style="normal" font-weight="normal" text-decoration="none" x="0" y="300">UNREGISTERED</text><text fill="#eeeeee" stroke="none" font-family="Arial" font-size="24px" font-style="normal" font-weight="normal" text-decoration="none" x="0" y="330">UNREGISTERED</text><text fill="#eeeeee" stroke="none" font-family="Arial" font-size="24px" font-style="normal" font-weight="normal" text-decoration="none" x="0" y="360">UNREGISTERED</text><text fill="#eeeeee" stroke="none" font-family="Arial" font-size="24px" font-style="normal" font-weight="normal" text-decoration="none" x="0" y="390">UNREGISTERED</text><text fill="#eeeeee" stroke="none" font-family="Arial" font-size="24px" font-style="normal" font-weight="normal" text-decoration="none" x="0" y="420">UNREGISTERED</text><text fill="#eeeeee" stroke="none" font-family="Arial" font-size="24px" font-style="normal" font-weight="normal" text-decoration="none" x="0" y="450">UNREGISTERED</text><text fill="#eeeeee" stroke="none" font-family="Arial" font-size="24px" font-style="normal" font-weight="normal" text-decoration="none" x="0" y="480">UNREGISTERED</text><text fill="#eeeeee" stroke="none" font-family="Arial" font-size="24px" font-style="normal" font-weight="normal" text-decoration="none" x="0" y="510">UNREGISTERED</text><text fill="#eeeeee" stroke="none" font-family="Arial" font-size="24px" font-style="normal" font-weight="normal" text-decoration="none" x="0" y="540">UNREGISTERED</text><text fill="#eeeeee" stroke="none" font-family="Arial" font-size="24px" font-style="normal" font-weight="normal" text-decoration="none" x="0" y="570">UNREGISTERED</text><text fill="#eeeeee" stroke="none" font-family="Arial" font-size="24px" font-style="normal" font-weight="normal" text-decoration="none" x="0" y="600">UNREGISTERED</text><text fill="#eeeeee" stroke="none" font-family="Arial" font-size="24px" font-style="normal" font-weight="normal" text-decoration="none" x="0" y="630">UNREGISTERED</text><text fill="#eeeeee" stroke="none" font-family="Arial" font-size="24px" font-style="normal" font-weight="normal" text-decoration="none" x="0" y="660">UNREGISTERED</text><text fill="#eeeeee" stroke="none" font-family="Arial" font-size="24px" font-style="normal" font-weight="normal" text-decoration="none" x="0" y="690">UNREGISTERED</text><text fill="#eeeeee" stroke="none" font-family="Arial" font-size="24px" font-style="normal" font-weight="normal" text-decoration="none" x="0" y="720">UNREGISTERED</text><text fill="#eeeeee" stroke="none" font-family="Arial" font-size="24px" font-style="normal" font-weight="normal" text-decoration="none" x="0" y="750">UNREGISTERED</text><text fill="#eeeeee" stroke="none" font-family="Arial" font-size="24px" font-style="normal" font-weight="normal" text-decoration="none" x="0" y="780">UNREGISTERED</text><text fill="#eeeeee" stroke="none" font-family="Arial" font-size="24px" font-style="normal" font-weight="normal" text-decoration="none" x="200" y="0">UNREGISTERED</text><text fill="#eeeeee" stroke="none" font-family="Arial" font-size="24px" font-style="normal" font-weight="normal" text-decoration="none" x="200" y="30">UNREGISTERED</text><text fill="#eeeeee" stroke="none" font-family="Arial" font-size="24px" font-style="normal" font-weight="normal" text-decoration="none" x="200" y="60">UNREGISTERED</text><text fill="#eeeeee" stroke="none" font-family="Arial" font-size="24px" font-style="normal" font-weight="normal" text-decoration="none" x="200" y="90">UNREGISTERED</text><text fill="#eeeeee" stroke="none" font-family="Arial" font-size="24px" font-style="normal" font-weight="normal" text-decoration="none" x="200" y="120">UNREGISTERED</text><text fill="#eeeeee" stroke="none" font-family="Arial" font-size="24px" font-style="normal" font-weight="normal" text-decoration="none" x="200" y="150">UNREGISTERED</text><text fill="#eeeeee" stroke="none" font-family="Arial" font-size="24px" font-style="normal" font-weight="normal" text-decoration="none" x="200" y="180">UNREGISTERED</text><text fill="#eeeeee" stroke="none" font-family="Arial" font-size="24px" font-style="normal" font-weight="normal" text-decoration="none" x="200" y="210">UNREGISTERED</text><text fill="#eeeeee" stroke="none" font-family="Arial" font-size="24px" font-style="normal" font-weight="normal" text-decoration="none" x="200" y="240">UNREGISTERED</text><text fill="#eeeeee" stroke="none" font-family="Arial" font-size="24px" font-style="normal" font-weight="normal" text-decoration="none" x="200" y="270">UNREGISTERED</text><text fill="#eeeeee" stroke="none" font-family="Arial" font-size="24px" font-style="normal" font-weight="normal" text-decoration="none" x="200" y="300">UNREGISTERED</text><text fill="#eeeeee" stroke="none" font-family="Arial" font-size="24px" font-style="normal" font-weight="normal" text-decoration="none" x="200" y="330">UNREGISTERED</text><text fill="#eeeeee" stroke="none" font-family="Arial" font-size="24px" font-style="normal" font-weight="normal" text-decoration="none" x="200" y="360">UNREGISTERED</text><text fill="#eeeeee" stroke="none" font-family="Arial" font-size="24px" font-style="normal" font-weight="normal" text-decoration="none" x="200" y="390">UNREGISTERED</text><text fill="#eeeeee" stroke="none" font-family="Arial" font-size="24px" font-style="normal" font-weight="normal" text-decoration="none" x="200" y="420">UNREGISTERED</text><text fill="#eeeeee" stroke="none" font-family="Arial" font-size="24px" font-style="normal" font-weight="normal" text-decoration="none" x="200" y="450">UNREGISTERED</text><text fill="#eeeeee" stroke="none" font-family="Arial" font-size="24px" font-style="normal" font-weight="normal" text-decoration="none" x="200" y="480">UNREGISTERED</text><text fill="#eeeeee" stroke="none" font-family="Arial" font-size="24px" font-style="normal" font-weight="normal" text-decoration="none" x="200" y="510">UNREGISTERED</text><text fill="#eeeeee" stroke="none" font-family="Arial" font-size="24px" font-style="normal" font-weight="normal" text-decoration="none" x="200" y="540">UNREGISTERED</text><text fill="#eeeeee" stroke="none" font-family="Arial" font-size="24px" font-style="normal" font-weight="normal" text-decoration="none" x="200" y="570">UNREGISTERED</text><text fill="#eeeeee" stroke="none" font-family="Arial" font-size="24px" font-style="normal" font-weight="normal" text-decoration="none" x="200" y="600">UNREGISTERED</text><text fill="#eeeeee" stroke="none" font-family="Arial" font-size="24px" font-style="normal" font-weight="normal" text-decoration="none" x="200" y="630">UNREGISTERED</text><text fill="#eeeeee" stroke="none" font-family="Arial" font-size="24px" font-style="normal" font-weight="normal" text-decoration="none" x="200" y="660">UNREGISTERED</text><text fill="#eeeeee" stroke="none" font-family="Arial" font-size="24px" font-style="normal" font-weight="normal" text-decoration="none" x="200" y="690">UNREGISTERED</text><text fill="#eeeeee" stroke="none" font-family="Arial" font-size="24px" font-style="normal" font-weight="normal" text-decoration="none" x="200" y="720">UNREGISTERED</text><text fill="#eeeeee" stroke="none" font-family="Arial" font-size="24px" font-style="normal" font-weight="normal" text-decoration="none" x="200" y="750">UNREGISTERED</text><text fill="#eeeeee" stroke="none" font-family="Arial" font-size="24px" font-style="normal" font-weight="normal" text-decoration="none" x="200" y="780">UNREGISTERED</text><text fill="#eeeeee" stroke="none" font-family="Arial" font-size="24px" font-style="normal" font-weight="normal" text-decoration="none" x="400" y="0">UNREGISTERED</text><text fill="#eeeeee" stroke="none" font-family="Arial" font-size="24px" font-style="normal" font-weight="normal" text-decoration="none" x="400" y="30">UNREGISTERED</text><text fill="#eeeeee" stroke="none" font-family="Arial" font-size="24px" font-style="normal" font-weight="normal" text-decoration="none" x="400" y="60">UNREGISTERED</text><text fill="#eeeeee" stroke="none" font-family="Arial" font-size="24px" font-style="normal" font-weight="normal" text-decoration="none" x="400" y="90">UNREGISTERED</text><text fill="#eeeeee" stroke="none" font-family="Arial" font-size="24px" font-style="normal" font-weight="normal" text-decoration="none" x="400" y="120">UNREGISTERED</text><text fill="#eeeeee" stroke="none" font-family="Arial" font-size="24px" font-style="normal" font-weight="normal" text-decoration="none" x="400" y="150">UNREGISTERED</text><text fill="#eeeeee" stroke="none" font-family="Arial" font-size="24px" font-style="normal" font-weight="normal" text-decoration="none" x="400" y="180">UNREGISTERED</text><text fill="#eeeeee" stroke="none" font-family="Arial" font-size="24px" font-style="normal" font-weight="normal" text-decoration="none" x="400" y="210">UNREGISTERED</text><text fill="#eeeeee" stroke="none" font-family="Arial" font-size="24px" font-style="normal" font-weight="normal" text-decoration="none" x="400" y="240">UNREGISTERED</text><text fill="#eeeeee" stroke="none" font-family="Arial" font-size="24px" font-style="normal" font-weight="normal" text-decoration="none" x="400" y="270">UNREGISTERED</text><text fill="#eeeeee" stroke="none" font-family="Arial" font-size="24px" font-style="normal" font-weight="normal" text-decoration="none" x="400" y="300">UNREGISTERED</text><text fill="#eeeeee" stroke="none" font-family="Arial" font-size="24px" font-style="normal" font-weight="normal" text-decoration="none" x="400" y="330">UNREGISTERED</text><text fill="#eeeeee" stroke="none" font-family="Arial" font-size="24px" font-style="normal" font-weight="normal" text-decoration="none" x="400" y="360">UNREGISTERED</text><text fill="#eeeeee" stroke="none" font-family="Arial" font-size="24px" font-style="normal" font-weight="normal" text-decoration="none" x="400" y="390">UNREGISTERED</text><text fill="#eeeeee" stroke="none" font-family="Arial" font-size="24px" font-style="normal" font-weight="normal" text-decoration="none" x="400" y="420">UNREGISTERED</text><text fill="#eeeeee" stroke="none" font-family="Arial" font-size="24px" font-style="normal" font-weight="normal" text-decoration="none" x="400" y="450">UNREGISTERED</text><text fill="#eeeeee" stroke="none" font-family="Arial" font-size="24px" font-style="normal" font-weight="normal" text-decoration="none" x="400" y="480">UNREGISTERED</text><text fill="#eeeeee" stroke="none" font-family="Arial" font-size="24px" font-style="normal" font-weight="normal" text-decoration="none" x="400" y="510">UNREGISTERED</text><text fill="#eeeeee" stroke="none" font-family="Arial" font-size="24px" font-style="normal" font-weight="normal" text-decoration="none" x="400" y="540">UNREGISTERED</text><text fill="#eeeeee" stroke="none" font-family="Arial" font-size="24px" font-style="normal" font-weight="normal" text-decoration="none" x="400" y="570">UNREGISTERED</text><text fill="#eeeeee" stroke="none" font-family="Arial" font-size="24px" font-style="normal" font-weight="normal" text-decoration="none" x="400" y="600">UNREGISTERED</text><text fill="#eeeeee" stroke="none" font-family="Arial" font-size="24px" font-style="normal" font-weight="normal" text-decoration="none" x="400" y="630">UNREGISTERED</text><text fill="#eeeeee" stroke="none" font-family="Arial" font-size="24px" font-style="normal" font-weight="normal" text-decoration="none" x="400" y="660">UNREGISTERED</text><text fill="#eeeeee" stroke="none" font-family="Arial" font-size="24px" font-style="normal" font-weight="normal" text-decoration="none" x="400" y="690">UNREGISTERED</text><text fill="#eeeeee" stroke="none" font-family="Arial" font-size="24px" font-style="normal" font-weight="normal" text-decoration="none" x="400" y="720">UNREGISTERED</text><text fill="#eeeeee" stroke="none" font-family="Arial" font-size="24px" font-style="normal" font-weight="normal" text-decoration="none" x="400" y="750">UNREGISTERED</text><text fill="#eeeeee" stroke="none" font-family="Arial" font-size="24px" font-style="normal" font-weight="normal" text-decoration="none" x="400" y="780">UNREGISTERED</text><g transform="translate(2,-94) scale(1,1)"><path fill="#C0C0C0" stroke="none" d="M 255 120.5 C 255 115.2532944 259.2532944 111 264.5 111 C 269.7467056 111 274 115.2532944 274 120.5 C 274 125.7467056 269.7467056 130 264.5 130 C 259.2532944 130 255 125.7467056 255 120.5 Z" opacity="0.2"/></g><g transform="translate(2,-94) scale(1,1)"><path fill="#000000" stroke="none" d="M 248 113.5 C 248 108.2532944 252.2532944 104 257.5 104 C 262.7467056 104 267 108.2532944 267 113.5 C 267 118.7467056 262.7467056 123 257.5 123 C 252.2532944 123 248 118.7467056 248 113.5 Z"/></g><g transform="translate(2,-94) scale(1,1)"><path fill="#C0C0C0" stroke="none" d="M 241 175 L 293 175 Q 303 175 303 185 L 303 205 Q 303 215 293 215 L 241 215 Q 231 215 231 205 L 231 185 Q 231 175 241 175 Z" opacity="0.2"/></g><g transform="translate(2,-94) scale(1,1)"><path fill="#ffffff" stroke="none" d="M 234 168 L 286 168 Q 296 168 296 178 L 296 198 Q 296 208 286 208 L 234 208 Q 224 208 224 198 L 224 178 Q 224 168 234 168 Z"/></g><g transform="translate(2,-94) scale(1,1)"><path fill="none" stroke="#000000" d="M 234 168 L 286 168 Q 296 168 296 178 L 296 198 Q 296 208 286 208 L 234 208 Q 224 208 224 198 L 224 178 Q 224 168 234 168 Z" stroke-miterlimit="10"/></g><g transform="translate(2,-94) scale(1,1)"><g><path fill="none" stroke="none"/><text fill="#000000" stroke="none" font-family="Arial" font-size="13px" font-style="normal" font-weight="bold" text-decoration="none" x="241.696533203125" y="187.5">Zugriff</text></g></g><g transform="translate(2,-94) scale(1,1)"><path fill="none" stroke="#000000" d="M 257 124 L 259 167" stroke-miterlimit="10"/></g><g transform="translate(2,-94) scale(1,1)"><path fill="none" stroke="#000000" d="M 254.322856065764 157.04388004198225 L 259 167 L 262.73279974413725 156.6527198708951" stroke-miterlimit="10"/></g><g transform="translate(2,-94) scale(1,1)"><path fill="#C0C0C0" stroke="none" d="M 247 283.5 L 271.5 263 L 295 283.5 L 271.5 303 L 247 283.5" opacity="0.2"/></g><g transform="translate(2,-94) scale(1,1)"><path fill="#ffffff" stroke="none" d="M 240 276 L 264 256 L 288 276 L 264 296 L 240 276"/></g><g transform="translate(2,-94) scale(1,1)"><path fill="none" stroke="#000000" d="M 240 276 L 264 256 L 288 276 L 264 296 L 240 276 L 240 276" stroke-miterlimit="10"/></g><g transform="translate(2,-94) scale(1,1)"><path fill="#C0C0C0" stroke="none" d="M 225 351 L 350.65869140625 351 Q 360.65869140625 351 360.65869140625 361 L 360.65869140625 381 Q 360.65869140625 391 350.65869140625 391 L 225 391 Q 215 391 215 381 L 215 361 Q 215 351 225 351 Z" opacity="0.2"/></g><g transform="translate(2,-94) scale(1,1)"><path fill="#ffffff" stroke="none" d="M 218 344 L 343.65869140625 344 Q 353.65869140625 344 353.65869140625 354 L 353.65869140625 374 Q 353.65869140625 384 343.65869140625 384 L 218 384 Q 208 384 208 374 L 208 354 Q 208 344 218 344 Z"/></g><g transform="translate(2,-94) scale(1,1)"><path fill="none" stroke="#000000" d="M 218 344 L 343.65869140625 344 Q 353.65869140625 344 353.65869140625 354 L 353.65869140625 374 Q 353.65869140625 384 343.65869140625 384 L 218 384 Q 208 384 208 374 L 208 354 Q 208 344 218 344 Z" stroke-miterlimit="10"/></g><g transform="translate(2,-94) scale(1,1)"><g><path fill="none" stroke="none"/><text fill="#000000" stroke="none" font-family="Arial" font-size="13px" font-style="normal" font-weight="bold" text-decoration="none" x="220.50439453125" y="363.5">Passwort bestimmen</text></g></g><g transform="translate(2,-94) scale(1,1)"><path fill="#C0C0C0" stroke="none" d="M 393 351 L 508 351 Q 518 351 518 361 L 518 381 Q 518 391 508 391 L 393 391 Q 383 391 383 381 L 383 361 Q 383 351 393 351 Z" opacity="0.2"/></g><g transform="translate(2,-94) scale(1,1)"><path fill="#ffffff" stroke="none" d="M 386 344 L 501 344 Q 511 344 511 354 L 511 374 Q 511 384 501 384 L 386 384 Q 376 384 376 374 L 376 354 Q 376 344 386 344 Z"/></g><g transform="translate(2,-94) scale(1,1)"><path fill="none" stroke="#000000" d="M 386 344 L 501 344 Q 511 344 511 354 L 511 374 Q 511 384 501 384 L 386 384 Q 376 384 376 374 L 376 354 Q 376 344 386 344 Z" stroke-miterlimit="10"/></g><g transform="translate(2,-94) scale(1,1)"><g><path fill="none" stroke="none"/><text fill="#000000" stroke="none" font-family="Arial" font-size="13px" font-style="normal" font-weight="bold" text-decoration="none" x="400.13916015625" y="363.5">Konto erstellen</text></g></g><g transform="translate(2,-94) scale(1,1)"><path fill="none" stroke="#000000" d="M 261 209 L 263 255" stroke-miterlimit="10"/></g><g transform="translate(2,-94) scale(1,1)"><path fill="none" stroke="#000000" d="M 258.3530169751094 245.02976686499363 L 263 255 L 266.7641062508149 244.6640673312673" stroke-miterlimit="10"/></g><g transform="translate(2,-94) scale(1,1)"><g><path fill="none" stroke="none"/><text fill="#000000" stroke="none" font-family="Arial" font-size="13px" font-style="normal" font-weight="normal" text-decoration="none" x="270.677001953125" y="237.5">Account haben?</text></g></g><g transform="translate(2,-94) scale(1,1)"><path fill="none" stroke="#000000" d="M 268 297 L 276 343" stroke-miterlimit="10"/></g><g transform="translate(2,-94) scale(1,1)"><path fill="none" stroke="#000000" d="M 270.1114489759306 333.70887698731036 L 276 343 L 278.4059817266288 332.2663495524063" stroke-miterlimit="10"/></g><g transform="translate(2,-94) scale(1,1)"><g><path fill="none" stroke="none"/><text fill="#000000" stroke="none" font-family="Arial" font-size="13px" font-style="normal" font-weight="normal" text-decoration="none" x="279.5" y="323.5">Ja</text></g></g><g transform="translate(2,-94) scale(1,1)"><path fill="none" stroke="#000000" d="M 288 272 L 448 272 L 448 344" stroke-miterlimit="10"/></g><g transform="translate(2,-94) scale(1,1)"><path fill="none" stroke="#000000" d="M 443.790482243984 333.83732514237585 L 448 344 L 452.209517756016 333.83732514237585" stroke-miterlimit="10"/></g><g transform="translate(2,-94) scale(1,1)"><g><path fill="none" stroke="none"/><text fill="#000000" stroke="none" font-family="Arial" font-size="13px" font-style="normal" font-weight="normal" text-decoration="none" x="448.83935546875" y="277.5">Nein</text></g></g><g transform="translate(2,-94) scale(1,1)"><path fill="#C0C0C0" stroke="none" d="M 138 527 L 315 527 Q 318 527 318 530 L 318 529 Q 318 532 315 532 L 138 532 Q 135 532 135 529 L 135 530 Q 135 527 138 527 Z" opacity="0.2"/></g><g transform="translate(2,-94) scale(1,1)"><path fill="#000000" stroke="none" d="M 131 520 L 308 520 Q 311 520 311 523 L 311 523 Q 311 526 308 526 L 131 526 Q 128 526 128 523 L 128 523 Q 128 520 131 520 Z"/></g><g transform="translate(2,-94) scale(1,1)"><path fill="#C0C0C0" stroke="none" d="M 25 607 L 130.0224609375 607 Q 140.0224609375 607 140.0224609375 617 L 140.0224609375 637 Q 140.0224609375 647 130.0224609375 647 L 25 647 Q 15 647 15 637 L 15 617 Q 15 607 25 607 Z" opacity="0.2"/></g><g transform="translate(2,-94) scale(1,1)"><path fill="#ffffff" stroke="none" d="M 18 600 L 123.0224609375 600 Q 133.0224609375 600 133.0224609375 610 L 133.0224609375 630 Q 133.0224609375 640 123.0224609375 640 L 18 640 Q 8 640 8 630 L 8 610 Q 8 600 18 600 Z"/></g><g transform="translate(2,-94) scale(1,1)"><path fill="none" stroke="#000000" d="M 18 600 L 123.0224609375 600 Q 133.0224609375 600 133.0224609375 610 L 133.0224609375 630 Q 133.0224609375 640 123.0224609375 640 L 18 640 Q 8 640 8 630 L 8 610 Q 8 600 18 600 Z" stroke-miterlimit="10"/></g><g transform="translate(2,-94) scale(1,1)"><g><path fill="none" stroke="none"/><text fill="#000000" stroke="none" font-family="Arial" font-size="13px" font-style="normal" font-weight="bold" text-decoration="none" x="19.92041015625" y="619.5">Konto Einstellung</text></g></g><g transform="translate(2,-94) scale(1,1)"><path fill="#C0C0C0" stroke="none" d="M 177 607 L 281.501953125 607 Q 291.501953125 607 291.501953125 617 L 291.501953125 637 Q 291.501953125 647 281.501953125 647 L 177 647 Q 167 647 167 637 L 167 617 Q 167 607 177 607 Z" opacity="0.2"/></g><g transform="translate(2,-94) scale(1,1)"><path fill="#ffffff" stroke="none" d="M 170 600 L 274.501953125 600 Q 284.501953125 600 284.501953125 610 L 284.501953125 630 Q 284.501953125 640 274.501953125 640 L 170 640 Q 160 640 160 630 L 160 610 Q 160 600 170 600 Z"/></g><g transform="translate(2,-94) scale(1,1)"><path fill="none" stroke="#000000" d="M 170 600 L 274.501953125 600 Q 284.501953125 600 284.501953125 610 L 284.501953125 630 Q 284.501953125 640 274.501953125 640 L 170 640 Q 160 640 160 630 L 160 610 Q 160 600 170 600 Z" stroke-miterlimit="10"/></g><g transform="translate(2,-94) scale(1,1)"><g><path fill="none" stroke="none"/><text fill="#000000" stroke="none" font-family="Arial" font-size="13px" font-style="normal" font-weight="bold" text-decoration="none" x="171.66015625" y="619.5">Gruppe eintragen</text></g></g><g transform="translate(2,-94) scale(1,1)"><path fill="none" stroke="#000000" d="M 511 364 L 544 364 L 544 184 L 296 184" stroke-miterlimit="10"/></g><g transform="translate(2,-94) scale(1,1)"><path fill="none" stroke="#000000" d="M 306.16267485762415 179.790482243984 L 296 184 L 306.16267485762415 188.209517756016" stroke-miterlimit="10"/></g><g transform="translate(2,-94) scale(1,1)"><path fill="#C0C0C0" stroke="none" d="M 337 607 L 413 607 Q 423 607 423 617 L 423 637 Q 423 647 413 647 L 337 647 Q 327 647 327 637 L 327 617 Q 327 607 337 607 Z" opacity="0.2"/></g><g transform="translate(2,-94) scale(1,1)"><path fill="#ffffff" stroke="none" d="M 330 600 L 406 600 Q 416 600 416 610 L 416 630 Q 416 640 406 640 L 330 640 Q 320 640 320 630 L 320 610 Q 320 600 330 600 Z"/></g><g transform="translate(2,-94) scale(1,1)"><path fill="none" stroke="#000000" d="M 330 600 L 406 600 Q 416 600 416 610 L 416 630 Q 416 640 406 640 L 330 640 Q 320 640 320 630 L 320 610 Q 320 600 330 600 Z" stroke-miterlimit="10"/></g><g transform="translate(2,-94) scale(1,1)"><g><path fill="none" stroke="none"/><text fill="#000000" stroke="none" font-family="Arial" font-size="13px" font-style="normal" font-weight="bold" text-decoration="none" x="347.525634765625" y="619.5">Wetten</text></g></g><g transform="translate(2,-94) scale(1,1)"><path fill="none" stroke="#000000" d="M 213 526 L 102 599" stroke-miterlimit="10"/></g><g transform="translate(2,-94) scale(1,1)"><path fill="none" stroke="#000000" d="M 108.17795792213737 589.8987453660333 L 102 599 L 112.80403480961182 596.9329170716452" stroke-miterlimit="10"/></g><g transform="translate(2,-94) scale(1,1)"><path fill="none" stroke="#000000" d="M 219 526 L 221 599" stroke-miterlimit="10"/></g><g transform="translate(2,-94) scale(1,1)"><path fill="none" stroke="#000000" d="M 216.51373619694098 588.9564230928736 L 221 599 L 224.9296137810629 588.7258511042676" stroke-miterlimit="10"/></g><g transform="translate(2,-94) scale(1,1)"><path fill="none" stroke="#000000" d="M 225 526 L 336 599" stroke-miterlimit="10"/></g><g transform="translate(2,-94) scale(1,1)"><path fill="none" stroke="#000000" d="M 325.19596519038816 596.9329170716452 L 336 599 L 329.82204207786265 589.8987453660333" stroke-miterlimit="10"/></g><g transform="translate(2,-94) scale(1,1)"><path fill="none" stroke="#000000" d="M 286 620 L 319 620" stroke-miterlimit="10"/></g><g transform="translate(2,-94) scale(1,1)"><path fill="none" stroke="#000000" d="M 308.83732514237585 624.209517756016 L 319 620 L 308.83732514237585 615.790482243984" stroke-miterlimit="10"/></g><g transform="translate(2,-94) scale(1,1)"><path fill="#C0C0C0" stroke="none" d="M 201 439 L 255.36181640625 439 Q 265.36181640625 439 265.36181640625 449 L 265.36181640625 469 Q 265.36181640625 479 255.36181640625 479 L 201 479 Q 191 479 191 469 L 191 449 Q 191 439 201 439 Z" opacity="0.2"/></g><g transform="translate(2,-94) scale(1,1)"><path fill="#ffffff" stroke="none" d="M 194 432 L 248.36181640625 432 Q 258.36181640625 432 258.36181640625 442 L 258.36181640625 462 Q 258.36181640625 472 248.36181640625 472 L 194 472 Q 184 472 184 462 L 184 442 Q 184 432 194 432 Z"/></g><g transform="translate(2,-94) scale(1,1)"><path fill="none" stroke="#000000" d="M 194 432 L 248.36181640625 432 Q 258.36181640625 432 258.36181640625 442 L 258.36181640625 462 Q 258.36181640625 472 248.36181640625 472 L 194 472 Q 184 472 184 462 L 184 442 Q 184 432 194 432 Z" stroke-miterlimit="10"/></g><g transform="translate(2,-94) scale(1,1)"><g><path fill="none" stroke="none"/><text fill="#000000" stroke="none" font-family="Arial" font-size="13px" font-style="normal" font-weight="bold" text-decoration="none" x="192.267333984375" y="451.5">Einloggen</text></g></g><g transform="translate(2,-94) scale(1,1)"><path fill="none" stroke="#000000" d="M 266 385 L 235 431" stroke-miterlimit="10"/></g><g transform="translate(2,-94) scale(1,1)"><path fill="none" stroke="#000000" d="M 237.18863427668546 420.2199313544432 L 235 431 L 244.17025777951133 424.9249384976519" stroke-miterlimit="10"/></g><g transform="translate(2,-94) scale(1,1)"><path fill="none" stroke="#000000" d="M 220 473 L 219 519" stroke-miterlimit="10"/></g><g transform="translate(2,-94) scale(1,1)"><path fill="none" stroke="#000000" d="M 215.01235210782485 508.74823604017183 L 219 519 L 223.42939894957703 508.93121531934037" stroke-miterlimit="10"/></g><g transform="translate(2,-94) scale(1,1)"><path fill="#C0C0C0" stroke="none" d="M 106 711 L 331 711 Q 334 711 334 714 L 334 713 Q 334 716 331 716 L 106 716 Q 103 716 103 713 L 103 714 Q 103 711 106 711 Z" opacity="0.2"/></g><g transform="translate(2,-94) scale(1,1)"><path fill="#000000" stroke="none" d="M 99 704 L 324 704 Q 327 704 327 707 L 327 707 Q 327 710 324 710 L 99 710 Q 96 710 96 707 L 96 707 Q 96 704 99 704 Z"/></g><g transform="translate(2,-94) scale(1,1)"><path fill="none" stroke="#000000" d="M 104 641 L 206 703" stroke-miterlimit="10"/></g><g transform="translate(2,-94) scale(1,1)"><path fill="none" stroke="#000000" d="M 195.12928343146643 701.3184764983475 L 206 703 L 199.50225926877593 694.12422592729" stroke-miterlimit="10"/></g><g transform="translate(2,-94) scale(1,1)"><path fill="none" stroke="#000000" d="M 219 641 L 211 703" stroke-miterlimit="10"/></g><g transform="translate(2,-94) scale(1,1)"><path fill="none" stroke="#000000" d="M 208.12562455581136 692.3821863923948 L 211 703 L 216.47543763505053 693.4595816284257" stroke-miterlimit="10"/></g><g transform="translate(2,-94) scale(1,1)"><path fill="none" stroke="#000000" d="M 330 641 L 216 703" stroke-miterlimit="10"/></g><g transform="translate(2,-94) scale(1,1)"><path fill="none" stroke="#000000" d="M 222.9165567737301 694.4465654620049 L 216 703 L 226.9389357614179 701.8425526329147" stroke-miterlimit="10"/></g><g transform="translate(2,-94) scale(1,1)"><path fill="#C0C0C0" stroke="none" d="M 465 607 L 578.16015625 607 Q 588.16015625 607 588.16015625 617 L 588.16015625 637 Q 588.16015625 647 578.16015625 647 L 465 647 Q 455 647 455 637 L 455 617 Q 455 607 465 607 Z" opacity="0.2"/></g><g transform="translate(2,-94) scale(1,1)"><path fill="#ffffff" stroke="none" d="M 458 600 L 571.16015625 600 Q 581.16015625 600 581.16015625 610 L 581.16015625 630 Q 581.16015625 640 571.16015625 640 L 458 640 Q 448 640 448 630 L 448 610 Q 448 600 458 600 Z"/></g><g transform="translate(2,-94) scale(1,1)"><path fill="none" stroke="#000000" d="M 458 600 L 571.16015625 600 Q 581.16015625 600 581.16015625 610 L 581.16015625 630 Q 581.16015625 640 571.16015625 640 L 458 640 Q 448 640 448 630 L 448 610 Q 448 600 458 600 Z" stroke-miterlimit="10"/></g><g transform="translate(2,-94) scale(1,1)"><g><path fill="none" stroke="none"/><text fill="#000000" stroke="none" font-family="Arial" font-size="13px" font-style="normal" font-weight="bold" text-decoration="none" x="496.5146484375" y="619.5">surfen</text></g></g><g transform="translate(2,-94) scale(1,1)"><path fill="none" stroke="#000000" d="M 231 526 L 451 599" stroke-miterlimit="10"/></g><g transform="translate(2,-94) scale(1,1)"><path fill="none" stroke="#000000" d="M 440.02874773173556 599.7947475486611 L 451 599 L 442.6801817420123 591.8041245039916" stroke-miterlimit="10"/></g><g transform="translate(2,-94) scale(1,1)"><path fill="none" stroke="#000000" d="M 447 639 L 222 703" stroke-miterlimit="10"/></g><g transform="translate(2,-94) scale(1,1)"><path fill="none" stroke="#000000" d="M 230.62323807671726 696.1706687683014 L 222 703 L 232.92661654473596 704.2684836949296" stroke-miterlimit="10"/></g><g transform="translate(2,-94) scale(1,1)"><path fill="#C0C0C0" stroke="none" d="M 185 767 L 244.27490234375 767 Q 254.27490234375 767 254.27490234375 777 L 254.27490234375 797 Q 254.27490234375 807 244.27490234375 807 L 185 807 Q 175 807 175 797 L 175 777 Q 175 767 185 767 Z" opacity="0.2"/></g><g transform="translate(2,-94) scale(1,1)"><path fill="#ffffff" stroke="none" d="M 178 760 L 237.27490234375 760 Q 247.27490234375 760 247.27490234375 770 L 247.27490234375 790 Q 247.27490234375 800 237.27490234375 800 L 178 800 Q 168 800 168 790 L 168 770 Q 168 760 178 760 Z"/></g><g transform="translate(2,-94) scale(1,1)"><path fill="none" stroke="#000000" d="M 178 760 L 237.27490234375 760 Q 247.27490234375 760 247.27490234375 770 L 247.27490234375 790 Q 247.27490234375 800 237.27490234375 800 L 178 800 Q 168 800 168 790 L 168 770 Q 168 760 178 760 Z" stroke-miterlimit="10"/></g><g transform="translate(2,-94) scale(1,1)"><g><path fill="none" stroke="none"/><text fill="#000000" stroke="none" font-family="Arial" font-size="13px" font-style="normal" font-weight="bold" text-decoration="none" x="176.91796875" y="779.5">Ausloggen</text></g></g><g transform="translate(2,-94) scale(1,1)"><path fill="none" stroke="#000000" d="M 211 710 L 208 759" stroke-miterlimit="10"/></g><g transform="translate(2,-94) scale(1,1)"><path fill="none" stroke="#000000" d="M 204.41939139501505 748.599074944126 L 208 759 L 212.82269201226183 749.1135627370187" stroke-miterlimit="10"/></g><g transform="translate(2,-94) scale(1,1)"><path fill="#C0C0C0" stroke="none" d="M 207 867.5 C 207 860.59644 212.59644 855 219.5 855 C 226.40356 855 232 860.59644 232 867.5 C 232 874.40356 226.40356 880 219.5 880 C 212.59644 880 207 874.40356 207 867.5 Z" opacity="0.2"/></g><g transform="translate(2,-94) scale(1,1)"><path fill="none" stroke="#000000" d="M 200 860.5 C 200 853.59644 205.59644 848 212.5 848 C 219.40356 848 225 853.59644 225 860.5 C 225 867.40356 219.40356 873 212.5 873 C 205.59644 873 200 867.40356 200 860.5 Z" stroke-miterlimit="10"/></g><g transform="translate(2,-94) scale(1,1)"><path fill="#000000" stroke="none" d="M 205 860.5 C 205 856.357864 208.357864 853 212.5 853 C 216.642136 853 220 856.357864 220 860.5 C 220 864.642136 216.642136 868 212.5 868 C 208.357864 868 205 864.642136 205 860.5 Z"/></g><g transform="translate(2,-94) scale(1,1)"><path fill="none" stroke="#000000" d="M 208 801 L 211 847" stroke-miterlimit="10"/></g><g transform="translate(2,-94) scale(1,1)"><path fill="none" stroke="#000000" d="M 206.1380278627038 837.1328207203803 L 211 847 L 214.53921591158027 836.5849171519753" stroke-miterlimit="10"/></g></g></svg>