<svg version="1.1" xmlns="http://www.w3.org/2000/svg" xmlns:xlink="http://www.w3.org/1999/xlink" width="1157" height="1052"><defs/><g><g transform="translate(-158,-86) scale(1,1)"><rect fill="#C0C0C0" stroke="none" x="175" y="103" width="416" height="15" opacity="0.2"/></g><g transform="translate(-158,-86) scale(1,1)"><rect fill="#C0C0C0" stroke="none" x="175" y="117" width="1040" height="378" opacity="0.2"/></g><g transform="translate(-158,-86) scale(1,1)"><rect fill="#fff2e4" stroke="none" x="168" y="111" width="1040" height="377"/></g><g transform="translate(-158,-86) scale(1,1)"><path fill="none" stroke="#000000" d="M 168 111 L 1208 111 L 1208 488 L 168 488 L 168 111 Z Z" stroke-miterlimit="10"/></g><g transform="translate(-158,-86) scale(1,1)"><rect fill="#fff2e4" stroke="none" x="168" y="96" width="416" height="15"/></g><g transform="translate(-158,-86) scale(1,1)"><path fill="none" stroke="#000000" d="M 168 96 L 584 96 L 584 111 L 168 111 L 168 96 Z Z" stroke-miterlimit="10"/></g><g transform="translate(-158,-86) scale(1,1)"><rect fill="#fff2e4" stroke="none" x="168" y="110" width="1040" height="378"/></g><g transform="translate(-158,-86) scale(1,1)"><path fill="none" stroke="#000000" d="M 168 110 L 1208 110 L 1208 488 L 168 488 L 168 110 Z Z" stroke-miterlimit="10"/></g><g transform="translate(-158,-86) scale(1,1)"><g><path fill="none" stroke="none"/><text fill="#000000" stroke="none" font-family="Arial" font-size="13px" font-style="normal" font-weight="bold" text-decoration="none" x="647.1845703125" y="130.5">kickstart.order</text></g></g><g transform="translate(-158,-86) scale(1,1)"><rect fill="#C0C0C0" stroke="none" x="207" y="543" width="144" height="15" opacity="0.2"/></g><g transform="translate(-158,-86) scale(1,1)"><rect fill="#C0C0C0" stroke="none" x="207" y="557" width="360" height="482" opacity="0.2"/></g><g transform="translate(-158,-86) scale(1,1)"><rect fill="#fff2e4" stroke="none" x="200" y="551" width="360" height="481"/></g><g transform="translate(-158,-86) scale(1,1)"><path fill="none" stroke="#000000" d="M 200 551 L 560 551 L 560 1032 L 200 1032 L 200 551 Z Z" stroke-miterlimit="10"/></g><g transform="translate(-158,-86) scale(1,1)"><rect fill="#fff2e4" stroke="none" x="200" y="536" width="144" height="15"/></g><g transform="translate(-158,-86) scale(1,1)"><path fill="none" stroke="#000000" d="M 200 536 L 344 536 L 344 551 L 200 551 L 200 536 Z Z" stroke-miterlimit="10"/></g><g transform="translate(-158,-86) scale(1,1)"><rect fill="#fff2e4" stroke="none" x="200" y="550" width="360" height="482"/></g><g transform="translate(-158,-86) scale(1,1)"><path fill="none" stroke="#000000" d="M 200 550 L 560 550 L 560 1032 L 200 1032 L 200 550 Z Z" stroke-miterlimit="10"/></g><g transform="translate(-158,-86) scale(1,1)"><g><path fill="none" stroke="none"/><text fill="#000000" stroke="none" font-family="Arial" font-size="13px" font-style="normal" font-weight="bold" text-decoration="none" x="349.6455078125" y="570.5">Salespoint</text></g></g><g transform="translate(-158,-86) scale(1,1)"><rect fill="#C0C0C0" stroke="none" x="311" y="599" width="176" height="40" opacity="0.2"/></g><g transform="translate(-158,-86) scale(1,1)"><rect fill="#d8e1f8" stroke="none" x="304" y="592" width="176" height="40"/></g><g transform="translate(-158,-86) scale(1,1)"><path fill="none" stroke="#000000" d="M 304 592 L 480 592 L 480 632 L 304 632 L 304 592 Z Z" stroke-miterlimit="10"/></g><g transform="translate(-158,-86) scale(1,1)"><g><path fill="none" stroke="none"/><text fill="#000000" stroke="none" font-family="Arial" font-size="13px" font-style="normal" font-weight="bold" text-decoration="none" x="355.869140625" y="611.5">userAccount</text></g></g><g transform="translate(-158,-86) scale(1,1)"><rect fill="#C0C0C0" stroke="none" x="311" y="727" width="176" height="40" opacity="0.2"/></g><g transform="translate(-158,-86) scale(1,1)"><rect fill="#d8e1f8" stroke="none" x="304" y="720" width="176" height="40"/></g><g transform="translate(-158,-86) scale(1,1)"><path fill="none" stroke="#000000" d="M 304 720 L 480 720 L 480 760 L 304 760 L 304 720 Z Z" stroke-miterlimit="10"/></g><g transform="translate(-158,-86) scale(1,1)"><g><path fill="none" stroke="none"/><text fill="#000000" stroke="none" font-family="Arial" font-size="13px" font-style="normal" font-weight="bold" text-decoration="none" x="382.24365234375" y="739.5">Bet</text></g></g><g transform="translate(-158,-86) scale(1,1)"><rect fill="#C0C0C0" stroke="none" x="823" y="591" width="73.60000000000002" height="15" opacity="0.2"/></g><g transform="translate(-158,-86) scale(1,1)"><rect fill="#C0C0C0" stroke="none" x="823" y="605" width="184" height="114" opacity="0.2"/></g><g transform="translate(-158,-86) scale(1,1)"><rect fill="#fff2e4" stroke="none" x="816" y="599" width="184" height="113"/></g><g transform="translate(-158,-86) scale(1,1)"><path fill="none" stroke="#000000" d="M 816 599 L 1000 599 L 1000 712 L 816 712 L 816 599 Z Z" stroke-miterlimit="10"/></g><g transform="translate(-158,-86) scale(1,1)"><rect fill="#fff2e4" stroke="none" x="816" y="584" width="73.60000000000002" height="15"/></g><g transform="translate(-158,-86) scale(1,1)"><path fill="none" stroke="#000000" d="M 816 584 L 889.6 584 L 889.6 599 L 816 599 L 816 584 Z Z" stroke-miterlimit="10"/></g><g transform="translate(-158,-86) scale(1,1)"><rect fill="#fff2e4" stroke="none" x="816" y="598" width="184" height="114"/></g><g transform="translate(-158,-86) scale(1,1)"><path fill="none" stroke="#000000" d="M 816 598 L 1000 598 L 1000 712 L 816 712 L 816 598 Z Z" stroke-miterlimit="10"/></g><g transform="translate(-158,-86) scale(1,1)"><g><path fill="none" stroke="none"/><text fill="#000000" stroke="none" font-family="Arial" font-size="13px" font-style="normal" font-weight="bold" text-decoration="none" x="889.2109375" y="618.5">Spring</text></g></g><g transform="translate(-158,-86) scale(1,1)"><rect fill="#C0C0C0" stroke="none" x="823" y="743" width="73.60000000000002" height="15" opacity="0.2"/></g><g transform="translate(-158,-86) scale(1,1)"><rect fill="#C0C0C0" stroke="none" x="823" y="757" width="184" height="98" opacity="0.2"/></g><g transform="translate(-158,-86) scale(1,1)"><rect fill="#fff2e4" stroke="none" x="816" y="751" width="184" height="97"/></g><g transform="translate(-158,-86) scale(1,1)"><path fill="none" stroke="#000000" d="M 816 751 L 1000 751 L 1000 848 L 816 848 L 816 751 Z Z" stroke-miterlimit="10"/></g><g transform="translate(-158,-86) scale(1,1)"><rect fill="#fff2e4" stroke="none" x="816" y="736" width="73.60000000000002" height="15"/></g><g transform="translate(-158,-86) scale(1,1)"><path fill="none" stroke="#000000" d="M 816 736 L 889.6 736 L 889.6 751 L 816 751 L 816 736 Z Z" stroke-miterlimit="10"/></g><g transform="translate(-158,-86) scale(1,1)"><rect fill="#fff2e4" stroke="none" x="816" y="750" width="184" height="98"/></g><g transform="translate(-158,-86) scale(1,1)"><path fill="none" stroke="#000000" d="M 816 750 L 1000 750 L 1000 848 L 816 848 L 816 750 Z Z" stroke-miterlimit="10"/></g><g transform="translate(-158,-86) scale(1,1)"><g><path fill="none" stroke="none"/><text fill="#000000" stroke="none" font-family="Arial" font-size="13px" font-style="normal" font-weight="bold" text-decoration="none" x="859.95458984375" y="770.5">kickstart.Catalog</text></g></g><g transform="translate(-158,-86) scale(1,1)"><rect fill="#C0C0C0" stroke="none" x="239" y="159" width="948.64599609375" height="289" opacity="0.2"/></g><g transform="translate(-158,-86) scale(1,1)"><rect fill="#d8e1f8" stroke="none" x="232" y="152" width="948.64599609375" height="289"/></g><g transform="translate(-158,-86) scale(1,1)"><path fill="none" stroke="#000000" d="M 232 152 L 1180.64599609375 152 L 1180.64599609375 441 L 232 441 L 232 152 Z Z" stroke-miterlimit="10"/></g><g transform="translate(-158,-86) scale(1,1)"><path fill="none" stroke="#000000" d="M 232 179 L 1180.64599609375 179" stroke-miterlimit="10"/></g><g transform="translate(-158,-86) scale(1,1)"><g><path fill="none" stroke="none"/><text fill="#000000" stroke="none" font-family="Arial" font-size="15px" font-style="normal" font-weight="bold" text-decoration="none" x="654.6396484375" y="173.5">OrderController</text></g></g><g transform="translate(-158,-86) scale(1,1)"><g><path fill="none" stroke="none"/><text fill="#000000" stroke="none" font-family="Arial" font-size="15px" font-style="normal" font-weight="normal" text-decoration="none" x="237" y="198.5">+OrderController(customerManagerment: CustomerManagerment)</text></g></g><g transform="translate(-158,-86) scale(1,1)"><g><path fill="none" stroke="none"/><text fill="#000000" stroke="none" font-family="Arial" font-size="15px" font-style="normal" font-weight="normal" text-decoration="none" x="237" y="215.5">+viewBets(model: Model, userAccount: UserAccount): String</text></g></g><g transform="translate(-158,-86) scale(1,1)"><g><path fill="none" stroke="none"/><text fill="#000000" stroke="none" font-family="Arial" font-size="15px" font-style="normal" font-weight="normal" text-decoration="none" x="237" y="232.5">+raiseFootBet(id: ProductIdentifier, bet_id: String, inset: double, userAccount: UserAccount): String</text></g></g><g transform="translate(-158,-86) scale(1,1)"><g><path fill="none" stroke="none"/><text fill="#000000" stroke="none" font-family="Arial" font-size="15px" font-style="normal" font-weight="normal" text-decoration="none" x="237" y="249.5">+changeFoot(model: Model, id: ProductIdentifier, bid: String): String</text></g></g><g transform="translate(-158,-86) scale(1,1)"><g><path fill="none" stroke="none"/><text fill="#000000" stroke="none" font-family="Arial" font-size="15px" font-style="normal" font-weight="normal" text-decoration="none" x="237" y="266.5">+changeFootBetTip(id: ProductIdentifier, bet_id: String, number: int): String</text></g></g><g transform="translate(-158,-86) scale(1,1)"><g><path fill="none" stroke="none"/><text fill="#000000" stroke="none" font-family="Arial" font-size="15px" font-style="normal" font-weight="normal" text-decoration="none" x="237" y="283.5">+raiseNumBet(model: Model, id: ProductIdentifier, bet_id: String, inset: double): String</text></g></g><g transform="translate(-158,-86) scale(1,1)"><g><path fill="none" stroke="none"/><text fill="#000000" stroke="none" font-family="Arial" font-size="15px" font-style="normal" font-weight="normal" text-decoration="none" x="237" y="300.5">+changeNums(model: Model, id: ProductIdentifier, bet_id: String): String</text></g></g><g transform="translate(-158,-86) scale(1,1)"><g><path fill="none" stroke="none"/><text fill="#000000" stroke="none" font-family="Arial" font-size="15px" font-style="normal" font-weight="normal" text-decoration="none" x="237" y="317.5">+changeNumbetTip(id: ProductIdentifier, bet_id: String, zahl1: int, zahl2: int, zahl3: int, zahl4: int, zahl5: int, zahl6: int, zusatz: int): String</text></g></g><g transform="translate(-158,-86) scale(1,1)"><g><path fill="none" stroke="none"/><text fill="#000000" stroke="none" font-family="Arial" font-size="15px" font-style="normal" font-weight="normal" text-decoration="none" x="237" y="334.5">+removeNumberBets(id: ProductIdentifier, bid: String): String</text></g></g><g transform="translate(-158,-86) scale(1,1)"><g><path fill="none" stroke="none"/><text fill="#000000" stroke="none" font-family="Arial" font-size="15px" font-style="normal" font-weight="normal" text-decoration="none" x="237" y="351.5">+removeFootballBets(id: ProductIdentifier, bid: String, userAccount: UserAccount): String</text></g></g><g transform="translate(-158,-86) scale(1,1)"><g><path fill="none" stroke="none"/><text fill="#000000" stroke="none" font-family="Arial" font-size="15px" font-style="normal" font-weight="normal" text-decoration="none" x="237" y="368.5">+income(model: Model, customer: userAccount, footballBet: FootballBet, date: LocalTime, match: Match): String</text></g></g><g transform="translate(-158,-86) scale(1,1)"><g><path fill="none" stroke="none"/><text fill="#000000" stroke="none" font-family="Arial" font-size="15px" font-style="normal" font-weight="normal" text-decoration="none" x="237" y="385.5">+result(model: Model, football: Football, scoreHost: int, scoreGuest: int): String</text></g></g><g transform="translate(-158,-86) scale(1,1)"><g><path fill="none" stroke="none"/><text fill="#000000" stroke="none" font-family="Arial" font-size="15px" font-style="normal" font-weight="normal" text-decoration="none" x="237" y="402.5">+toAccountDeactivatePage(): String</text></g></g><g transform="translate(-158,-86) scale(1,1)"><g><path fill="none" stroke="none"/><text fill="#000000" stroke="none" font-family="Arial" font-size="15px" font-style="normal" font-weight="normal" text-decoration="none" x="237" y="419.5">+accountDeactivate(userAccount: UserAccount, redir: RedirectAttributes): String</text></g></g><g transform="translate(-158,-86) scale(1,1)"><g><path fill="none" stroke="none"/><text fill="#000000" stroke="none" font-family="Arial" font-size="15px" font-style="normal" font-weight="normal" text-decoration="none" x="237" y="436.5">+checkBetStatus(customer: Customer): boolean</text></g></g><g transform="translate(-158,-86) scale(1,1)"><rect fill="#C0C0C0" stroke="none" x="311" y="855" width="176" height="40" opacity="0.2"/></g><g transform="translate(-158,-86) scale(1,1)"><rect fill="#d8e1f8" stroke="none" x="304" y="848" width="176" height="40"/></g><g transform="translate(-158,-86) scale(1,1)"><path fill="none" stroke="#000000" d="M 304 848 L 480 848 L 480 888 L 304 888 L 304 848 Z Z" stroke-miterlimit="10"/></g><g transform="translate(-158,-86) scale(1,1)"><g><path fill="none" stroke="none"/><text fill="#000000" stroke="none" font-family="Arial" font-size="13px" font-style="normal" font-weight="bold" text-decoration="none" x="359.839599609375" y="867.5">Footballbet</text></g></g><g transform="translate(-158,-86) scale(1,1)"><rect fill="#C0C0C0" stroke="none" x="311" y="663" width="176" height="40" opacity="0.2"/></g><g transform="translate(-158,-86) scale(1,1)"><rect fill="#d8e1f8" stroke="none" x="304" y="656" width="176" height="40"/></g><g transform="translate(-158,-86) scale(1,1)"><path fill="none" stroke="#000000" d="M 304 656 L 480 656 L 480 696 L 304 696 L 304 656 Z Z" stroke-miterlimit="10"/></g><g transform="translate(-158,-86) scale(1,1)"><g><path fill="none" stroke="none"/><text fill="#000000" stroke="none" font-family="Arial" font-size="13px" font-style="normal" font-weight="bold" text-decoration="none" x="363.825927734375" y="675.5">Customer</text></g></g><g transform="translate(-158,-86) scale(1,1)"><rect fill="#C0C0C0" stroke="none" x="879" y="647" width="83.67578125" height="33" opacity="0.2"/></g><g transform="translate(-158,-86) scale(1,1)"><rect fill="#ffffcd" stroke="none" x="872" y="640" width="83.67578125" height="33"/></g><g transform="translate(-158,-86) scale(1,1)"><path fill="none" stroke="#000000" d="M 872 640 L 955.67578125 640 L 955.67578125 673 L 872 673 L 872 640 Z Z" stroke-miterlimit="10"/></g><g transform="translate(-158,-86) scale(1,1)"><path fill="#ffffcd" stroke="none" d="M 929.67578125 657 C 929.67578125 652.0294368 933.70521805 648 938.67578125 648 C 943.64634445 648 947.67578125 652.0294368 947.67578125 657 C 947.67578125 661.9705632 943.64634445 666 938.67578125 666 C 933.70521805 666 929.67578125 661.9705632 929.67578125 657 Z"/></g><g transform="translate(-158,-86) scale(1,1)"><path fill="none" stroke="#000000" d="M 929.67578125 657 C 929.67578125 652.0294368 933.70521805 648 938.67578125 648 C 943.64634445 648 947.67578125 652.0294368 947.67578125 657 C 947.67578125 661.9705632 943.64634445 666 938.67578125 666 C 933.70521805 666 929.67578125 661.9705632 929.67578125 657 Z" stroke-miterlimit="10"/></g><g transform="translate(-158,-86) scale(1,1)"><g><path fill="none" stroke="none"/><text fill="#000000" stroke="none" font-family="Arial" font-size="13px" font-style="normal" font-weight="bold" text-decoration="none" x="884.13427734375" y="659.5">Model</text></g></g><g transform="translate(-158,-86) scale(1,1)"><rect fill="#C0C0C0" stroke="none" x="311" y="791" width="176" height="40" opacity="0.2"/></g><g transform="translate(-158,-86) scale(1,1)"><rect fill="#d8e1f8" stroke="none" x="304" y="784" width="176" height="40"/></g><g transform="translate(-158,-86) scale(1,1)"><path fill="none" stroke="#000000" d="M 304 784 L 480 784 L 480 824 L 304 824 L 304 784 Z Z" stroke-miterlimit="10"/></g><g transform="translate(-158,-86) scale(1,1)"><g><path fill="none" stroke="none"/><text fill="#000000" stroke="none" font-family="Arial" font-size="13px" font-style="normal" font-weight="bold" text-decoration="none" x="374.299560546875" y="803.5">Match</text></g></g><g transform="translate(-158,-86) scale(1,1)"><rect fill="#C0C0C0" stroke="none" x="1055" y="607" width="73.59999999999991" height="15" opacity="0.2"/></g><g transform="translate(-158,-86) scale(1,1)"><rect fill="#C0C0C0" stroke="none" x="1055" y="621" width="184" height="90" opacity="0.2"/></g><g transform="translate(-158,-86) scale(1,1)"><rect fill="#fff2e4" stroke="none" x="1048" y="615" width="184" height="89"/></g><g transform="translate(-158,-86) scale(1,1)"><path fill="none" stroke="#000000" d="M 1048 615 L 1232 615 L 1232 704 L 1048 704 L 1048 615 Z Z" stroke-miterlimit="10"/></g><g transform="translate(-158,-86) scale(1,1)"><rect fill="#fff2e4" stroke="none" x="1048" y="600" width="73.59999999999991" height="15"/></g><g transform="translate(-158,-86) scale(1,1)"><path fill="none" stroke="#000000" d="M 1048 600 L 1121.6 600 L 1121.6 615 L 1048 615 L 1048 600 Z Z" stroke-miterlimit="10"/></g><g transform="translate(-158,-86) scale(1,1)"><rect fill="#fff2e4" stroke="none" x="1048" y="614" width="184" height="90"/></g><g transform="translate(-158,-86) scale(1,1)"><path fill="none" stroke="#000000" d="M 1048 614 L 1232 614 L 1232 704 L 1048 704 L 1048 614 Z Z" stroke-miterlimit="10"/></g><g transform="translate(-158,-86) scale(1,1)"><g><path fill="none" stroke="none"/><text fill="#000000" stroke="none" font-family="Arial" font-size="13px" font-style="normal" font-weight="bold" text-decoration="none" x="1106.760498046875" y="634.5">JavaMoney</text></g></g><g transform="translate(-158,-86) scale(1,1)"><rect fill="#C0C0C0" stroke="none" x="1119" y="655" width="55" height="32" opacity="0.2"/></g><g transform="translate(-158,-86) scale(1,1)"><rect fill="#d8e1f8" stroke="none" x="1112" y="648" width="55" height="32"/></g><g transform="translate(-158,-86) scale(1,1)"><path fill="none" stroke="#000000" d="M 1112 648 L 1167 648 L 1167 680 L 1112 680 L 1112 648 Z Z" stroke-miterlimit="10"/></g><g transform="translate(-158,-86) scale(1,1)"><g><path fill="none" stroke="none"/><text fill="#000000" stroke="none" font-family="Arial" font-size="13px" font-style="normal" font-weight="bold" text-decoration="none" x="1119.990478515625" y="667.5">Money</text></g></g><g transform="translate(-158,-86) scale(1,1)"><rect fill="#C0C0C0" stroke="none" x="1055" y="751" width="73.59999999999991" height="15" opacity="0.2"/></g><g transform="translate(-158,-86) scale(1,1)"><rect fill="#C0C0C0" stroke="none" x="1055" y="765" width="184" height="106" opacity="0.2"/></g><g transform="translate(-158,-86) scale(1,1)"><rect fill="#fff2e4" stroke="none" x="1048" y="759" width="184" height="105"/></g><g transform="translate(-158,-86) scale(1,1)"><path fill="none" stroke="#000000" d="M 1048 759 L 1232 759 L 1232 864 L 1048 864 L 1048 759 Z Z" stroke-miterlimit="10"/></g><g transform="translate(-158,-86) scale(1,1)"><rect fill="#fff2e4" stroke="none" x="1048" y="744" width="73.59999999999991" height="15"/></g><g transform="translate(-158,-86) scale(1,1)"><path fill="none" stroke="#000000" d="M 1048 744 L 1121.6 744 L 1121.6 759 L 1048 759 L 1048 744 Z Z" stroke-miterlimit="10"/></g><g transform="translate(-158,-86) scale(1,1)"><rect fill="#fff2e4" stroke="none" x="1048" y="758" width="184" height="106"/></g><g transform="translate(-158,-86) scale(1,1)"><path fill="none" stroke="#000000" d="M 1048 758 L 1232 758 L 1232 864 L 1048 864 L 1048 758 Z Z" stroke-miterlimit="10"/></g><g transform="translate(-158,-86) scale(1,1)"><g><path fill="none" stroke="none"/><text fill="#000000" stroke="none" font-family="Arial" font-size="13px" font-style="normal" font-weight="bold" text-decoration="none" x="1125.797119140625" y="778.5">Time</text></g></g><g transform="translate(-158,-86) scale(1,1)"><rect fill="#C0C0C0" stroke="none" x="1095" y="807" width="102.38671875" height="32" opacity="0.2"/></g><g transform="translate(-158,-86) scale(1,1)"><rect fill="#d8e1f8" stroke="none" x="1088" y="800" width="102.38671875" height="32"/></g><g transform="translate(-158,-86) scale(1,1)"><path fill="none" stroke="#000000" d="M 1088 800 L 1190.38671875 800 L 1190.38671875 832 L 1088 832 L 1088 800 Z Z" stroke-miterlimit="10"/></g><g transform="translate(-158,-86) scale(1,1)"><g><path fill="none" stroke="none"/><text fill="#000000" stroke="none" font-family="Arial" font-size="13px" font-style="normal" font-weight="bold" text-decoration="none" x="1095.721435546875" y="819.5">LocalDateTime</text></g></g><g transform="translate(-158,-86) scale(1,1)"><rect fill="#C0C0C0" stroke="none" x="815" y="895" width="115.20000000000005" height="15" opacity="0.2"/></g><g transform="translate(-158,-86) scale(1,1)"><rect fill="#C0C0C0" stroke="none" x="815" y="909" width="288" height="226" opacity="0.2"/></g><g transform="translate(-158,-86) scale(1,1)"><rect fill="#fff2e4" stroke="none" x="808" y="903" width="288" height="225"/></g><g transform="translate(-158,-86) scale(1,1)"><path fill="none" stroke="#000000" d="M 808 903 L 1096 903 L 1096 1128 L 808 1128 L 808 903 Z Z" stroke-miterlimit="10"/></g><g transform="translate(-158,-86) scale(1,1)"><rect fill="#fff2e4" stroke="none" x="808" y="888" width="115.20000000000005" height="15"/></g><g transform="translate(-158,-86) scale(1,1)"><path fill="none" stroke="#000000" d="M 808 888 L 923.2 888 L 923.2 903 L 808 903 L 808 888 Z Z" stroke-miterlimit="10"/></g><g transform="translate(-158,-86) scale(1,1)"><rect fill="#fff2e4" stroke="none" x="808" y="902" width="288" height="226"/></g><g transform="translate(-158,-86) scale(1,1)"><path fill="none" stroke="#000000" d="M 808 902 L 1096 902 L 1096 1128 L 808 1128 L 808 902 Z Z" stroke-miterlimit="10"/></g><g transform="translate(-158,-86) scale(1,1)"><g><path fill="none" stroke="none"/><text fill="#000000" stroke="none" font-family="Arial" font-size="13px" font-style="normal" font-weight="bold" text-decoration="none" x="899.628662109375" y="922.5">kickstart.customer</text></g></g><g transform="translate(-158,-86) scale(1,1)"><rect fill="#C0C0C0" stroke="none" x="847" y="799" width="134.72998046875" height="33" opacity="0.2"/></g><g transform="translate(-158,-86) scale(1,1)"><rect fill="#ffffcd" stroke="none" x="840" y="792" width="134.72998046875" height="33"/></g><g transform="translate(-158,-86) scale(1,1)"><path fill="none" stroke="#000000" d="M 840 792 L 974.72998046875 792 L 974.72998046875 825 L 840 825 L 840 792 Z Z" stroke-miterlimit="10"/></g><g transform="translate(-158,-86) scale(1,1)"><path fill="#ffffcd" stroke="none" d="M 948.72998046875 809 C 948.72998046875 804.0294368 952.75941726875 800 957.72998046875 800 C 962.70054366875 800 966.72998046875 804.0294368 966.72998046875 809 C 966.72998046875 813.9705632 962.70054366875 818 957.72998046875 818 C 952.75941726875 818 948.72998046875 813.9705632 948.72998046875 809 Z"/></g><g transform="translate(-158,-86) scale(1,1)"><path fill="none" stroke="#000000" d="M 948.72998046875 809 C 948.72998046875 804.0294368 952.75941726875 800 957.72998046875 800 C 962.70054366875 800 966.72998046875 804.0294368 966.72998046875 809 C 966.72998046875 813.9705632 962.70054366875 818 957.72998046875 818 C 952.75941726875 818 948.72998046875 813.9705632 948.72998046875 809 Z" stroke-miterlimit="10"/></g><g transform="translate(-158,-86) scale(1,1)"><g><path fill="none" stroke="none"/><text fill="#000000" stroke="none" font-family="Arial" font-size="13px" font-style="normal" font-weight="bold" text-decoration="none" x="853.089599609375" y="811.5">LotteryCatalog</text></g></g><g transform="translate(-158,-86) scale(1,1)"><path fill="none" stroke="#000000" d="M 734 441 L 734 664 L 872 664" stroke-miterlimit="10"/></g><g transform="translate(-158,-86) scale(1,1)"><g><path fill="none" stroke="none"/><text fill="#000000" stroke="none" font-family="Arial" font-size="13px" font-style="normal" font-weight="normal" text-decoration="none" x="739.943359375" y="684.5">-&lt;&lt;uses&gt;&gt;</text></g></g><g transform="translate(-158,-86) scale(1,1)"><path fill="none" stroke="#000000" d="M 691 441 L 691 816 L 840 816" stroke-miterlimit="10"/></g><g transform="translate(-158,-86) scale(1,1)"><path fill="none" stroke="#000000" d="M 829.8373251423759 820.209517756016 L 840 816 L 829.8373251423758 811.790482243984" stroke-miterlimit="10"/></g><g transform="translate(-158,-86) scale(1,1)"><g><path fill="none" stroke="none"/><text fill="#000000" stroke="none" font-family="Arial" font-size="13px" font-style="normal" font-weight="normal" text-decoration="none" x="720.711669921875" y="870.5">-lotteryCatalog</text></g></g><g transform="translate(-158,-86) scale(1,1)"><path fill="none" stroke="#000000" d="M 1181 384 L 1264 384 L 1264 663 L 1167 663" stroke-miterlimit="10" stroke-dasharray="3"/></g><g transform="translate(-158,-86) scale(1,1)"><path fill="none" stroke="#000000" d="M 1177.162674857624 658.790482243984 L 1167 663 L 1177.162674857624 667.209517756016" stroke-miterlimit="10"/></g><g transform="translate(-158,-86) scale(1,1)"><path fill="none" stroke="#000000" d="M 1181 328 L 1304 328 L 1304 816 L 1190 816" stroke-miterlimit="10" stroke-dasharray="3"/></g><g transform="translate(-158,-86) scale(1,1)"><path fill="none" stroke="#000000" d="M 1200.162674857624 811.790482243984 L 1190 816 L 1200.162674857624 820.209517756016" stroke-miterlimit="10"/></g><g transform="translate(-158,-86) scale(1,1)"><path fill="none" stroke="#000000" d="M 272 441 L 272 628 L 304 628" stroke-miterlimit="10" stroke-dasharray="3"/></g><g transform="translate(-158,-86) scale(1,1)"><path fill="none" stroke="#000000" d="M 293.83732514237585 632.209517756016 L 304 628 L 293.83732514237585 623.790482243984" stroke-miterlimit="10"/></g><g transform="translate(-158,-86) scale(1,1)"><path fill="none" stroke="#000000" d="M 256 441 L 256 692 L 304 692" stroke-miterlimit="10" stroke-dasharray="3"/></g><g transform="translate(-158,-86) scale(1,1)"><path fill="none" stroke="#000000" d="M 293.83732514237585 696.209517756016 L 304 692 L 293.83732514237585 687.790482243984" stroke-miterlimit="10"/></g><g transform="translate(-158,-86) scale(1,1)"><path fill="none" stroke="#000000" d="M 240 441 L 240 740 L 304 740" stroke-miterlimit="10" stroke-dasharray="3"/></g><g transform="translate(-158,-86) scale(1,1)"><path fill="none" stroke="#000000" d="M 293.83732514237585 744.209517756016 L 304 740 L 293.83732514237585 735.790482243984" stroke-miterlimit="10"/></g><g transform="translate(-158,-86) scale(1,1)"><path fill="none" stroke="#000000" d="M 512 441 L 512 804 L 480 804" stroke-miterlimit="10" stroke-dasharray="3"/></g><g transform="translate(-158,-86) scale(1,1)"><path fill="none" stroke="#000000" d="M 490.16267485762415 799.790482243984 L 480 804 L 490.16267485762415 808.209517756016" stroke-miterlimit="10"/></g><g transform="translate(-158,-86) scale(1,1)"><path fill="none" stroke="#000000" d="M 544 441 L 544 864 L 480 864" stroke-miterlimit="10" stroke-dasharray="3"/></g><g transform="translate(-158,-86) scale(1,1)"><path fill="none" stroke="#000000" d="M 490.16267485762415 859.790482243984 L 480 864 L 490.16267485762415 868.209517756016" stroke-miterlimit="10"/></g><g transform="translate(-158,-86) scale(1,1)"><rect fill="#C0C0C0" stroke="none" x="839" y="1017" width="200.97900390625" height="46" opacity="0.2"/></g><g transform="translate(-158,-86) scale(1,1)"><rect fill="#C0C0C0" stroke="none" x="927.27001953125" y="999" width="121.708984375" height="22" opacity="0.2"/></g><g transform="translate(-158,-86) scale(1,1)"><rect fill="#ffffcd" stroke="none" x="832" y="1010" width="200.97900390625" height="46"/></g><g transform="translate(-158,-86) scale(1,1)"><path fill="none" stroke="#000000" d="M 832 1010 L 1032.97900390625 1010 L 1032.97900390625 1056 L 832 1056 L 832 1010 Z Z" stroke-miterlimit="10"/></g><g transform="translate(-158,-86) scale(1,1)"><path fill="#ffffcd" stroke="none" d="M 1006.97900390625 1027 C 1006.97900390625 1022.0294368 1011.00844070625 1018 1015.97900390625 1018 C 1020.94956710625 1018 1024.97900390625 1022.0294368 1024.97900390625 1027 C 1024.97900390625 1031.9705632 1020.94956710625 1036 1015.97900390625 1036 C 1011.00844070625 1036 1006.97900390625 1031.9705632 1006.97900390625 1027 Z"/></g><g transform="translate(-158,-86) scale(1,1)"><path fill="none" stroke="#000000" d="M 1006.97900390625 1027 C 1006.97900390625 1022.0294368 1011.00844070625 1018 1015.97900390625 1018 C 1020.94956710625 1018 1024.97900390625 1022.0294368 1024.97900390625 1027 C 1024.97900390625 1031.9705632 1020.94956710625 1036 1015.97900390625 1036 C 1011.00844070625 1036 1006.97900390625 1031.9705632 1006.97900390625 1027 Z" stroke-miterlimit="10"/></g><g transform="translate(-158,-86) scale(1,1)"><g><path fill="none" stroke="none"/><text fill="#000000" stroke="none" font-family="Arial" font-size="13px" font-style="normal" font-weight="bold" text-decoration="none" x="866.246826171875" y="1029.5">CustomerRepository</text></g></g><g transform="translate(-158,-86) scale(1,1)"><rect fill="#ffffcd" stroke="none" x="920.27001953125" y="992" width="121.708984375" height="22"/></g><g transform="translate(-158,-86) scale(1,1)"><path fill="none" stroke="#000000" d="M 920.27001953125 992 L 1041.97900390625 992 L 1041.97900390625 1014 L 920.27001953125 1014 L 920.27001953125 992 Z Z" stroke-miterlimit="10" stroke-dasharray="3"/></g><g transform="translate(-158,-86) scale(1,1)"><g><path fill="none" stroke="none"/><text fill="#000000" stroke="none" font-family="Arial" font-size="13px" font-style="normal" font-weight="normal" text-decoration="none" x="925.27001953125" y="1009.5">Template Customer</text></g></g><g transform="translate(-158,-86) scale(1,1)"><path fill="none" stroke="#000000" d="M 640 441 L 640 1016 L 832 1016" stroke-miterlimit="10"/></g><g transform="translate(-158,-86) scale(1,1)"><path fill="none" stroke="#000000" d="M 821.8373251423759 1020.209517756016 L 832 1016 L 821.8373251423758 1011.790482243984" stroke-miterlimit="10"/></g><g transform="translate(-158,-86) scale(1,1)"><g><path fill="none" stroke="none"/><text fill="#000000" stroke="none" font-family="Arial" font-size="13px" font-style="normal" font-weight="normal" text-decoration="none" x="678.371337890625" y="1035.5">-customerRepository</text></g></g><g transform="translate(-158,-86) scale(1,1)"><g><path fill="none" stroke="none"/><text fill="#000000" stroke="none" font-family="Arial" font-size="13px" font-style="normal" font-weight="normal" text-decoration="none" x="623.65234375" y="655.5">1</text></g></g><g transform="translate(-158,-86) scale(1,1)"><rect fill="#C0C0C0" stroke="none" x="839" y="943" width="154.666015625" height="44" opacity="0.2"/></g><g transform="translate(-158,-86) scale(1,1)"><rect fill="#d8e1f8" stroke="none" x="832" y="936" width="154.666015625" height="44"/></g><g transform="translate(-158,-86) scale(1,1)"><path fill="none" stroke="#000000" d="M 832 936 L 986.666015625 936 L 986.666015625 980 L 832 980 L 832 936 Z Z" stroke-miterlimit="10"/></g><g transform="translate(-158,-86) scale(1,1)"><g><path fill="none" stroke="none"/><text fill="#000000" stroke="none" font-family="Arial" font-size="13px" font-style="normal" font-weight="bold" text-decoration="none" x="843.218994140625" y="955.5">CustomerManagement</text></g></g><g transform="translate(-158,-86) scale(1,1)"><path fill="none" stroke="#000000" d="M 672 441 L 672 958 L 832 958" stroke-miterlimit="10"/></g><g transform="translate(-158,-86) scale(1,1)"><path fill="none" stroke="#000000" d="M 821.8373251423759 962.209517756016 L 832 958 L 821.8373251423758 953.790482243984" stroke-miterlimit="10"/></g><g transform="translate(-158,-86) scale(1,1)"><g><path fill="none" stroke="none"/><text fill="#000000" stroke="none" font-family="Arial" font-size="13px" font-style="normal" font-weight="normal" text-decoration="none" x="664.30810546875" y="980.5">-customerManagement</text></g></g><g transform="translate(-158,-86) scale(1,1)"><rect fill="#C0C0C0" stroke="none" x="311" y="911" width="175" height="40" opacity="0.2"/></g><g transform="translate(-158,-86) scale(1,1)"><rect fill="#d8e1f8" stroke="none" x="304" y="904" width="175" height="40"/></g><g transform="translate(-158,-86) scale(1,1)"><path fill="none" stroke="#000000" d="M 304 904 L 479 904 L 479 944 L 304 944 L 304 904 Z Z" stroke-miterlimit="10"/></g><g transform="translate(-158,-86) scale(1,1)"><g><path fill="none" stroke="none"/><text fill="#000000" stroke="none" font-family="Arial" font-size="13px" font-style="normal" font-weight="bold" text-decoration="none" x="377.408203125" y="923.5">Inset</text></g></g><g transform="translate(-158,-86) scale(1,1)"><path fill="none" stroke="#000000" d="M 576 441 L 576 920 L 479 920" stroke-miterlimit="10" stroke-dasharray="3"/></g><g transform="translate(-158,-86) scale(1,1)"><path fill="none" stroke="#000000" d="M 489.16267485762415 915.790482243984 L 479 920 L 489.16267485762415 924.209517756016" stroke-miterlimit="10"/></g><g transform="translate(-158,-86) scale(1,1)"><path fill="none" stroke="#000000" d="M 592 441 L 592 976 L 479 976" stroke-miterlimit="10" stroke-dasharray="3"/></g><g transform="translate(-158,-86) scale(1,1)"><path fill="none" stroke="#000000" d="M 489.16267485762415 971.790482243984 L 479 976 L 489.16267485762415 980.209517756016" stroke-miterlimit="10"/></g><g transform="translate(-158,-86) scale(1,1)"><rect fill="#C0C0C0" stroke="none" x="311" y="967" width="175" height="32" opacity="0.2"/></g><g transform="translate(-158,-86) scale(1,1)"><rect fill="#d8e1f8" stroke="none" x="304" y="960" width="175" height="32"/></g><g transform="translate(-158,-86) scale(1,1)"><path fill="none" stroke="#000000" d="M 304 960 L 479 960 L 479 992 L 304 992 L 304 960 Z Z" stroke-miterlimit="10"/></g><g transform="translate(-158,-86) scale(1,1)"><g><path fill="none" stroke="none"/><text fill="#000000" stroke="none" font-family="Arial" font-size="13px" font-style="normal" font-weight="bold" text-decoration="none" x="373.075927734375" y="979.5">Result</text></g></g></g></svg>