<svg version="1.1" xmlns="http://www.w3.org/2000/svg" xmlns:xlink="http://www.w3.org/1999/xlink" width="1091" height="612"><defs/><g><g transform="translate(10,-102) scale(1,1)"><rect fill="#C0C0C0" stroke="none" x="7" y="119" width="326.4" height="15" opacity="0.2"/></g><g transform="translate(10,-102) scale(1,1)"><rect fill="#C0C0C0" stroke="none" x="7" y="133" width="816" height="298" opacity="0.2"/></g><g transform="translate(10,-102) scale(1,1)"><rect fill="#fff2e4" stroke="none" x="0" y="127" width="816" height="297"/></g><g transform="translate(10,-102) scale(1,1)"><path fill="none" stroke="#000000" d="M 0 127 L 816 127 L 816 424 L 0 424 L 0 127 Z Z" stroke-miterlimit="10"/></g><g transform="translate(10,-102) scale(1,1)"><rect fill="#fff2e4" stroke="none" x="0" y="112" width="326.4" height="15"/></g><g transform="translate(10,-102) scale(1,1)"><path fill="none" stroke="#000000" d="M 0 112 L 326.4 112 L 326.4 127 L 0 127 L 0 112 Z Z" stroke-miterlimit="10"/></g><g transform="translate(10,-102) scale(1,1)"><rect fill="#fff2e4" stroke="none" x="0" y="126" width="816" height="298"/></g><g transform="translate(10,-102) scale(1,1)"><path fill="none" stroke="#000000" d="M 0 126 L 816 126 L 816 424 L 0 424 L 0 126 Z Z" stroke-miterlimit="10"/></g><g transform="translate(10,-102) scale(1,1)"><g><path fill="none" stroke="none"/><text fill="#000000" stroke="none" font-family="Arial" font-size="13px" font-style="normal" font-weight="bold" text-decoration="none" x="373.802001953125" y="146.5">lottery.order</text></g></g><g transform="translate(10,-102) scale(1,1)"><rect fill="#C0C0C0" stroke="none" x="31" y="495" width="387.2" height="15" opacity="0.2"/></g><g transform="translate(10,-102) scale(1,1)"><rect fill="#C0C0C0" stroke="none" x="31" y="509" width="968" height="202" opacity="0.2"/></g><g transform="translate(10,-102) scale(1,1)"><rect fill="#fff2e4" stroke="none" x="24" y="503" width="968" height="201"/></g><g transform="translate(10,-102) scale(1,1)"><path fill="none" stroke="#000000" d="M 24 503 L 992 503 L 992 704 L 24 704 L 24 503 Z Z" stroke-miterlimit="10"/></g><g transform="translate(10,-102) scale(1,1)"><rect fill="#fff2e4" stroke="none" x="24" y="488" width="387.2" height="15"/></g><g transform="translate(10,-102) scale(1,1)"><path fill="none" stroke="#000000" d="M 24 488 L 411.2 488 L 411.2 503 L 24 503 L 24 488 Z Z" stroke-miterlimit="10"/></g><g transform="translate(10,-102) scale(1,1)"><rect fill="#fff2e4" stroke="none" x="24" y="502" width="968" height="202"/></g><g transform="translate(10,-102) scale(1,1)"><path fill="none" stroke="#000000" d="M 24 502 L 992 502 L 992 704 L 24 704 L 24 502 Z Z" stroke-miterlimit="10"/></g><g transform="translate(10,-102) scale(1,1)"><g><path fill="none" stroke="none"/><text fill="#000000" stroke="none" font-family="Arial" font-size="13px" font-style="normal" font-weight="bold" text-decoration="none" x="477.6455078125" y="522.5">Salespoint</text></g></g><g transform="translate(10,-102) scale(1,1)"><rect fill="#C0C0C0" stroke="none" x="207" y="623" width="96" height="40" opacity="0.2"/></g><g transform="translate(10,-102) scale(1,1)"><rect fill="#d8e1f8" stroke="none" x="200" y="616" width="96" height="40"/></g><g transform="translate(10,-102) scale(1,1)"><path fill="none" stroke="#000000" d="M 200 616 L 296 616 L 296 656 L 200 656 L 200 616 Z Z" stroke-miterlimit="10"/></g><g transform="translate(10,-102) scale(1,1)"><g><path fill="none" stroke="none"/><text fill="#000000" stroke="none" font-family="Arial" font-size="13px" font-style="normal" font-weight="bold" text-decoration="none" x="211.869140625" y="635.5">userAccount</text></g></g><g transform="translate(10,-102) scale(1,1)"><path fill="none" stroke="#000000" d="M 380 400 L 348 551" stroke-miterlimit="10" stroke-dasharray="3"/></g><g transform="translate(10,-102) scale(1,1)"><path fill="none" stroke="#000000" d="M 345.9888269134617 540.1854180471003 L 348 551 L 354.2249501069619 541.9308216377758" stroke-miterlimit="10"/></g><g transform="translate(10,-102) scale(1,1)"><rect fill="#C0C0C0" stroke="none" x="303" y="559" width="95" height="40" opacity="0.2"/></g><g transform="translate(10,-102) scale(1,1)"><rect fill="#d8e1f8" stroke="none" x="296" y="552" width="95" height="40"/></g><g transform="translate(10,-102) scale(1,1)"><path fill="none" stroke="#000000" d="M 296 552 L 391 552 L 391 592 L 296 592 L 296 552 Z Z" stroke-miterlimit="10"/></g><g transform="translate(10,-102) scale(1,1)"><g><path fill="none" stroke="none"/><text fill="#000000" stroke="none" font-family="Arial" font-size="13px" font-style="normal" font-weight="bold" text-decoration="none" x="333.74365234375" y="571.5">Bet</text></g></g><g transform="translate(10,-102) scale(1,1)"><rect fill="#C0C0C0" stroke="none" x="863" y="159" width="86" height="15" opacity="0.2"/></g><g transform="translate(10,-102) scale(1,1)"><rect fill="#C0C0C0" stroke="none" x="863" y="173" width="215" height="145" opacity="0.2"/></g><g transform="translate(10,-102) scale(1,1)"><rect fill="#fff2e4" stroke="none" x="856" y="167" width="215" height="144"/></g><g transform="translate(10,-102) scale(1,1)"><path fill="none" stroke="#000000" d="M 856 167 L 1071 167 L 1071 311 L 856 311 L 856 167 Z Z" stroke-miterlimit="10"/></g><g transform="translate(10,-102) scale(1,1)"><rect fill="#fff2e4" stroke="none" x="856" y="152" width="86" height="15"/></g><g transform="translate(10,-102) scale(1,1)"><path fill="none" stroke="#000000" d="M 856 152 L 942 152 L 942 167 L 856 167 L 856 152 Z Z" stroke-miterlimit="10"/></g><g transform="translate(10,-102) scale(1,1)"><rect fill="#fff2e4" stroke="none" x="856" y="166" width="215" height="145"/></g><g transform="translate(10,-102) scale(1,1)"><path fill="none" stroke="#000000" d="M 856 166 L 1071 166 L 1071 311 L 856 311 L 856 166 Z Z" stroke-miterlimit="10"/></g><g transform="translate(10,-102) scale(1,1)"><g><path fill="none" stroke="none"/><text fill="#000000" stroke="none" font-family="Arial" font-size="13px" font-style="normal" font-weight="bold" text-decoration="none" x="944.7109375" y="186.5">Spring</text></g></g><g transform="translate(10,-102) scale(1,1)"><rect fill="#C0C0C0" stroke="none" x="863" y="351" width="86" height="15" opacity="0.2"/></g><g transform="translate(10,-102) scale(1,1)"><rect fill="#C0C0C0" stroke="none" x="863" y="365" width="215" height="113" opacity="0.2"/></g><g transform="translate(10,-102) scale(1,1)"><rect fill="#fff2e4" stroke="none" x="856" y="359" width="215" height="112"/></g><g transform="translate(10,-102) scale(1,1)"><path fill="none" stroke="#000000" d="M 856 359 L 1071 359 L 1071 471 L 856 471 L 856 359 Z Z" stroke-miterlimit="10"/></g><g transform="translate(10,-102) scale(1,1)"><rect fill="#fff2e4" stroke="none" x="856" y="344" width="86" height="15"/></g><g transform="translate(10,-102) scale(1,1)"><path fill="none" stroke="#000000" d="M 856 344 L 942 344 L 942 359 L 856 359 L 856 344 Z Z" stroke-miterlimit="10"/></g><g transform="translate(10,-102) scale(1,1)"><rect fill="#fff2e4" stroke="none" x="856" y="358" width="215" height="113"/></g><g transform="translate(10,-102) scale(1,1)"><path fill="none" stroke="#000000" d="M 856 358 L 1071 358 L 1071 471 L 856 471 L 856 358 Z Z" stroke-miterlimit="10"/></g><g transform="translate(10,-102) scale(1,1)"><g><path fill="none" stroke="none"/><text fill="#000000" stroke="none" font-family="Arial" font-size="13px" font-style="normal" font-weight="bold" text-decoration="none" x="922.072021484375" y="378.5">lottery.Catalog</text></g></g><g transform="translate(10,-102) scale(1,1)"><path fill="none" stroke="#000000" d="M 805 394 L 871 412" stroke-miterlimit="10" stroke-dasharray="3"/></g><g transform="translate(10,-102) scale(1,1)"><path fill="none" stroke="#000000" d="M 860.0878215787632 413.3872137914153 L 871 412 L 862.3030163619607 405.2648329196912" stroke-miterlimit="10"/></g><g transform="translate(10,-102) scale(1,1)"><path fill="none" stroke="#000000" d="M 479 400 L 614 615" stroke-miterlimit="10" stroke-dasharray="3"/></g><g transform="translate(10,-102) scale(1,1)"><path fill="none" stroke="#000000" d="M 605.030814923925 608.6318197991015 L 614 615 L 612.1608118148635 604.154845007117" stroke-miterlimit="10"/></g><g transform="translate(10,-102) scale(1,1)"><rect fill="#C0C0C0" stroke="none" x="15" y="175" width="796.45849609375" height="231" opacity="0.2"/></g><g transform="translate(10,-102) scale(1,1)"><rect fill="#d8e1f8" stroke="none" x="8" y="168" width="796.45849609375" height="231"/></g><g transform="translate(10,-102) scale(1,1)"><path fill="none" stroke="#000000" d="M 8 168 L 804.45849609375 168 L 804.45849609375 399 L 8 399 L 8 168 Z Z" stroke-miterlimit="10"/></g><g transform="translate(10,-102) scale(1,1)"><path fill="none" stroke="#000000" d="M 8 193 L 804.45849609375 193" stroke-miterlimit="10"/></g><g transform="translate(10,-102) scale(1,1)"><g><path fill="none" stroke="none"/><text fill="#000000" stroke="none" font-family="Arial" font-size="13px" font-style="normal" font-weight="bold" text-decoration="none" x="361.43701171875" y="187.5">OrderController</text></g></g><g transform="translate(10,-102) scale(1,1)"><g><path fill="none" stroke="none"/><text fill="#000000" stroke="none" font-family="Arial" font-size="13px" font-style="normal" font-weight="normal" text-decoration="none" x="13" y="210.5">+OrderController(customerManager: CustomerManager)</text></g></g><g transform="translate(10,-102) scale(1,1)"><g><path fill="none" stroke="none"/><text fill="#000000" stroke="none" font-family="Arial" font-size="13px" font-style="normal" font-weight="normal" text-decoration="none" x="13" y="225.5">+viewBets(model: Model, userAccount: UserAccount): String</text></g></g><g transform="translate(10,-102) scale(1,1)"><g><path fill="none" stroke="none"/><text fill="#000000" stroke="none" font-family="Arial" font-size="13px" font-style="normal" font-weight="normal" text-decoration="none" x="13" y="240.5">+raiseBet(model: Model, bet: Bet, money: Money, date: LocalTime): String</text></g></g><g transform="translate(10,-102) scale(1,1)"><g><path fill="none" stroke="none"/><text fill="#000000" stroke="none" font-family="Arial" font-size="13px" font-style="normal" font-weight="normal" text-decoration="none" x="13" y="255.5">+removeNumberBet(model: Model, customer: Customer, numberBetRemove: Bet, date: LocalTime): String</text></g></g><g transform="translate(10,-102) scale(1,1)"><g><path fill="none" stroke="none"/><text fill="#000000" stroke="none" font-family="Arial" font-size="13px" font-style="normal" font-weight="normal" text-decoration="none" x="13" y="270.5">+removeFootballBet(model: Model, customer: Customer, footballBetRemove: Bet, date: LocalTime): String</text></g></g><g transform="translate(10,-102) scale(1,1)"><g><path fill="none" stroke="none"/><text fill="#000000" stroke="none" font-family="Arial" font-size="13px" font-style="normal" font-weight="normal" text-decoration="none" x="13" y="285.5">+income(model: Model, customer: userAccount, footballBet: FootballBet, numberBet: NumberBet, date: LocalTime, match: Match): String</text></g></g><g transform="translate(10,-102) scale(1,1)"><path fill="none" stroke="#000000" d="M 438 400 L 478 551" stroke-miterlimit="10" stroke-dasharray="3"/></g><g transform="translate(10,-102) scale(1,1)"><path fill="none" stroke="#000000" d="M 471.32849227649456 542.2540875435889 L 478 551 L 479.4668256535631 540.0982376423786" stroke-miterlimit="10"/></g><g transform="translate(10,-102) scale(1,1)"><rect fill="#C0C0C0" stroke="none" x="383" y="623" width="96" height="40" opacity="0.2"/></g><g transform="translate(10,-102) scale(1,1)"><rect fill="#d8e1f8" stroke="none" x="376" y="616" width="96" height="40"/></g><g transform="translate(10,-102) scale(1,1)"><path fill="none" stroke="#000000" d="M 376 616 L 472 616 L 472 656 L 376 656 L 376 616 Z Z" stroke-miterlimit="10"/></g><g transform="translate(10,-102) scale(1,1)"><g><path fill="none" stroke="none"/><text fill="#000000" stroke="none" font-family="Arial" font-size="13px" font-style="normal" font-weight="bold" text-decoration="none" x="411.720458984375" y="635.5">Cart</text></g></g><g transform="translate(10,-102) scale(1,1)"><rect fill="#C0C0C0" stroke="none" x="447" y="559" width="88" height="40" opacity="0.2"/></g><g transform="translate(10,-102) scale(1,1)"><rect fill="#d8e1f8" stroke="none" x="440" y="552" width="88" height="40"/></g><g transform="translate(10,-102) scale(1,1)"><path fill="none" stroke="#000000" d="M 440 552 L 528 552 L 528 592 L 440 592 L 440 552 Z Z" stroke-miterlimit="10"/></g><g transform="translate(10,-102) scale(1,1)"><g><path fill="none" stroke="none"/><text fill="#000000" stroke="none" font-family="Arial" font-size="13px" font-style="normal" font-weight="bold" text-decoration="none" x="464.490478515625" y="571.5">Money</text></g></g><g transform="translate(10,-102) scale(1,1)"><rect fill="#C0C0C0" stroke="none" x="583" y="623" width="103" height="40" opacity="0.2"/></g><g transform="translate(10,-102) scale(1,1)"><rect fill="#d8e1f8" stroke="none" x="576" y="616" width="103" height="40"/></g><g transform="translate(10,-102) scale(1,1)"><path fill="none" stroke="#000000" d="M 576 616 L 679 616 L 679 656 L 576 656 L 576 616 Z Z" stroke-miterlimit="10"/></g><g transform="translate(10,-102) scale(1,1)"><g><path fill="none" stroke="none"/><text fill="#000000" stroke="none" font-family="Arial" font-size="13px" font-style="normal" font-weight="bold" text-decoration="none" x="597.758056640625" y="635.5">LocalTime</text></g></g><g transform="translate(10,-102) scale(1,1)"><path fill="none" stroke="#000000" d="M 506 400 L 634 551" stroke-miterlimit="10" stroke-dasharray="3"/></g><g transform="translate(10,-102) scale(1,1)"><path fill="none" stroke="#000000" d="M 624.2175304003459 545.9697625769907 L 634 551 L 630.6396644021215 540.5258344165451" stroke-miterlimit="10"/></g><g transform="translate(10,-102) scale(1,1)"><path fill="none" stroke="#000000" d="M 599 400 L 848 551" stroke-miterlimit="10" stroke-dasharray="3"/></g><g transform="translate(10,-102) scale(1,1)"><path fill="none" stroke="#000000" d="M 837.1275477536591 549.3297359038055 L 848 551 L 841.493070357277 542.1309602196939" stroke-miterlimit="10"/></g><g transform="translate(10,-102) scale(1,1)"><path fill="none" stroke="#000000" d="M 412 400 L 423 615" stroke-miterlimit="10" stroke-dasharray="3"/></g><g transform="translate(10,-102) scale(1,1)"><path fill="none" stroke="#000000" d="M 418.27670931352714 605.065689500973 L 423 615 L 426.6847474463545 604.6355108058051" stroke-miterlimit="10"/></g><g transform="translate(10,-102) scale(1,1)"><rect fill="#C0C0C0" stroke="none" x="615" y="559" width="88" height="40" opacity="0.2"/></g><g transform="translate(10,-102) scale(1,1)"><rect fill="#d8e1f8" stroke="none" x="608" y="552" width="88" height="40"/></g><g transform="translate(10,-102) scale(1,1)"><path fill="none" stroke="#000000" d="M 608 552 L 696 552 L 696 592 L 608 592 L 608 552 Z Z" stroke-miterlimit="10"/></g><g transform="translate(10,-102) scale(1,1)"><g><path fill="none" stroke="none"/><text fill="#000000" stroke="none" font-family="Arial" font-size="13px" font-style="normal" font-weight="bold" text-decoration="none" x="619.839599609375" y="571.5">Footballbet</text></g></g><g transform="translate(10,-102) scale(1,1)"><rect fill="#C0C0C0" stroke="none" x="847" y="559" width="87" height="40" opacity="0.2"/></g><g transform="translate(10,-102) scale(1,1)"><rect fill="#d8e1f8" stroke="none" x="840" y="552" width="87" height="40"/></g><g transform="translate(10,-102) scale(1,1)"><path fill="none" stroke="#000000" d="M 840 552 L 927 552 L 927 592 L 840 592 L 840 552 Z Z" stroke-miterlimit="10"/></g><g transform="translate(10,-102) scale(1,1)"><g><path fill="none" stroke="none"/><text fill="#000000" stroke="none" font-family="Arial" font-size="13px" font-style="normal" font-weight="bold" text-decoration="none" x="851.345947265625" y="571.5">Numberbet</text></g></g><g transform="translate(10,-102) scale(1,1)"><rect fill="#C0C0C0" stroke="none" x="39" y="577" width="182" height="33" opacity="0.2"/></g><g transform="translate(10,-102) scale(1,1)"><rect fill="#C0C0C0" stroke="none" x="108.291015625" y="559" width="121.708984375" height="22" opacity="0.2"/></g><g transform="translate(10,-102) scale(1,1)"><rect fill="#ffffcd" stroke="none" x="32" y="570" width="182" height="33"/></g><g transform="translate(10,-102) scale(1,1)"><path fill="none" stroke="#000000" d="M 32 570 L 214 570 L 214 603 L 32 603 L 32 570 Z Z" stroke-miterlimit="10"/></g><g transform="translate(10,-102) scale(1,1)"><path fill="#ffffcd" stroke="none" d="M 188 587 C 188 582.0294368 192.0294368 578 197 578 C 201.9705632 578 206 582.0294368 206 587 C 206 591.9705632 201.9705632 596 197 596 C 192.0294368 596 188 591.9705632 188 587 Z"/></g><g transform="translate(10,-102) scale(1,1)"><path fill="none" stroke="#000000" d="M 188 587 C 188 582.0294368 192.0294368 578 197 578 C 201.9705632 578 206 582.0294368 206 587 C 206 591.9705632 201.9705632 596 197 596 C 192.0294368 596 188 591.9705632 188 587 Z" stroke-miterlimit="10"/></g><g transform="translate(10,-102) scale(1,1)"><g><path fill="none" stroke="none"/><text fill="#000000" stroke="none" font-family="Arial" font-size="13px" font-style="normal" font-weight="bold" text-decoration="none" x="63.615966796875" y="589.5">customerManager</text></g></g><g transform="translate(10,-102) scale(1,1)"><rect fill="#ffffcd" stroke="none" x="101.291015625" y="552" width="121.708984375" height="22"/></g><g transform="translate(10,-102) scale(1,1)"><path fill="none" stroke="#000000" d="M 101.291015625 552 L 223 552 L 223 574 L 101.291015625 574 L 101.291015625 552 Z Z" stroke-miterlimit="10" stroke-dasharray="3"/></g><g transform="translate(10,-102) scale(1,1)"><g><path fill="none" stroke="none"/><text fill="#000000" stroke="none" font-family="Arial" font-size="13px" font-style="normal" font-weight="normal" text-decoration="none" x="106.291015625" y="569.5">Template Customer</text></g></g><g transform="translate(10,-102) scale(1,1)"><path fill="none" stroke="#000000" d="M 120 399 L 120 552" stroke-miterlimit="10"/></g><g transform="translate(10,-102) scale(1,1)"><path fill="none" stroke="#000000" d="M 115.79048224398402 541.8373251423759 L 120 552 L 124.20951775601598 541.8373251423759" stroke-miterlimit="10"/></g><g transform="translate(10,-102) scale(1,1)"><g><path fill="none" stroke="none"/><text fill="#000000" stroke="none" font-family="Arial" font-size="13px" font-style="normal" font-weight="normal" text-decoration="none" x="127.13134765625" y="544.5">-customerManager</text></g></g><g transform="translate(10,-102) scale(1,1)"><g><path fill="none" stroke="none"/><text fill="#000000" stroke="none" font-family="Arial" font-size="13px" font-style="normal" font-weight="normal" text-decoration="none" x="95.5" y="548.5">1</text></g></g><g transform="translate(10,-102) scale(1,1)"><path fill="none" stroke="#000000" d="M 354 400 L 257 615" stroke-miterlimit="10" stroke-dasharray="3"/></g><g transform="translate(10,-102) scale(1,1)"><path fill="none" stroke="#000000" d="M 257.34228015548445 604.0053265489528 L 257 615 L 265.01643677317577 607.4676204648415" stroke-miterlimit="10"/></g><g transform="translate(10,-102) scale(1,1)"><path fill="none" stroke="#000000" d="M 534 400 L 769 615" stroke-miterlimit="10" stroke-dasharray="3"/></g><g transform="translate(10,-102) scale(1,1)"><path fill="none" stroke="#000000" d="M 758.660442335192 611.2458626428818 L 769 615 L 764.343404643469 605.0342526780208" stroke-miterlimit="10"/></g><g transform="translate(10,-102) scale(1,1)"><rect fill="#C0C0C0" stroke="none" x="879" y="239" width="88" height="48" opacity="0.2"/></g><g transform="translate(10,-102) scale(1,1)"><rect fill="#ffffcd" stroke="none" x="872" y="232" width="88" height="48"/></g><g transform="translate(10,-102) scale(1,1)"><path fill="none" stroke="#000000" d="M 872 232 L 960 232 L 960 280 L 872 280 L 872 232 Z Z" stroke-miterlimit="10"/></g><g transform="translate(10,-102) scale(1,1)"><path fill="#ffffcd" stroke="none" d="M 934 249 C 934 244.0294368 938.0294368 240 943 240 C 947.9705632 240 952 244.0294368 952 249 C 952 253.9705632 947.9705632 258 943 258 C 938.0294368 258 934 253.9705632 934 249 Z"/></g><g transform="translate(10,-102) scale(1,1)"><path fill="none" stroke="#000000" d="M 934 249 C 934 244.0294368 938.0294368 240 943 240 C 947.9705632 240 952 244.0294368 952 249 C 952 253.9705632 947.9705632 258 943 258 C 938.0294368 258 934 253.9705632 934 249 Z" stroke-miterlimit="10"/></g><g transform="translate(10,-102) scale(1,1)"><g><path fill="none" stroke="none"/><text fill="#000000" stroke="none" font-family="Arial" font-size="13px" font-style="normal" font-weight="bold" text-decoration="none" x="886.29638671875" y="251.5">Model</text></g></g><g transform="translate(10,-102) scale(1,1)"><rect fill="#C0C0C0" stroke="none" x="879" y="407" width="71" height="44" opacity="0.2"/></g><g transform="translate(10,-102) scale(1,1)"><rect fill="#d8e1f8" stroke="none" x="872" y="400" width="71" height="44"/></g><g transform="translate(10,-102) scale(1,1)"><path fill="none" stroke="#000000" d="M 872 400 L 943 400 L 943 444 L 872 444 L 872 400 Z Z" stroke-miterlimit="10"/></g><g transform="translate(10,-102) scale(1,1)"><g><path fill="none" stroke="none"/><text fill="#000000" stroke="none" font-family="Arial" font-size="13px" font-style="normal" font-weight="bold" text-decoration="none" x="894.858642578125" y="419.5">Item</text></g></g><g transform="translate(10,-102) scale(1,1)"><rect fill="#C0C0C0" stroke="none" x="759" y="623" width="79" height="39" opacity="0.2"/></g><g transform="translate(10,-102) scale(1,1)"><rect fill="#d8e1f8" stroke="none" x="752" y="616" width="79" height="39"/></g><g transform="translate(10,-102) scale(1,1)"><path fill="none" stroke="#000000" d="M 752 616 L 831 616 L 831 655 L 752 655 L 752 616 Z Z" stroke-miterlimit="10"/></g><g transform="translate(10,-102) scale(1,1)"><g><path fill="none" stroke="none"/><text fill="#000000" stroke="none" font-family="Arial" font-size="13px" font-style="normal" font-weight="bold" text-decoration="none" x="773.799560546875" y="635.5">Match</text></g></g><g transform="translate(10,-102) scale(1,1)"><path fill="none" stroke="#000000" d="M 805 262 L 871 258" stroke-miterlimit="10" stroke-dasharray="3"/></g><g transform="translate(10,-102) scale(1,1)"><path fill="none" stroke="#000000" d="M 861.1105931465268 262.81659963942155 L 871 258 L 860.6012830847006 254.41298361929196" stroke-miterlimit="10"/></g></g></svg>