<svg version="1.1" xmlns="http://www.w3.org/2000/svg" xmlns:xlink="http://www.w3.org/1999/xlink" width="1077" height="1052"><defs/><g><g transform="translate(-158,-86) scale(1,1)"><rect fill="#C0C0C0" stroke="none" x="175" y="103" width="396.79999999999995" height="15" opacity="0.2"/></g><g transform="translate(-158,-86) scale(1,1)"><rect fill="#C0C0C0" stroke="none" x="175" y="117" width="992" height="370" opacity="0.2"/></g><g transform="translate(-158,-86) scale(1,1)"><rect fill="#fff2e4" stroke="none" x="168" y="111" width="992" height="369"/></g><g transform="translate(-158,-86) scale(1,1)"><path fill="none" stroke="#000000" d="M 168 111 L 1160 111 L 1160 480 L 168 480 L 168 111 Z Z" stroke-miterlimit="10"/></g><g transform="translate(-158,-86) scale(1,1)"><rect fill="#fff2e4" stroke="none" x="168" y="96" width="396.79999999999995" height="15"/></g><g transform="translate(-158,-86) scale(1,1)"><path fill="none" stroke="#000000" d="M 168 96 L 564.8 96 L 564.8 111 L 168 111 L 168 96 Z Z" stroke-miterlimit="10"/></g><g transform="translate(-158,-86) scale(1,1)"><rect fill="#fff2e4" stroke="none" x="168" y="110" width="992" height="370"/></g><g transform="translate(-158,-86) scale(1,1)"><path fill="none" stroke="#000000" d="M 168 110 L 1160 110 L 1160 480 L 168 480 L 168 110 Z Z" stroke-miterlimit="10"/></g><g transform="translate(-158,-86) scale(1,1)"><g><path fill="none" stroke="none"/><text fill="#000000" stroke="none" font-family="Arial" font-size="13px" font-style="normal" font-weight="bold" text-decoration="none" x="623.1845703125" y="130.5">kickstart.order</text></g></g><g transform="translate(-158,-86) scale(1,1)"><rect fill="#C0C0C0" stroke="none" x="183" y="527" width="144" height="15" opacity="0.2"/></g><g transform="translate(-158,-86) scale(1,1)"><rect fill="#C0C0C0" stroke="none" x="183" y="541" width="360" height="386" opacity="0.2"/></g><g transform="translate(-158,-86) scale(1,1)"><rect fill="#fff2e4" stroke="none" x="176" y="535" width="360" height="385"/></g><g transform="translate(-158,-86) scale(1,1)"><path fill="none" stroke="#000000" d="M 176 535 L 536 535 L 536 920 L 176 920 L 176 535 Z Z" stroke-miterlimit="10"/></g><g transform="translate(-158,-86) scale(1,1)"><rect fill="#fff2e4" stroke="none" x="176" y="520" width="144" height="15"/></g><g transform="translate(-158,-86) scale(1,1)"><path fill="none" stroke="#000000" d="M 176 520 L 320 520 L 320 535 L 176 535 L 176 520 Z Z" stroke-miterlimit="10"/></g><g transform="translate(-158,-86) scale(1,1)"><rect fill="#fff2e4" stroke="none" x="176" y="534" width="360" height="386"/></g><g transform="translate(-158,-86) scale(1,1)"><path fill="none" stroke="#000000" d="M 176 534 L 536 534 L 536 920 L 176 920 L 176 534 Z Z" stroke-miterlimit="10"/></g><g transform="translate(-158,-86) scale(1,1)"><g><path fill="none" stroke="none"/><text fill="#000000" stroke="none" font-family="Arial" font-size="13px" font-style="normal" font-weight="bold" text-decoration="none" x="325.6455078125" y="554.5">Salespoint</text></g></g><g transform="translate(-158,-86) scale(1,1)"><rect fill="#C0C0C0" stroke="none" x="295" y="599" width="176" height="40" opacity="0.2"/></g><g transform="translate(-158,-86) scale(1,1)"><rect fill="#d8e1f8" stroke="none" x="288" y="592" width="176" height="40"/></g><g transform="translate(-158,-86) scale(1,1)"><path fill="none" stroke="#000000" d="M 288 592 L 464 592 L 464 632 L 288 632 L 288 592 Z Z" stroke-miterlimit="10"/></g><g transform="translate(-158,-86) scale(1,1)"><g><path fill="none" stroke="none"/><text fill="#000000" stroke="none" font-family="Arial" font-size="13px" font-style="normal" font-weight="bold" text-decoration="none" x="339.869140625" y="611.5">userAccount</text></g></g><g transform="translate(-158,-86) scale(1,1)"><rect fill="#C0C0C0" stroke="none" x="295" y="727" width="176" height="40" opacity="0.2"/></g><g transform="translate(-158,-86) scale(1,1)"><rect fill="#d8e1f8" stroke="none" x="288" y="720" width="176" height="40"/></g><g transform="translate(-158,-86) scale(1,1)"><path fill="none" stroke="#000000" d="M 288 720 L 464 720 L 464 760 L 288 760 L 288 720 Z Z" stroke-miterlimit="10"/></g><g transform="translate(-158,-86) scale(1,1)"><g><path fill="none" stroke="none"/><text fill="#000000" stroke="none" font-family="Arial" font-size="13px" font-style="normal" font-weight="bold" text-decoration="none" x="366.24365234375" y="739.5">Bet</text></g></g><g transform="translate(-158,-86) scale(1,1)"><rect fill="#C0C0C0" stroke="none" x="743" y="591" width="73.60000000000002" height="15" opacity="0.2"/></g><g transform="translate(-158,-86) scale(1,1)"><rect fill="#C0C0C0" stroke="none" x="743" y="605" width="184" height="114" opacity="0.2"/></g><g transform="translate(-158,-86) scale(1,1)"><rect fill="#fff2e4" stroke="none" x="736" y="599" width="184" height="113"/></g><g transform="translate(-158,-86) scale(1,1)"><path fill="none" stroke="#000000" d="M 736 599 L 920 599 L 920 712 L 736 712 L 736 599 Z Z" stroke-miterlimit="10"/></g><g transform="translate(-158,-86) scale(1,1)"><rect fill="#fff2e4" stroke="none" x="736" y="584" width="73.60000000000002" height="15"/></g><g transform="translate(-158,-86) scale(1,1)"><path fill="none" stroke="#000000" d="M 736 584 L 809.6 584 L 809.6 599 L 736 599 L 736 584 Z Z" stroke-miterlimit="10"/></g><g transform="translate(-158,-86) scale(1,1)"><rect fill="#fff2e4" stroke="none" x="736" y="598" width="184" height="114"/></g><g transform="translate(-158,-86) scale(1,1)"><path fill="none" stroke="#000000" d="M 736 598 L 920 598 L 920 712 L 736 712 L 736 598 Z Z" stroke-miterlimit="10"/></g><g transform="translate(-158,-86) scale(1,1)"><g><path fill="none" stroke="none"/><text fill="#000000" stroke="none" font-family="Arial" font-size="13px" font-style="normal" font-weight="bold" text-decoration="none" x="809.2109375" y="618.5">Spring</text></g></g><g transform="translate(-158,-86) scale(1,1)"><rect fill="#C0C0C0" stroke="none" x="743" y="743" width="73.60000000000002" height="15" opacity="0.2"/></g><g transform="translate(-158,-86) scale(1,1)"><rect fill="#C0C0C0" stroke="none" x="743" y="757" width="184" height="98" opacity="0.2"/></g><g transform="translate(-158,-86) scale(1,1)"><rect fill="#fff2e4" stroke="none" x="736" y="751" width="184" height="97"/></g><g transform="translate(-158,-86) scale(1,1)"><path fill="none" stroke="#000000" d="M 736 751 L 920 751 L 920 848 L 736 848 L 736 751 Z Z" stroke-miterlimit="10"/></g><g transform="translate(-158,-86) scale(1,1)"><rect fill="#fff2e4" stroke="none" x="736" y="736" width="73.60000000000002" height="15"/></g><g transform="translate(-158,-86) scale(1,1)"><path fill="none" stroke="#000000" d="M 736 736 L 809.6 736 L 809.6 751 L 736 751 L 736 736 Z Z" stroke-miterlimit="10"/></g><g transform="translate(-158,-86) scale(1,1)"><rect fill="#fff2e4" stroke="none" x="736" y="750" width="184" height="98"/></g><g transform="translate(-158,-86) scale(1,1)"><path fill="none" stroke="#000000" d="M 736 750 L 920 750 L 920 848 L 736 848 L 736 750 Z Z" stroke-miterlimit="10"/></g><g transform="translate(-158,-86) scale(1,1)"><g><path fill="none" stroke="none"/><text fill="#000000" stroke="none" font-family="Arial" font-size="13px" font-style="normal" font-weight="bold" text-decoration="none" x="779.95458984375" y="770.5">kickstart.Catalog</text></g></g><g transform="translate(-158,-86) scale(1,1)"><rect fill="#C0C0C0" stroke="none" x="199" y="175" width="938.50927734375" height="238" opacity="0.2"/></g><g transform="translate(-158,-86) scale(1,1)"><rect fill="#d8e1f8" stroke="none" x="192" y="168" width="938.50927734375" height="238"/></g><g transform="translate(-158,-86) scale(1,1)"><path fill="none" stroke="#000000" d="M 192 168 L 1130.50927734375 168 L 1130.50927734375 406 L 192 406 L 192 168 Z Z" stroke-miterlimit="10"/></g><g transform="translate(-158,-86) scale(1,1)"><path fill="none" stroke="#000000" d="M 192 195 L 1130.50927734375 195" stroke-miterlimit="10"/></g><g transform="translate(-158,-86) scale(1,1)"><g><path fill="none" stroke="none"/><text fill="#000000" stroke="none" font-family="Arial" font-size="15px" font-style="normal" font-weight="bold" text-decoration="none" x="609.5712890625" y="189.5">OrderController</text></g></g><g transform="translate(-158,-86) scale(1,1)"><g><path fill="none" stroke="none"/><text fill="#000000" stroke="none" font-family="Arial" font-size="15px" font-style="normal" font-weight="normal" text-decoration="none" x="197" y="214.5">+OrderController(customerManager: CustomerManager)</text></g></g><g transform="translate(-158,-86) scale(1,1)"><g><path fill="none" stroke="none"/><text fill="#000000" stroke="none" font-family="Arial" font-size="15px" font-style="normal" font-weight="normal" text-decoration="none" x="197" y="231.5">+viewBets(model: Model, userAccount: UserAccount): String</text></g></g><g transform="translate(-158,-86) scale(1,1)"><g><path fill="none" stroke="none"/><text fill="#000000" stroke="none" font-family="Arial" font-size="15px" font-style="normal" font-weight="normal" text-decoration="none" x="197" y="248.5">+raiseBet(model: Model, id: ProductIdentifier, bet_id: long, inset: double): String</text></g></g><g transform="translate(-158,-86) scale(1,1)"><g><path fill="none" stroke="none"/><text fill="#000000" stroke="none" font-family="Arial" font-size="15px" font-style="normal" font-weight="normal" text-decoration="none" x="197" y="265.5">+changeFoot(model: Model, id: ProductIdentifier, bid: long): String</text></g></g><g transform="translate(-158,-86) scale(1,1)"><g><path fill="none" stroke="none"/><text fill="#000000" stroke="none" font-family="Arial" font-size="15px" font-style="normal" font-weight="normal" text-decoration="none" x="197" y="282.5">+changeFootBetTip(id: ProductIdentifier, bet_id: long, number: int): String</text></g></g><g transform="translate(-158,-86) scale(1,1)"><g><path fill="none" stroke="none"/><text fill="#000000" stroke="none" font-family="Arial" font-size="15px" font-style="normal" font-weight="normal" text-decoration="none" x="197" y="299.5">+raiseNumBet(model: Model, id: ProductIdentifier, bet_id: long, inset: double): String</text></g></g><g transform="translate(-158,-86) scale(1,1)"><g><path fill="none" stroke="none"/><text fill="#000000" stroke="none" font-family="Arial" font-size="15px" font-style="normal" font-weight="normal" text-decoration="none" x="197" y="316.5">+changeNums(model: Model, id: ProductIdentifier, bet_id: long, inset: double): String</text></g></g><g transform="translate(-158,-86) scale(1,1)"><g><path fill="none" stroke="none"/><text fill="#000000" stroke="none" font-family="Arial" font-size="15px" font-style="normal" font-weight="normal" text-decoration="none" x="197" y="333.5">+changeNumbetTip(id: ProductIdentifier, bet_id: long, zahl1: int, zahl2: int, zahl3: int, zahl4: int, zahl5: int, zahl6: int, zusatz: int): String</text></g></g><g transform="translate(-158,-86) scale(1,1)"><g><path fill="none" stroke="none"/><text fill="#000000" stroke="none" font-family="Arial" font-size="15px" font-style="normal" font-weight="normal" text-decoration="none" x="197" y="350.5">+removeNumberBet(model: Model, customer: Customer, numberBetRemove: Bet, date: LocalTime): String</text></g></g><g transform="translate(-158,-86) scale(1,1)"><g><path fill="none" stroke="none"/><text fill="#000000" stroke="none" font-family="Arial" font-size="15px" font-style="normal" font-weight="normal" text-decoration="none" x="197" y="367.5">+removeFootballBet(model: Model, customer: Customer, footballBetRemove: Bet, date: LocalTime): String</text></g></g><g transform="translate(-158,-86) scale(1,1)"><g><path fill="none" stroke="none"/><text fill="#000000" stroke="none" font-family="Arial" font-size="15px" font-style="normal" font-weight="normal" text-decoration="none" x="197" y="384.5">+income(model: Model, customer: userAccount, footballBet: FootballBet, date: LocalTime, match: Match): String</text></g></g><g transform="translate(-158,-86) scale(1,1)"><g><path fill="none" stroke="none"/><text fill="#000000" stroke="none" font-family="Arial" font-size="15px" font-style="normal" font-weight="normal" text-decoration="none" x="197" y="401.5">+result(model: Model, football: Football, scoreHost: int, scoreGuest: int): String</text></g></g><g transform="translate(-158,-86) scale(1,1)"><rect fill="#C0C0C0" stroke="none" x="295" y="855" width="176" height="40" opacity="0.2"/></g><g transform="translate(-158,-86) scale(1,1)"><rect fill="#d8e1f8" stroke="none" x="288" y="848" width="176" height="40"/></g><g transform="translate(-158,-86) scale(1,1)"><path fill="none" stroke="#000000" d="M 288 848 L 464 848 L 464 888 L 288 888 L 288 848 Z Z" stroke-miterlimit="10"/></g><g transform="translate(-158,-86) scale(1,1)"><g><path fill="none" stroke="none"/><text fill="#000000" stroke="none" font-family="Arial" font-size="13px" font-style="normal" font-weight="bold" text-decoration="none" x="343.839599609375" y="867.5">Footballbet</text></g></g><g transform="translate(-158,-86) scale(1,1)"><rect fill="#C0C0C0" stroke="none" x="295" y="663" width="176" height="40" opacity="0.2"/></g><g transform="translate(-158,-86) scale(1,1)"><rect fill="#d8e1f8" stroke="none" x="288" y="656" width="176" height="40"/></g><g transform="translate(-158,-86) scale(1,1)"><path fill="none" stroke="#000000" d="M 288 656 L 464 656 L 464 696 L 288 696 L 288 656 Z Z" stroke-miterlimit="10"/></g><g transform="translate(-158,-86) scale(1,1)"><g><path fill="none" stroke="none"/><text fill="#000000" stroke="none" font-family="Arial" font-size="13px" font-style="normal" font-weight="bold" text-decoration="none" x="347.825927734375" y="675.5">Customer</text></g></g><g transform="translate(-158,-86) scale(1,1)"><rect fill="#C0C0C0" stroke="none" x="799" y="647" width="83.67578125" height="33" opacity="0.2"/></g><g transform="translate(-158,-86) scale(1,1)"><rect fill="#ffffcd" stroke="none" x="792" y="640" width="83.67578125" height="33"/></g><g transform="translate(-158,-86) scale(1,1)"><path fill="none" stroke="#000000" d="M 792 640 L 875.67578125 640 L 875.67578125 673 L 792 673 L 792 640 Z Z" stroke-miterlimit="10"/></g><g transform="translate(-158,-86) scale(1,1)"><path fill="#ffffcd" stroke="none" d="M 849.67578125 657 C 849.67578125 652.0294368 853.70521805 648 858.67578125 648 C 863.64634445 648 867.67578125 652.0294368 867.67578125 657 C 867.67578125 661.9705632 863.64634445 666 858.67578125 666 C 853.70521805 666 849.67578125 661.9705632 849.67578125 657 Z"/></g><g transform="translate(-158,-86) scale(1,1)"><path fill="none" stroke="#000000" d="M 849.67578125 657 C 849.67578125 652.0294368 853.70521805 648 858.67578125 648 C 863.64634445 648 867.67578125 652.0294368 867.67578125 657 C 867.67578125 661.9705632 863.64634445 666 858.67578125 666 C 853.70521805 666 849.67578125 661.9705632 849.67578125 657 Z" stroke-miterlimit="10"/></g><g transform="translate(-158,-86) scale(1,1)"><g><path fill="none" stroke="none"/><text fill="#000000" stroke="none" font-family="Arial" font-size="13px" font-style="normal" font-weight="bold" text-decoration="none" x="804.13427734375" y="659.5">Model</text></g></g><g transform="translate(-158,-86) scale(1,1)"><rect fill="#C0C0C0" stroke="none" x="295" y="791" width="176" height="40" opacity="0.2"/></g><g transform="translate(-158,-86) scale(1,1)"><rect fill="#d8e1f8" stroke="none" x="288" y="784" width="176" height="40"/></g><g transform="translate(-158,-86) scale(1,1)"><path fill="none" stroke="#000000" d="M 288 784 L 464 784 L 464 824 L 288 824 L 288 784 Z Z" stroke-miterlimit="10"/></g><g transform="translate(-158,-86) scale(1,1)"><g><path fill="none" stroke="none"/><text fill="#000000" stroke="none" font-family="Arial" font-size="13px" font-style="normal" font-weight="bold" text-decoration="none" x="358.299560546875" y="803.5">Match</text></g></g><g transform="translate(-158,-86) scale(1,1)"><rect fill="#C0C0C0" stroke="none" x="975" y="607" width="73.59999999999991" height="15" opacity="0.2"/></g><g transform="translate(-158,-86) scale(1,1)"><rect fill="#C0C0C0" stroke="none" x="975" y="621" width="184" height="90" opacity="0.2"/></g><g transform="translate(-158,-86) scale(1,1)"><rect fill="#fff2e4" stroke="none" x="968" y="615" width="184" height="89"/></g><g transform="translate(-158,-86) scale(1,1)"><path fill="none" stroke="#000000" d="M 968 615 L 1152 615 L 1152 704 L 968 704 L 968 615 Z Z" stroke-miterlimit="10"/></g><g transform="translate(-158,-86) scale(1,1)"><rect fill="#fff2e4" stroke="none" x="968" y="600" width="73.59999999999991" height="15"/></g><g transform="translate(-158,-86) scale(1,1)"><path fill="none" stroke="#000000" d="M 968 600 L 1041.6 600 L 1041.6 615 L 968 615 L 968 600 Z Z" stroke-miterlimit="10"/></g><g transform="translate(-158,-86) scale(1,1)"><rect fill="#fff2e4" stroke="none" x="968" y="614" width="184" height="90"/></g><g transform="translate(-158,-86) scale(1,1)"><path fill="none" stroke="#000000" d="M 968 614 L 1152 614 L 1152 704 L 968 704 L 968 614 Z Z" stroke-miterlimit="10"/></g><g transform="translate(-158,-86) scale(1,1)"><g><path fill="none" stroke="none"/><text fill="#000000" stroke="none" font-family="Arial" font-size="13px" font-style="normal" font-weight="bold" text-decoration="none" x="1026.760498046875" y="634.5">JavaMoney</text></g></g><g transform="translate(-158,-86) scale(1,1)"><rect fill="#C0C0C0" stroke="none" x="1039" y="655" width="55" height="32" opacity="0.2"/></g><g transform="translate(-158,-86) scale(1,1)"><rect fill="#d8e1f8" stroke="none" x="1032" y="648" width="55" height="32"/></g><g transform="translate(-158,-86) scale(1,1)"><path fill="none" stroke="#000000" d="M 1032 648 L 1087 648 L 1087 680 L 1032 680 L 1032 648 Z Z" stroke-miterlimit="10"/></g><g transform="translate(-158,-86) scale(1,1)"><g><path fill="none" stroke="none"/><text fill="#000000" stroke="none" font-family="Arial" font-size="13px" font-style="normal" font-weight="bold" text-decoration="none" x="1039.990478515625" y="667.5">Money</text></g></g><g transform="translate(-158,-86) scale(1,1)"><rect fill="#C0C0C0" stroke="none" x="975" y="751" width="73.59999999999991" height="15" opacity="0.2"/></g><g transform="translate(-158,-86) scale(1,1)"><rect fill="#C0C0C0" stroke="none" x="975" y="765" width="184" height="106" opacity="0.2"/></g><g transform="translate(-158,-86) scale(1,1)"><rect fill="#fff2e4" stroke="none" x="968" y="759" width="184" height="105"/></g><g transform="translate(-158,-86) scale(1,1)"><path fill="none" stroke="#000000" d="M 968 759 L 1152 759 L 1152 864 L 968 864 L 968 759 Z Z" stroke-miterlimit="10"/></g><g transform="translate(-158,-86) scale(1,1)"><rect fill="#fff2e4" stroke="none" x="968" y="744" width="73.59999999999991" height="15"/></g><g transform="translate(-158,-86) scale(1,1)"><path fill="none" stroke="#000000" d="M 968 744 L 1041.6 744 L 1041.6 759 L 968 759 L 968 744 Z Z" stroke-miterlimit="10"/></g><g transform="translate(-158,-86) scale(1,1)"><rect fill="#fff2e4" stroke="none" x="968" y="758" width="184" height="106"/></g><g transform="translate(-158,-86) scale(1,1)"><path fill="none" stroke="#000000" d="M 968 758 L 1152 758 L 1152 864 L 968 864 L 968 758 Z Z" stroke-miterlimit="10"/></g><g transform="translate(-158,-86) scale(1,1)"><g><path fill="none" stroke="none"/><text fill="#000000" stroke="none" font-family="Arial" font-size="13px" font-style="normal" font-weight="bold" text-decoration="none" x="1045.797119140625" y="778.5">Time</text></g></g><g transform="translate(-158,-86) scale(1,1)"><rect fill="#C0C0C0" stroke="none" x="1015" y="807" width="102.38671875" height="32" opacity="0.2"/></g><g transform="translate(-158,-86) scale(1,1)"><rect fill="#d8e1f8" stroke="none" x="1008" y="800" width="102.38671875" height="32"/></g><g transform="translate(-158,-86) scale(1,1)"><path fill="none" stroke="#000000" d="M 1008 800 L 1110.38671875 800 L 1110.38671875 832 L 1008 832 L 1008 800 Z Z" stroke-miterlimit="10"/></g><g transform="translate(-158,-86) scale(1,1)"><g><path fill="none" stroke="none"/><text fill="#000000" stroke="none" font-family="Arial" font-size="13px" font-style="normal" font-weight="bold" text-decoration="none" x="1015.721435546875" y="819.5">LocalDateTime</text></g></g><g transform="translate(-158,-86) scale(1,1)"><rect fill="#C0C0C0" stroke="none" x="735" y="895" width="115.20000000000005" height="15" opacity="0.2"/></g><g transform="translate(-158,-86) scale(1,1)"><rect fill="#C0C0C0" stroke="none" x="735" y="909" width="288" height="226" opacity="0.2"/></g><g transform="translate(-158,-86) scale(1,1)"><rect fill="#fff2e4" stroke="none" x="728" y="903" width="288" height="225"/></g><g transform="translate(-158,-86) scale(1,1)"><path fill="none" stroke="#000000" d="M 728 903 L 1016 903 L 1016 1128 L 728 1128 L 728 903 Z Z" stroke-miterlimit="10"/></g><g transform="translate(-158,-86) scale(1,1)"><rect fill="#fff2e4" stroke="none" x="728" y="888" width="115.20000000000005" height="15"/></g><g transform="translate(-158,-86) scale(1,1)"><path fill="none" stroke="#000000" d="M 728 888 L 843.2 888 L 843.2 903 L 728 903 L 728 888 Z Z" stroke-miterlimit="10"/></g><g transform="translate(-158,-86) scale(1,1)"><rect fill="#fff2e4" stroke="none" x="728" y="902" width="288" height="226"/></g><g transform="translate(-158,-86) scale(1,1)"><path fill="none" stroke="#000000" d="M 728 902 L 1016 902 L 1016 1128 L 728 1128 L 728 902 Z Z" stroke-miterlimit="10"/></g><g transform="translate(-158,-86) scale(1,1)"><g><path fill="none" stroke="none"/><text fill="#000000" stroke="none" font-family="Arial" font-size="13px" font-style="normal" font-weight="bold" text-decoration="none" x="819.628662109375" y="922.5">kickstart.customer</text></g></g><g transform="translate(-158,-86) scale(1,1)"><rect fill="#C0C0C0" stroke="none" x="767" y="799" width="134.72998046875" height="33" opacity="0.2"/></g><g transform="translate(-158,-86) scale(1,1)"><rect fill="#ffffcd" stroke="none" x="760" y="792" width="134.72998046875" height="33"/></g><g transform="translate(-158,-86) scale(1,1)"><path fill="none" stroke="#000000" d="M 760 792 L 894.72998046875 792 L 894.72998046875 825 L 760 825 L 760 792 Z Z" stroke-miterlimit="10"/></g><g transform="translate(-158,-86) scale(1,1)"><path fill="#ffffcd" stroke="none" d="M 868.72998046875 809 C 868.72998046875 804.0294368 872.75941726875 800 877.72998046875 800 C 882.70054366875 800 886.72998046875 804.0294368 886.72998046875 809 C 886.72998046875 813.9705632 882.70054366875 818 877.72998046875 818 C 872.75941726875 818 868.72998046875 813.9705632 868.72998046875 809 Z"/></g><g transform="translate(-158,-86) scale(1,1)"><path fill="none" stroke="#000000" d="M 868.72998046875 809 C 868.72998046875 804.0294368 872.75941726875 800 877.72998046875 800 C 882.70054366875 800 886.72998046875 804.0294368 886.72998046875 809 C 886.72998046875 813.9705632 882.70054366875 818 877.72998046875 818 C 872.75941726875 818 868.72998046875 813.9705632 868.72998046875 809 Z" stroke-miterlimit="10"/></g><g transform="translate(-158,-86) scale(1,1)"><g><path fill="none" stroke="none"/><text fill="#000000" stroke="none" font-family="Arial" font-size="13px" font-style="normal" font-weight="bold" text-decoration="none" x="773.089599609375" y="811.5">LotteryCatalog</text></g></g><g transform="translate(-158,-86) scale(1,1)"><path fill="none" stroke="#000000" d="M 654 406 L 654 664 L 792 664" stroke-miterlimit="10"/></g><g transform="translate(-158,-86) scale(1,1)"><g><path fill="none" stroke="none"/><text fill="#000000" stroke="none" font-family="Arial" font-size="13px" font-style="normal" font-weight="normal" text-decoration="none" x="659.943359375" y="684.5">-&lt;&lt;uses&gt;&gt;</text></g></g><g transform="translate(-158,-86) scale(1,1)"><path fill="none" stroke="#000000" d="M 611 406 L 611 816 L 760 816" stroke-miterlimit="10"/></g><g transform="translate(-158,-86) scale(1,1)"><path fill="none" stroke="#000000" d="M 749.8373251423759 820.209517756016 L 760 816 L 749.8373251423758 811.790482243984" stroke-miterlimit="10"/></g><g transform="translate(-158,-86) scale(1,1)"><g><path fill="none" stroke="none"/><text fill="#000000" stroke="none" font-family="Arial" font-size="13px" font-style="normal" font-weight="normal" text-decoration="none" x="641.13134765625" y="835.5">-lotteryCatalog</text></g></g><g transform="translate(-158,-86) scale(1,1)"><path fill="none" stroke="#000000" d="M 1131 384 L 1184 384 L 1184 663 L 1087 663" stroke-miterlimit="10" stroke-dasharray="3"/></g><g transform="translate(-158,-86) scale(1,1)"><path fill="none" stroke="#000000" d="M 1097.162674857624 658.790482243984 L 1087 663 L 1097.162674857624 667.209517756016" stroke-miterlimit="10"/></g><g transform="translate(-158,-86) scale(1,1)"><path fill="none" stroke="#000000" d="M 1131 328 L 1224 328 L 1224 816 L 1110 816" stroke-miterlimit="10" stroke-dasharray="3"/></g><g transform="translate(-158,-86) scale(1,1)"><path fill="none" stroke="#000000" d="M 1120.162674857624 811.790482243984 L 1110 816 L 1120.162674857624 820.209517756016" stroke-miterlimit="10"/></g><g transform="translate(-158,-86) scale(1,1)"><path fill="none" stroke="#000000" d="M 272 406 L 272 612 L 288 612" stroke-miterlimit="10" stroke-dasharray="3"/></g><g transform="translate(-158,-86) scale(1,1)"><path fill="none" stroke="#000000" d="M 277.83732514237585 616.209517756016 L 288 612 L 277.83732514237585 607.790482243984" stroke-miterlimit="10"/></g><g transform="translate(-158,-86) scale(1,1)"><path fill="none" stroke="#000000" d="M 256 406 L 256 676 L 288 676" stroke-miterlimit="10" stroke-dasharray="3"/></g><g transform="translate(-158,-86) scale(1,1)"><path fill="none" stroke="#000000" d="M 277.83732514237585 680.209517756016 L 288 676 L 277.83732514237585 671.790482243984" stroke-miterlimit="10"/></g><g transform="translate(-158,-86) scale(1,1)"><path fill="none" stroke="#000000" d="M 240 406 L 240 740 L 288 740" stroke-miterlimit="10" stroke-dasharray="3"/></g><g transform="translate(-158,-86) scale(1,1)"><path fill="none" stroke="#000000" d="M 277.83732514237585 744.209517756016 L 288 740 L 277.83732514237585 735.790482243984" stroke-miterlimit="10"/></g><g transform="translate(-158,-86) scale(1,1)"><path fill="none" stroke="#000000" d="M 224 406 L 224 804 L 288 804" stroke-miterlimit="10" stroke-dasharray="3"/></g><g transform="translate(-158,-86) scale(1,1)"><path fill="none" stroke="#000000" d="M 277.83732514237585 808.209517756016 L 288 804 L 277.83732514237585 799.790482243984" stroke-miterlimit="10"/></g><g transform="translate(-158,-86) scale(1,1)"><path fill="none" stroke="#000000" d="M 208 406 L 208 868 L 288 868" stroke-miterlimit="10" stroke-dasharray="3"/></g><g transform="translate(-158,-86) scale(1,1)"><path fill="none" stroke="#000000" d="M 277.83732514237585 872.209517756016 L 288 868 L 277.83732514237585 863.790482243984" stroke-miterlimit="10"/></g><g transform="translate(-158,-86) scale(1,1)"><rect fill="#C0C0C0" stroke="none" x="759" y="1017" width="200.97900390625" height="46" opacity="0.2"/></g><g transform="translate(-158,-86) scale(1,1)"><rect fill="#C0C0C0" stroke="none" x="847.27001953125" y="999" width="121.708984375" height="22" opacity="0.2"/></g><g transform="translate(-158,-86) scale(1,1)"><rect fill="#ffffcd" stroke="none" x="752" y="1010" width="200.97900390625" height="46"/></g><g transform="translate(-158,-86) scale(1,1)"><path fill="none" stroke="#000000" d="M 752 1010 L 952.97900390625 1010 L 952.97900390625 1056 L 752 1056 L 752 1010 Z Z" stroke-miterlimit="10"/></g><g transform="translate(-158,-86) scale(1,1)"><path fill="#ffffcd" stroke="none" d="M 926.97900390625 1027 C 926.97900390625 1022.0294368 931.00844070625 1018 935.97900390625 1018 C 940.94956710625 1018 944.97900390625 1022.0294368 944.97900390625 1027 C 944.97900390625 1031.9705632 940.94956710625 1036 935.97900390625 1036 C 931.00844070625 1036 926.97900390625 1031.9705632 926.97900390625 1027 Z"/></g><g transform="translate(-158,-86) scale(1,1)"><path fill="none" stroke="#000000" d="M 926.97900390625 1027 C 926.97900390625 1022.0294368 931.00844070625 1018 935.97900390625 1018 C 940.94956710625 1018 944.97900390625 1022.0294368 944.97900390625 1027 C 944.97900390625 1031.9705632 940.94956710625 1036 935.97900390625 1036 C 931.00844070625 1036 926.97900390625 1031.9705632 926.97900390625 1027 Z" stroke-miterlimit="10"/></g><g transform="translate(-158,-86) scale(1,1)"><g><path fill="none" stroke="none"/><text fill="#000000" stroke="none" font-family="Arial" font-size="13px" font-style="normal" font-weight="bold" text-decoration="none" x="786.246826171875" y="1029.5">CustomerRepository</text></g></g><g transform="translate(-158,-86) scale(1,1)"><rect fill="#ffffcd" stroke="none" x="840.27001953125" y="992" width="121.708984375" height="22"/></g><g transform="translate(-158,-86) scale(1,1)"><path fill="none" stroke="#000000" d="M 840.27001953125 992 L 961.97900390625 992 L 961.97900390625 1014 L 840.27001953125 1014 L 840.27001953125 992 Z Z" stroke-miterlimit="10" stroke-dasharray="3"/></g><g transform="translate(-158,-86) scale(1,1)"><g><path fill="none" stroke="none"/><text fill="#000000" stroke="none" font-family="Arial" font-size="13px" font-style="normal" font-weight="normal" text-decoration="none" x="845.27001953125" y="1009.5">Template Customer</text></g></g><g transform="translate(-158,-86) scale(1,1)"><g><path fill="none" stroke="none"/><text fill="#000000" stroke="none" font-family="Arial" font-size="13px" font-style="normal" font-weight="normal" text-decoration="none" x="598.371337890625" y="1035.5">-customerRepository</text></g></g><g transform="translate(-158,-86) scale(1,1)"><path fill="none" stroke="#000000" d="M 560 406 L 560 1016 L 752 1016" stroke-miterlimit="10"/></g><g transform="translate(-158,-86) scale(1,1)"><path fill="none" stroke="#000000" d="M 741.8373251423759 1020.209517756016 L 752 1016 L 741.8373251423758 1011.790482243984" stroke-miterlimit="10"/></g><g transform="translate(-158,-86) scale(1,1)"><g><path fill="none" stroke="none"/><text fill="#000000" stroke="none" font-family="Arial" font-size="13px" font-style="normal" font-weight="normal" text-decoration="none" x="598.371337890625" y="1035.5">-customerRepository</text></g></g><g transform="translate(-158,-86) scale(1,1)"><g><path fill="none" stroke="none"/><text fill="#000000" stroke="none" font-family="Arial" font-size="13px" font-style="normal" font-weight="normal" text-decoration="none" x="543.65234375" y="620.5">1</text></g></g><g transform="translate(-158,-86) scale(1,1)"><rect fill="#C0C0C0" stroke="none" x="759" y="943" width="149.13720703125" height="44" opacity="0.2"/></g><g transform="translate(-158,-86) scale(1,1)"><rect fill="#d8e1f8" stroke="none" x="752" y="936" width="149.13720703125" height="44"/></g><g transform="translate(-158,-86) scale(1,1)"><path fill="none" stroke="#000000" d="M 752 936 L 901.13720703125 936 L 901.13720703125 980 L 752 980 L 752 936 Z Z" stroke-miterlimit="10"/></g><g transform="translate(-158,-86) scale(1,1)"><g><path fill="none" stroke="none"/><text fill="#000000" stroke="none" font-family="Arial" font-size="13px" font-style="normal" font-weight="bold" text-decoration="none" x="760.45458984375" y="955.5">CustomerManagement</text></g></g><g transform="translate(-158,-86) scale(1,1)"><path fill="none" stroke="#000000" d="M 592 406 L 592 958 L 752 958" stroke-miterlimit="10"/></g><g transform="translate(-158,-86) scale(1,1)"><path fill="none" stroke="#000000" d="M 741.8373251423759 962.209517756016 L 752 958 L 741.8373251423758 953.790482243984" stroke-miterlimit="10"/></g><g transform="translate(-158,-86) scale(1,1)"><g><path fill="none" stroke="none"/><text fill="#000000" stroke="none" font-family="Arial" font-size="13px" font-style="normal" font-weight="normal" text-decoration="none" x="584.13134765625" y="980.5">-customerManagement</text></g></g></g></svg>