<svg version="1.1" xmlns="http://www.w3.org/2000/svg" xmlns:xlink="http://www.w3.org/1999/xlink" width="1045" height="988"><defs/><g><g transform="translate(-158,-86) scale(1,1)"><rect fill="#C0C0C0" stroke="none" x="175" y="103" width="384" height="15" opacity="0.2"/></g><g transform="translate(-158,-86) scale(1,1)"><rect fill="#C0C0C0" stroke="none" x="175" y="117" width="960" height="370" opacity="0.2"/></g><g transform="translate(-158,-86) scale(1,1)"><rect fill="#fff2e4" stroke="none" x="168" y="111" width="960" height="369"/></g><g transform="translate(-158,-86) scale(1,1)"><path fill="none" stroke="#000000" d="M 168 111 L 1128 111 L 1128 480 L 168 480 L 168 111 Z Z" stroke-miterlimit="10"/></g><g transform="translate(-158,-86) scale(1,1)"><rect fill="#fff2e4" stroke="none" x="168" y="96" width="384" height="15"/></g><g transform="translate(-158,-86) scale(1,1)"><path fill="none" stroke="#000000" d="M 168 96 L 552 96 L 552 111 L 168 111 L 168 96 Z Z" stroke-miterlimit="10"/></g><g transform="translate(-158,-86) scale(1,1)"><rect fill="#fff2e4" stroke="none" x="168" y="110" width="960" height="370"/></g><g transform="translate(-158,-86) scale(1,1)"><path fill="none" stroke="#000000" d="M 168 110 L 1128 110 L 1128 480 L 168 480 L 168 110 Z Z" stroke-miterlimit="10"/></g><g transform="translate(-158,-86) scale(1,1)"><g><path fill="none" stroke="none"/><text fill="#000000" stroke="none" font-family="Arial" font-size="13px" font-style="normal" font-weight="bold" text-decoration="none" x="607.1845703125" y="130.5">kickstart.order</text></g></g><g transform="translate(-158,-86) scale(1,1)"><rect fill="#C0C0C0" stroke="none" x="183" y="567" width="144" height="15" opacity="0.2"/></g><g transform="translate(-158,-86) scale(1,1)"><rect fill="#C0C0C0" stroke="none" x="183" y="581" width="360" height="490" opacity="0.2"/></g><g transform="translate(-158,-86) scale(1,1)"><rect fill="#fff2e4" stroke="none" x="176" y="575" width="360" height="489"/></g><g transform="translate(-158,-86) scale(1,1)"><path fill="none" stroke="#000000" d="M 176 575 L 536 575 L 536 1064 L 176 1064 L 176 575 Z Z" stroke-miterlimit="10"/></g><g transform="translate(-158,-86) scale(1,1)"><rect fill="#fff2e4" stroke="none" x="176" y="560" width="144" height="15"/></g><g transform="translate(-158,-86) scale(1,1)"><path fill="none" stroke="#000000" d="M 176 560 L 320 560 L 320 575 L 176 575 L 176 560 Z Z" stroke-miterlimit="10"/></g><g transform="translate(-158,-86) scale(1,1)"><rect fill="#fff2e4" stroke="none" x="176" y="574" width="360" height="490"/></g><g transform="translate(-158,-86) scale(1,1)"><path fill="none" stroke="#000000" d="M 176 574 L 536 574 L 536 1064 L 176 1064 L 176 574 Z Z" stroke-miterlimit="10"/></g><g transform="translate(-158,-86) scale(1,1)"><g><path fill="none" stroke="none"/><text fill="#000000" stroke="none" font-family="Arial" font-size="13px" font-style="normal" font-weight="bold" text-decoration="none" x="325.6455078125" y="594.5">Salespoint</text></g></g><g transform="translate(-158,-86) scale(1,1)"><rect fill="#C0C0C0" stroke="none" x="295" y="743" width="176" height="40" opacity="0.2"/></g><g transform="translate(-158,-86) scale(1,1)"><rect fill="#d8e1f8" stroke="none" x="288" y="736" width="176" height="40"/></g><g transform="translate(-158,-86) scale(1,1)"><path fill="none" stroke="#000000" d="M 288 736 L 464 736 L 464 776 L 288 776 L 288 736 Z Z" stroke-miterlimit="10"/></g><g transform="translate(-158,-86) scale(1,1)"><g><path fill="none" stroke="none"/><text fill="#000000" stroke="none" font-family="Arial" font-size="13px" font-style="normal" font-weight="bold" text-decoration="none" x="339.869140625" y="755.5">userAccount</text></g></g><g transform="translate(-158,-86) scale(1,1)"><rect fill="#C0C0C0" stroke="none" x="295" y="871" width="176" height="40" opacity="0.2"/></g><g transform="translate(-158,-86) scale(1,1)"><rect fill="#d8e1f8" stroke="none" x="288" y="864" width="176" height="40"/></g><g transform="translate(-158,-86) scale(1,1)"><path fill="none" stroke="#000000" d="M 288 864 L 464 864 L 464 904 L 288 904 L 288 864 Z Z" stroke-miterlimit="10"/></g><g transform="translate(-158,-86) scale(1,1)"><g><path fill="none" stroke="none"/><text fill="#000000" stroke="none" font-family="Arial" font-size="13px" font-style="normal" font-weight="bold" text-decoration="none" x="366.24365234375" y="883.5">Bet</text></g></g><g transform="translate(-158,-86) scale(1,1)"><rect fill="#C0C0C0" stroke="none" x="655" y="591" width="73.60000000000002" height="15" opacity="0.2"/></g><g transform="translate(-158,-86) scale(1,1)"><rect fill="#C0C0C0" stroke="none" x="655" y="605" width="184" height="114" opacity="0.2"/></g><g transform="translate(-158,-86) scale(1,1)"><rect fill="#fff2e4" stroke="none" x="648" y="599" width="184" height="113"/></g><g transform="translate(-158,-86) scale(1,1)"><path fill="none" stroke="#000000" d="M 648 599 L 832 599 L 832 712 L 648 712 L 648 599 Z Z" stroke-miterlimit="10"/></g><g transform="translate(-158,-86) scale(1,1)"><rect fill="#fff2e4" stroke="none" x="648" y="584" width="73.60000000000002" height="15"/></g><g transform="translate(-158,-86) scale(1,1)"><path fill="none" stroke="#000000" d="M 648 584 L 721.6 584 L 721.6 599 L 648 599 L 648 584 Z Z" stroke-miterlimit="10"/></g><g transform="translate(-158,-86) scale(1,1)"><rect fill="#fff2e4" stroke="none" x="648" y="598" width="184" height="114"/></g><g transform="translate(-158,-86) scale(1,1)"><path fill="none" stroke="#000000" d="M 648 598 L 832 598 L 832 712 L 648 712 L 648 598 Z Z" stroke-miterlimit="10"/></g><g transform="translate(-158,-86) scale(1,1)"><g><path fill="none" stroke="none"/><text fill="#000000" stroke="none" font-family="Arial" font-size="13px" font-style="normal" font-weight="bold" text-decoration="none" x="721.2109375" y="618.5">Spring</text></g></g><g transform="translate(-158,-86) scale(1,1)"><rect fill="#C0C0C0" stroke="none" x="655" y="751" width="73.60000000000002" height="15" opacity="0.2"/></g><g transform="translate(-158,-86) scale(1,1)"><rect fill="#C0C0C0" stroke="none" x="655" y="765" width="184" height="98" opacity="0.2"/></g><g transform="translate(-158,-86) scale(1,1)"><rect fill="#fff2e4" stroke="none" x="648" y="759" width="184" height="97"/></g><g transform="translate(-158,-86) scale(1,1)"><path fill="none" stroke="#000000" d="M 648 759 L 832 759 L 832 856 L 648 856 L 648 759 Z Z" stroke-miterlimit="10"/></g><g transform="translate(-158,-86) scale(1,1)"><rect fill="#fff2e4" stroke="none" x="648" y="744" width="73.60000000000002" height="15"/></g><g transform="translate(-158,-86) scale(1,1)"><path fill="none" stroke="#000000" d="M 648 744 L 721.6 744 L 721.6 759 L 648 759 L 648 744 Z Z" stroke-miterlimit="10"/></g><g transform="translate(-158,-86) scale(1,1)"><rect fill="#fff2e4" stroke="none" x="648" y="758" width="184" height="98"/></g><g transform="translate(-158,-86) scale(1,1)"><path fill="none" stroke="#000000" d="M 648 758 L 832 758 L 832 856 L 648 856 L 648 758 Z Z" stroke-miterlimit="10"/></g><g transform="translate(-158,-86) scale(1,1)"><g><path fill="none" stroke="none"/><text fill="#000000" stroke="none" font-family="Arial" font-size="13px" font-style="normal" font-weight="bold" text-decoration="none" x="691.95458984375" y="778.5">kickstart.Catalog</text></g></g><g transform="translate(-158,-86) scale(1,1)"><rect fill="#C0C0C0" stroke="none" x="199" y="175" width="913.68408203125" height="238" opacity="0.2"/></g><g transform="translate(-158,-86) scale(1,1)"><rect fill="#d8e1f8" stroke="none" x="192" y="168" width="913.68408203125" height="238"/></g><g transform="translate(-158,-86) scale(1,1)"><path fill="none" stroke="#000000" d="M 192 168 L 1105.68408203125 168 L 1105.68408203125 406 L 192 406 L 192 168 Z Z" stroke-miterlimit="10"/></g><g transform="translate(-158,-86) scale(1,1)"><path fill="none" stroke="#000000" d="M 192 195 L 1105.68408203125 195" stroke-miterlimit="10"/></g><g transform="translate(-158,-86) scale(1,1)"><g><path fill="none" stroke="none"/><text fill="#000000" stroke="none" font-family="Arial" font-size="15px" font-style="normal" font-weight="bold" text-decoration="none" x="597.15869140625" y="189.5">OrderController</text></g></g><g transform="translate(-158,-86) scale(1,1)"><g><path fill="none" stroke="none"/><text fill="#000000" stroke="none" font-family="Arial" font-size="15px" font-style="normal" font-weight="normal" text-decoration="none" x="197" y="214.5">+OrderController(customerManager: CustomerManager)</text></g></g><g transform="translate(-158,-86) scale(1,1)"><g><path fill="none" stroke="none"/><text fill="#000000" stroke="none" font-family="Arial" font-size="15px" font-style="normal" font-weight="normal" text-decoration="none" x="197" y="231.5">+viewBets(model: Model, userAccount: UserAccount): String</text></g></g><g transform="translate(-158,-86) scale(1,1)"><g><path fill="none" stroke="none"/><text fill="#000000" stroke="none" font-family="Arial" font-size="15px" font-style="normal" font-weight="normal" text-decoration="none" x="197" y="248.5">+raiseBet(model: Model, id: ProductIdentifier, bet_id: long, inset: double): String</text></g></g><g transform="translate(-158,-86) scale(1,1)"><g><path fill="none" stroke="none"/><text fill="#000000" stroke="none" font-family="Arial" font-size="15px" font-style="normal" font-weight="normal" text-decoration="none" x="197" y="265.5">+changeFoot(model: Model, id: ProductIdentifier, bid: long): String</text></g></g><g transform="translate(-158,-86) scale(1,1)"><g><path fill="none" stroke="none"/><text fill="#000000" stroke="none" font-family="Arial" font-size="15px" font-style="normal" font-weight="normal" text-decoration="none" x="197" y="282.5">+changeFootBetTip(id: ProductIdentifier, bet_id: long, number: int): String</text></g></g><g transform="translate(-158,-86) scale(1,1)"><g><path fill="none" stroke="none"/><text fill="#000000" stroke="none" font-family="Arial" font-size="15px" font-style="normal" font-weight="normal" text-decoration="none" x="197" y="299.5">+raiseNumBet(model: Model, id: ProductIdentifier, bet_id: long, inset: double): String</text></g></g><g transform="translate(-158,-86) scale(1,1)"><g><path fill="none" stroke="none"/><text fill="#000000" stroke="none" font-family="Arial" font-size="15px" font-style="normal" font-weight="normal" text-decoration="none" x="197" y="316.5">+changeNums(model: Model, id: ProductIdentifier, bet_id: long, inset: double): String</text></g></g><g transform="translate(-158,-86) scale(1,1)"><g><path fill="none" stroke="none"/><text fill="#000000" stroke="none" font-family="Arial" font-size="15px" font-style="normal" font-weight="normal" text-decoration="none" x="197" y="333.5">+changeNumbetTip(id: ProductIdentifier, bet_id: long, zahl1: int, zahl2: int, zahl3: int, zahl4: int, zahl5: int, zahl6: int, zusatz: int): String</text></g></g><g transform="translate(-158,-86) scale(1,1)"><g><path fill="none" stroke="none"/><text fill="#000000" stroke="none" font-family="Arial" font-size="15px" font-style="normal" font-weight="normal" text-decoration="none" x="197" y="350.5">+removeNumberBet(model: Model, customer: Customer, numberBetRemove: Bet, date: LocalTime): String</text></g></g><g transform="translate(-158,-86) scale(1,1)"><g><path fill="none" stroke="none"/><text fill="#000000" stroke="none" font-family="Arial" font-size="15px" font-style="normal" font-weight="normal" text-decoration="none" x="197" y="367.5">+removeFootballBet(model: Model, customer: Customer, footballBetRemove: Bet, date: LocalTime): String</text></g></g><g transform="translate(-158,-86) scale(1,1)"><g><path fill="none" stroke="none"/><text fill="#000000" stroke="none" font-family="Arial" font-size="15px" font-style="normal" font-weight="normal" text-decoration="none" x="197" y="384.5">+income(model: Model, customer: userAccount, footballBet: FootballBet, date: LocalTime, match: Match): String</text></g></g><g transform="translate(-158,-86) scale(1,1)"><g><path fill="none" stroke="none"/><text fill="#000000" stroke="none" font-family="Arial" font-size="15px" font-style="normal" font-weight="normal" text-decoration="none" x="197" y="401.5">+result(model: Model, football: Football, scoreHost: int, scoreGuest: int): String</text></g></g><g transform="translate(-158,-86) scale(1,1)"><rect fill="#C0C0C0" stroke="none" x="295" y="999" width="176" height="40" opacity="0.2"/></g><g transform="translate(-158,-86) scale(1,1)"><rect fill="#d8e1f8" stroke="none" x="288" y="992" width="176" height="40"/></g><g transform="translate(-158,-86) scale(1,1)"><path fill="none" stroke="#000000" d="M 288 992 L 464 992 L 464 1032 L 288 1032 L 288 992 Z Z" stroke-miterlimit="10"/></g><g transform="translate(-158,-86) scale(1,1)"><g><path fill="none" stroke="none"/><text fill="#000000" stroke="none" font-family="Arial" font-size="13px" font-style="normal" font-weight="bold" text-decoration="none" x="343.839599609375" y="1011.5">Footballbet</text></g></g><g transform="translate(-158,-86) scale(1,1)"><rect fill="#C0C0C0" stroke="none" x="295" y="807" width="176" height="40" opacity="0.2"/></g><g transform="translate(-158,-86) scale(1,1)"><rect fill="#d8e1f8" stroke="none" x="288" y="800" width="176" height="40"/></g><g transform="translate(-158,-86) scale(1,1)"><path fill="none" stroke="#000000" d="M 288 800 L 464 800 L 464 840 L 288 840 L 288 800 Z Z" stroke-miterlimit="10"/></g><g transform="translate(-158,-86) scale(1,1)"><g><path fill="none" stroke="none"/><text fill="#000000" stroke="none" font-family="Arial" font-size="13px" font-style="normal" font-weight="bold" text-decoration="none" x="347.825927734375" y="819.5">Customer</text></g></g><g transform="translate(-158,-86) scale(1,1)"><rect fill="#C0C0C0" stroke="none" x="295" y="673" width="174.97900390625" height="46" opacity="0.2"/></g><g transform="translate(-158,-86) scale(1,1)"><rect fill="#C0C0C0" stroke="none" x="357.27001953125" y="655" width="121.708984375" height="22" opacity="0.2"/></g><g transform="translate(-158,-86) scale(1,1)"><rect fill="#ffffcd" stroke="none" x="288" y="666" width="174.97900390625" height="46"/></g><g transform="translate(-158,-86) scale(1,1)"><path fill="none" stroke="#000000" d="M 288 666 L 462.97900390625 666 L 462.97900390625 712 L 288 712 L 288 666 Z Z" stroke-miterlimit="10"/></g><g transform="translate(-158,-86) scale(1,1)"><path fill="#ffffcd" stroke="none" d="M 436.97900390625 683 C 436.97900390625 678.0294368 441.00844070625 674 445.97900390625 674 C 450.94956710625 674 454.97900390625 678.0294368 454.97900390625 683 C 454.97900390625 687.9705632 450.94956710625 692 445.97900390625 692 C 441.00844070625 692 436.97900390625 687.9705632 436.97900390625 683 Z"/></g><g transform="translate(-158,-86) scale(1,1)"><path fill="none" stroke="#000000" d="M 436.97900390625 683 C 436.97900390625 678.0294368 441.00844070625 674 445.97900390625 674 C 450.94956710625 674 454.97900390625 678.0294368 454.97900390625 683 C 454.97900390625 687.9705632 450.94956710625 692 445.97900390625 692 C 441.00844070625 692 436.97900390625 687.9705632 436.97900390625 683 Z" stroke-miterlimit="10"/></g><g transform="translate(-158,-86) scale(1,1)"><g><path fill="none" stroke="none"/><text fill="#000000" stroke="none" font-family="Arial" font-size="13px" font-style="normal" font-weight="bold" text-decoration="none" x="316.10546875" y="685.5">customerManager</text></g></g><g transform="translate(-158,-86) scale(1,1)"><rect fill="#ffffcd" stroke="none" x="350.27001953125" y="648" width="121.708984375" height="22"/></g><g transform="translate(-158,-86) scale(1,1)"><path fill="none" stroke="#000000" d="M 350.27001953125 648 L 471.97900390625 648 L 471.97900390625 670 L 350.27001953125 670 L 350.27001953125 648 Z Z" stroke-miterlimit="10" stroke-dasharray="3"/></g><g transform="translate(-158,-86) scale(1,1)"><g><path fill="none" stroke="none"/><text fill="#000000" stroke="none" font-family="Arial" font-size="13px" font-style="normal" font-weight="normal" text-decoration="none" x="355.27001953125" y="665.5">Template Customer</text></g></g><g transform="translate(-158,-86) scale(1,1)"><path fill="none" stroke="#000000" d="M 312 406 L 312 648" stroke-miterlimit="10"/></g><g transform="translate(-158,-86) scale(1,1)"><path fill="none" stroke="#000000" d="M 307.790482243984 637.8373251423759 L 312 648 L 316.209517756016 637.8373251423759" stroke-miterlimit="10"/></g><g transform="translate(-158,-86) scale(1,1)"><g><path fill="none" stroke="none"/><text fill="#000000" stroke="none" font-family="Arial" font-size="13px" font-style="normal" font-weight="normal" text-decoration="none" x="319.5" y="619.5">-customerManager</text></g></g><g transform="translate(-158,-86) scale(1,1)"><g><path fill="none" stroke="none"/><text fill="#000000" stroke="none" font-family="Arial" font-size="13px" font-style="normal" font-weight="normal" text-decoration="none" x="295.5" y="620.5">1</text></g></g><g transform="translate(-158,-86) scale(1,1)"><rect fill="#C0C0C0" stroke="none" x="711" y="647" width="80.552734375" height="33" opacity="0.2"/></g><g transform="translate(-158,-86) scale(1,1)"><rect fill="#ffffcd" stroke="none" x="704" y="640" width="80.552734375" height="33"/></g><g transform="translate(-158,-86) scale(1,1)"><path fill="none" stroke="#000000" d="M 704 640 L 784.552734375 640 L 784.552734375 673 L 704 673 L 704 640 Z Z" stroke-miterlimit="10"/></g><g transform="translate(-158,-86) scale(1,1)"><path fill="#ffffcd" stroke="none" d="M 758.552734375 657 C 758.552734375 652.0294368 762.582171175 648 767.552734375 648 C 772.523297575 648 776.552734375 652.0294368 776.552734375 657 C 776.552734375 661.9705632 772.523297575 666 767.552734375 666 C 762.582171175 666 758.552734375 661.9705632 758.552734375 657 Z"/></g><g transform="translate(-158,-86) scale(1,1)"><path fill="none" stroke="#000000" d="M 758.552734375 657 C 758.552734375 652.0294368 762.582171175 648 767.552734375 648 C 772.523297575 648 776.552734375 652.0294368 776.552734375 657 C 776.552734375 661.9705632 772.523297575 666 767.552734375 666 C 762.582171175 666 758.552734375 661.9705632 758.552734375 657 Z" stroke-miterlimit="10"/></g><g transform="translate(-158,-86) scale(1,1)"><g><path fill="none" stroke="none"/><text fill="#000000" stroke="none" font-family="Arial" font-size="13px" font-style="normal" font-weight="bold" text-decoration="none" x="714.57275390625" y="659.5">Model</text></g></g><g transform="translate(-158,-86) scale(1,1)"><rect fill="#C0C0C0" stroke="none" x="295" y="935" width="176" height="40" opacity="0.2"/></g><g transform="translate(-158,-86) scale(1,1)"><rect fill="#d8e1f8" stroke="none" x="288" y="928" width="176" height="40"/></g><g transform="translate(-158,-86) scale(1,1)"><path fill="none" stroke="#000000" d="M 288 928 L 464 928 L 464 968 L 288 968 L 288 928 Z Z" stroke-miterlimit="10"/></g><g transform="translate(-158,-86) scale(1,1)"><g><path fill="none" stroke="none"/><text fill="#000000" stroke="none" font-family="Arial" font-size="13px" font-style="normal" font-weight="bold" text-decoration="none" x="358.299560546875" y="947.5">Match</text></g></g><g transform="translate(-158,-86) scale(1,1)"><rect fill="#C0C0C0" stroke="none" x="919" y="607" width="73.60000000000002" height="15" opacity="0.2"/></g><g transform="translate(-158,-86) scale(1,1)"><rect fill="#C0C0C0" stroke="none" x="919" y="621" width="184" height="90" opacity="0.2"/></g><g transform="translate(-158,-86) scale(1,1)"><rect fill="#fff2e4" stroke="none" x="912" y="615" width="184" height="89"/></g><g transform="translate(-158,-86) scale(1,1)"><path fill="none" stroke="#000000" d="M 912 615 L 1096 615 L 1096 704 L 912 704 L 912 615 Z Z" stroke-miterlimit="10"/></g><g transform="translate(-158,-86) scale(1,1)"><rect fill="#fff2e4" stroke="none" x="912" y="600" width="73.60000000000002" height="15"/></g><g transform="translate(-158,-86) scale(1,1)"><path fill="none" stroke="#000000" d="M 912 600 L 985.6 600 L 985.6 615 L 912 615 L 912 600 Z Z" stroke-miterlimit="10"/></g><g transform="translate(-158,-86) scale(1,1)"><rect fill="#fff2e4" stroke="none" x="912" y="614" width="184" height="90"/></g><g transform="translate(-158,-86) scale(1,1)"><path fill="none" stroke="#000000" d="M 912 614 L 1096 614 L 1096 704 L 912 704 L 912 614 Z Z" stroke-miterlimit="10"/></g><g transform="translate(-158,-86) scale(1,1)"><g><path fill="none" stroke="none"/><text fill="#000000" stroke="none" font-family="Arial" font-size="13px" font-style="normal" font-weight="bold" text-decoration="none" x="970.760498046875" y="634.5">JavaMoney</text></g></g><g transform="translate(-158,-86) scale(1,1)"><rect fill="#C0C0C0" stroke="none" x="983" y="655" width="55" height="32" opacity="0.2"/></g><g transform="translate(-158,-86) scale(1,1)"><rect fill="#d8e1f8" stroke="none" x="976" y="648" width="55" height="32"/></g><g transform="translate(-158,-86) scale(1,1)"><path fill="none" stroke="#000000" d="M 976 648 L 1031 648 L 1031 680 L 976 680 L 976 648 Z Z" stroke-miterlimit="10"/></g><g transform="translate(-158,-86) scale(1,1)"><g><path fill="none" stroke="none"/><text fill="#000000" stroke="none" font-family="Arial" font-size="13px" font-style="normal" font-weight="bold" text-decoration="none" x="983.990478515625" y="667.5">Money</text></g></g><g transform="translate(-158,-86) scale(1,1)"><rect fill="#C0C0C0" stroke="none" x="919" y="751" width="73.60000000000002" height="15" opacity="0.2"/></g><g transform="translate(-158,-86) scale(1,1)"><rect fill="#C0C0C0" stroke="none" x="919" y="765" width="184" height="106" opacity="0.2"/></g><g transform="translate(-158,-86) scale(1,1)"><rect fill="#fff2e4" stroke="none" x="912" y="759" width="184" height="105"/></g><g transform="translate(-158,-86) scale(1,1)"><path fill="none" stroke="#000000" d="M 912 759 L 1096 759 L 1096 864 L 912 864 L 912 759 Z Z" stroke-miterlimit="10"/></g><g transform="translate(-158,-86) scale(1,1)"><rect fill="#fff2e4" stroke="none" x="912" y="744" width="73.60000000000002" height="15"/></g><g transform="translate(-158,-86) scale(1,1)"><path fill="none" stroke="#000000" d="M 912 744 L 985.6 744 L 985.6 759 L 912 759 L 912 744 Z Z" stroke-miterlimit="10"/></g><g transform="translate(-158,-86) scale(1,1)"><rect fill="#fff2e4" stroke="none" x="912" y="758" width="184" height="106"/></g><g transform="translate(-158,-86) scale(1,1)"><path fill="none" stroke="#000000" d="M 912 758 L 1096 758 L 1096 864 L 912 864 L 912 758 Z Z" stroke-miterlimit="10"/></g><g transform="translate(-158,-86) scale(1,1)"><g><path fill="none" stroke="none"/><text fill="#000000" stroke="none" font-family="Arial" font-size="13px" font-style="normal" font-weight="bold" text-decoration="none" x="989.797119140625" y="778.5">Time</text></g></g><g transform="translate(-158,-86) scale(1,1)"><rect fill="#C0C0C0" stroke="none" x="959" y="807" width="101.23779296875" height="32" opacity="0.2"/></g><g transform="translate(-158,-86) scale(1,1)"><rect fill="#d8e1f8" stroke="none" x="952" y="800" width="101.23779296875" height="32"/></g><g transform="translate(-158,-86) scale(1,1)"><path fill="none" stroke="#000000" d="M 952 800 L 1053.23779296875 800 L 1053.23779296875 832 L 952 832 L 952 800 Z Z" stroke-miterlimit="10"/></g><g transform="translate(-158,-86) scale(1,1)"><g><path fill="none" stroke="none"/><text fill="#000000" stroke="none" font-family="Arial" font-size="13px" font-style="normal" font-weight="bold" text-decoration="none" x="959.14697265625" y="819.5">LocalDateTime</text></g></g><g transform="translate(-158,-86) scale(1,1)"><rect fill="#C0C0C0" stroke="none" x="655" y="903" width="73.60000000000002" height="15" opacity="0.2"/></g><g transform="translate(-158,-86) scale(1,1)"><rect fill="#C0C0C0" stroke="none" x="655" y="917" width="184" height="122" opacity="0.2"/></g><g transform="translate(-158,-86) scale(1,1)"><rect fill="#fff2e4" stroke="none" x="648" y="911" width="184" height="121"/></g><g transform="translate(-158,-86) scale(1,1)"><path fill="none" stroke="#000000" d="M 648 911 L 832 911 L 832 1032 L 648 1032 L 648 911 Z Z" stroke-miterlimit="10"/></g><g transform="translate(-158,-86) scale(1,1)"><rect fill="#fff2e4" stroke="none" x="648" y="896" width="73.60000000000002" height="15"/></g><g transform="translate(-158,-86) scale(1,1)"><path fill="none" stroke="#000000" d="M 648 896 L 721.6 896 L 721.6 911 L 648 911 L 648 896 Z Z" stroke-miterlimit="10"/></g><g transform="translate(-158,-86) scale(1,1)"><rect fill="#fff2e4" stroke="none" x="648" y="910" width="184" height="122"/></g><g transform="translate(-158,-86) scale(1,1)"><path fill="none" stroke="#000000" d="M 648 910 L 832 910 L 832 1032 L 648 1032 L 648 910 Z Z" stroke-miterlimit="10"/></g><g transform="translate(-158,-86) scale(1,1)"><g><path fill="none" stroke="none"/><text fill="#000000" stroke="none" font-family="Arial" font-size="13px" font-style="normal" font-weight="bold" text-decoration="none" x="687.628662109375" y="930.5">kickstart.customer</text></g></g><g transform="translate(-158,-86) scale(1,1)"><rect fill="#C0C0C0" stroke="none" x="671" y="967" width="147.736328125" height="33" opacity="0.2"/></g><g transform="translate(-158,-86) scale(1,1)"><rect fill="#ffffcd" stroke="none" x="664" y="960" width="147.736328125" height="33"/></g><g transform="translate(-158,-86) scale(1,1)"><path fill="none" stroke="#000000" d="M 664 960 L 811.736328125 960 L 811.736328125 993 L 664 993 L 664 960 Z Z" stroke-miterlimit="10"/></g><g transform="translate(-158,-86) scale(1,1)"><path fill="#ffffcd" stroke="none" d="M 785.736328125 977 C 785.736328125 972.0294368 789.765764925 968 794.736328125 968 C 799.706891325 968 803.736328125 972.0294368 803.736328125 977 C 803.736328125 981.9705632 799.706891325 986 794.736328125 986 C 789.765764925 986 785.736328125 981.9705632 785.736328125 977 Z"/></g><g transform="translate(-158,-86) scale(1,1)"><path fill="none" stroke="#000000" d="M 785.736328125 977 C 785.736328125 972.0294368 789.765764925 968 794.736328125 968 C 799.706891325 968 803.736328125 972.0294368 803.736328125 977 C 803.736328125 981.9705632 799.706891325 986 794.736328125 986 C 789.765764925 986 785.736328125 981.9705632 785.736328125 977 Z" stroke-miterlimit="10"/></g><g transform="translate(-158,-86) scale(1,1)"><g><path fill="none" stroke="none"/><text fill="#000000" stroke="none" font-family="Arial" font-size="13px" font-style="normal" font-weight="bold" text-decoration="none" x="677.82275390625" y="979.5">LotteryCustomer</text></g></g><g transform="translate(-158,-86) scale(1,1)"><rect fill="#C0C0C0" stroke="none" x="679" y="807" width="134.72998046875" height="33" opacity="0.2"/></g><g transform="translate(-158,-86) scale(1,1)"><rect fill="#ffffcd" stroke="none" x="672" y="800" width="134.72998046875" height="33"/></g><g transform="translate(-158,-86) scale(1,1)"><path fill="none" stroke="#000000" d="M 672 800 L 806.72998046875 800 L 806.72998046875 833 L 672 833 L 672 800 Z Z" stroke-miterlimit="10"/></g><g transform="translate(-158,-86) scale(1,1)"><path fill="#ffffcd" stroke="none" d="M 780.72998046875 817 C 780.72998046875 812.0294368 784.75941726875 808 789.72998046875 808 C 794.70054366875 808 798.72998046875 812.0294368 798.72998046875 817 C 798.72998046875 821.9705632 794.70054366875 826 789.72998046875 826 C 784.75941726875 826 780.72998046875 821.9705632 780.72998046875 817 Z"/></g><g transform="translate(-158,-86) scale(1,1)"><path fill="none" stroke="#000000" d="M 780.72998046875 817 C 780.72998046875 812.0294368 784.75941726875 808 789.72998046875 808 C 794.70054366875 808 798.72998046875 812.0294368 798.72998046875 817 C 798.72998046875 821.9705632 794.70054366875 826 789.72998046875 826 C 784.75941726875 826 780.72998046875 821.9705632 780.72998046875 817 Z" stroke-miterlimit="10"/></g><g transform="translate(-158,-86) scale(1,1)"><g><path fill="none" stroke="none"/><text fill="#000000" stroke="none" font-family="Arial" font-size="13px" font-style="normal" font-weight="bold" text-decoration="none" x="685.089599609375" y="819.5">LotteryCatalog</text></g></g><g transform="translate(-158,-86) scale(1,1)"><path fill="none" stroke="#000000" d="M 630 406 L 630 664 L 704 664" stroke-miterlimit="10"/></g><g transform="translate(-158,-86) scale(1,1)"><g><path fill="none" stroke="none"/><text fill="#000000" stroke="none" font-family="Arial" font-size="13px" font-style="normal" font-weight="normal" text-decoration="none" x="641.13134765625" y="659.5">-&lt;&lt;uses&gt;&gt;</text></g></g><g transform="translate(-158,-86) scale(1,1)"><path fill="none" stroke="#000000" d="M 611 406 L 611 816 L 672 816" stroke-miterlimit="10"/></g><g transform="translate(-158,-86) scale(1,1)"><path fill="none" stroke="#000000" d="M 661.8373251423759 820.209517756016 L 672 816 L 661.8373251423758 811.790482243984" stroke-miterlimit="10"/></g><g transform="translate(-158,-86) scale(1,1)"><path fill="none" stroke="#000000" d="M 589 406 L 589 976 L 664 976" stroke-miterlimit="10"/></g><g transform="translate(-158,-86) scale(1,1)"><path fill="none" stroke="#000000" d="M 653.8373251423759 980.209517756016 L 664 976 L 653.8373251423758 971.790482243984" stroke-miterlimit="10"/></g><g transform="translate(-158,-86) scale(1,1)"><path fill="none" stroke="#000000" d="M 1106 384 L 1152 384 L 1152 663 L 1031 663" stroke-miterlimit="10" stroke-dasharray="3"/></g><g transform="translate(-158,-86) scale(1,1)"><path fill="none" stroke="#000000" d="M 1041.162674857624 658.790482243984 L 1031 663 L 1041.162674857624 667.209517756016" stroke-miterlimit="10"/></g><g transform="translate(-158,-86) scale(1,1)"><path fill="none" stroke="#000000" d="M 1106 328 L 1192 328 L 1192 816 L 1053 816" stroke-miterlimit="10" stroke-dasharray="3"/></g><g transform="translate(-158,-86) scale(1,1)"><path fill="none" stroke="#000000" d="M 1063.162674857624 811.790482243984 L 1053 816 L 1063.162674857624 820.209517756016" stroke-miterlimit="10"/></g><g transform="translate(-158,-86) scale(1,1)"><path fill="none" stroke="#000000" d="M 272 406 L 272 752 L 288 752" stroke-miterlimit="10" stroke-dasharray="3"/></g><g transform="translate(-158,-86) scale(1,1)"><path fill="none" stroke="#000000" d="M 277.83732514237585 756.209517756016 L 288 752 L 277.83732514237585 747.790482243984" stroke-miterlimit="10"/></g><g transform="translate(-158,-86) scale(1,1)"><path fill="none" stroke="#000000" d="M 256 406 L 256 820 L 288 820" stroke-miterlimit="10" stroke-dasharray="3"/></g><g transform="translate(-158,-86) scale(1,1)"><path fill="none" stroke="#000000" d="M 277.83732514237585 824.209517756016 L 288 820 L 277.83732514237585 815.790482243984" stroke-miterlimit="10"/></g><g transform="translate(-158,-86) scale(1,1)"><path fill="none" stroke="#000000" d="M 240 406 L 240 884 L 288 884" stroke-miterlimit="10" stroke-dasharray="3"/></g><g transform="translate(-158,-86) scale(1,1)"><path fill="none" stroke="#000000" d="M 277.83732514237585 888.209517756016 L 288 884 L 277.83732514237585 879.790482243984" stroke-miterlimit="10"/></g><g transform="translate(-158,-86) scale(1,1)"><path fill="none" stroke="#000000" d="M 224 406 L 224 948 L 288 948" stroke-miterlimit="10" stroke-dasharray="3"/></g><g transform="translate(-158,-86) scale(1,1)"><path fill="none" stroke="#000000" d="M 277.83732514237585 952.209517756016 L 288 948 L 277.83732514237585 943.790482243984" stroke-miterlimit="10"/></g><g transform="translate(-158,-86) scale(1,1)"><path fill="none" stroke="#000000" d="M 208 406 L 208 1012 L 288 1012" stroke-miterlimit="10" stroke-dasharray="3"/></g><g transform="translate(-158,-86) scale(1,1)"><path fill="none" stroke="#000000" d="M 277.83732514237585 1016.209517756016 L 288 1012 L 277.83732514237585 1007.790482243984" stroke-miterlimit="10"/></g></g></svg>