<svg version="1.1" xmlns="http://www.w3.org/2000/svg" xmlns:xlink="http://www.w3.org/1999/xlink" width="1012" height="692"><defs/><g><g transform="translate(-414,-302) scale(1,1)"><rect fill="#C0C0C0" stroke="none" x="519" y="319" width="268.79999999999995" height="15" opacity="0.2"/></g><g transform="translate(-414,-302) scale(1,1)"><rect fill="#C0C0C0" stroke="none" x="519" y="333" width="672" height="362" opacity="0.2"/></g><g transform="translate(-414,-302) scale(1,1)"><rect fill="#fff2e4" stroke="none" x="512" y="327" width="672" height="361"/></g><g transform="translate(-414,-302) scale(1,1)"><path fill="none" stroke="#000000" d="M 512 327 L 1184 327 L 1184 688 L 512 688 L 512 327 Z Z" stroke-miterlimit="10"/></g><g transform="translate(-414,-302) scale(1,1)"><rect fill="#fff2e4" stroke="none" x="512" y="312" width="268.79999999999995" height="15"/></g><g transform="translate(-414,-302) scale(1,1)"><path fill="none" stroke="#000000" d="M 512 312 L 780.8 312 L 780.8 327 L 512 327 L 512 312 Z Z" stroke-miterlimit="10"/></g><g transform="translate(-414,-302) scale(1,1)"><rect fill="#fff2e4" stroke="none" x="512" y="326" width="672" height="362"/></g><g transform="translate(-414,-302) scale(1,1)"><path fill="none" stroke="#000000" d="M 512 326 L 1184 326 L 1184 688 L 512 688 L 512 326 Z Z" stroke-miterlimit="10"/></g><g transform="translate(-414,-302) scale(1,1)"><g><path fill="none" stroke="none"/><text fill="#000000" stroke="none" font-family="Arial" font-size="13px" font-style="normal" font-weight="bold" text-decoration="none" x="788.763671875" y="346.5">kickstart.lotteryresult</text></g></g><g transform="translate(-414,-302) scale(1,1)"><rect fill="#C0C0C0" stroke="none" x="559" y="359" width="201.55615234375" height="145" opacity="0.2"/></g><g transform="translate(-414,-302) scale(1,1)"><rect fill="#d8e1f8" stroke="none" x="552" y="352" width="201.55615234375" height="145"/></g><g transform="translate(-414,-302) scale(1,1)"><path fill="none" stroke="#000000" d="M 552 352 L 753.55615234375 352 L 753.55615234375 497 L 552 497 L 552 352 Z Z" stroke-miterlimit="10"/></g><g transform="translate(-414,-302) scale(1,1)"><path fill="none" stroke="#000000" d="M 552 377 L 753.55615234375 377" stroke-miterlimit="10"/></g><g transform="translate(-414,-302) scale(1,1)"><path fill="none" stroke="#000000" d="M 552 415 L 753.55615234375 415" stroke-miterlimit="10"/></g><g transform="translate(-414,-302) scale(1,1)"><g><path fill="none" stroke="none"/><text fill="#000000" stroke="none" font-family="Arial" font-size="13px" font-style="normal" font-weight="bold" text-decoration="none" x="609.78857421875" y="371.5">NumberLottery</text></g></g><g transform="translate(-414,-302) scale(1,1)"><g><path fill="none" stroke="none"/><text fill="#000000" stroke="none" font-family="Arial" font-size="13px" font-style="normal" font-weight="normal" text-decoration="none" x="557" y="394.5">-winNumbers: List&lt;Integer&gt;</text></g></g><g transform="translate(-414,-302) scale(1,1)"><g><path fill="none" stroke="none"/><text fill="#000000" stroke="none" font-family="Arial" font-size="13px" font-style="normal" font-weight="normal" text-decoration="none" x="557" y="409.5">-additionalN: int</text></g></g><g transform="translate(-414,-302) scale(1,1)"><g><path fill="none" stroke="none"/><text fill="#000000" stroke="none" font-family="Arial" font-size="13px" font-style="normal" font-weight="normal" text-decoration="none" x="557" y="432.5">+NumberLottery()</text></g></g><g transform="translate(-414,-302) scale(1,1)"><g><path fill="none" stroke="none"/><text fill="#000000" stroke="none" font-family="Arial" font-size="13px" font-style="normal" font-weight="normal" text-decoration="none" x="557" y="447.5">+generate_nums(): List&lt;Integer&gt;</text></g></g><g transform="translate(-414,-302) scale(1,1)"><g><path fill="none" stroke="none"/><text fill="#000000" stroke="none" font-family="Arial" font-size="13px" font-style="normal" font-weight="normal" text-decoration="none" x="557" y="462.5">+generateAdditionalNumber(): int</text></g></g><g transform="translate(-414,-302) scale(1,1)"><g><path fill="none" stroke="none"/><text fill="#000000" stroke="none" font-family="Arial" font-size="13px" font-style="normal" font-weight="normal" text-decoration="none" x="557" y="477.5">+getWinNumbers(): List&lt;Integer&gt;</text></g></g><g transform="translate(-414,-302) scale(1,1)"><g><path fill="none" stroke="none"/><text fill="#000000" stroke="none" font-family="Arial" font-size="13px" font-style="normal" font-weight="normal" text-decoration="none" x="557" y="492.5">+getAdditionalN(): int</text></g></g><g transform="translate(-414,-302) scale(1,1)"><rect fill="#C0C0C0" stroke="none" x="559" y="567" width="556.5869140625" height="92" opacity="0.2"/></g><g transform="translate(-414,-302) scale(1,1)"><rect fill="#d8e1f8" stroke="none" x="552" y="560" width="556.5869140625" height="92"/></g><g transform="translate(-414,-302) scale(1,1)"><path fill="none" stroke="#000000" d="M 552 560 L 1108.5869140625 560 L 1108.5869140625 652 L 552 652 L 552 560 Z Z" stroke-miterlimit="10"/></g><g transform="translate(-414,-302) scale(1,1)"><path fill="none" stroke="#000000" d="M 552 585 L 1108.5869140625 585" stroke-miterlimit="10"/></g><g transform="translate(-414,-302) scale(1,1)"><g><path fill="none" stroke="none"/><text fill="#000000" stroke="none" font-family="Arial" font-size="13px" font-style="normal" font-weight="bold" text-decoration="none" x="783.692138671875" y="579.5">ResultController</text></g></g><g transform="translate(-414,-302) scale(1,1)"><g><path fill="none" stroke="none"/><text fill="#000000" stroke="none" font-family="Arial" font-size="13px" font-style="normal" font-weight="normal" text-decoration="none" x="557" y="602.5">+ResultController(lotteryCatalog: LotteryCatalog, customerRepository: CustomerRepository)</text></g></g><g transform="translate(-414,-302) scale(1,1)"><g><path fill="none" stroke="none"/><text fill="#000000" stroke="none" font-family="Arial" font-size="13px" font-style="normal" font-weight="normal" text-decoration="none" x="557" y="617.5">+evalNumberBets(id: ProductIdentifier): String</text></g></g><g transform="translate(-414,-302) scale(1,1)"><g><path fill="none" stroke="none"/><text fill="#000000" stroke="none" font-family="Arial" font-size="13px" font-style="normal" font-weight="normal" text-decoration="none" x="557" y="632.5">+evaluateNum(t: Ticket, today: LocalDate, winNumbers: List&lt;Integer&gt;, additionalNum: int): void</text></g></g><g transform="translate(-414,-302) scale(1,1)"><g><path fill="none" stroke="none"/><text fill="#000000" stroke="none" font-family="Arial" font-size="13px" font-style="normal" font-weight="normal" text-decoration="none" x="557" y="647.5">+evalFootballBets(id: ProductIdentifier, number: int)</text></g></g><g transform="translate(-414,-302) scale(1,1)"><rect fill="#C0C0C0" stroke="none" x="615" y="775" width="64" height="15" opacity="0.2"/></g><g transform="translate(-414,-302) scale(1,1)"><rect fill="#C0C0C0" stroke="none" x="615" y="789" width="160" height="122" opacity="0.2"/></g><g transform="translate(-414,-302) scale(1,1)"><rect fill="#fff2e4" stroke="none" x="608" y="783" width="160" height="121"/></g><g transform="translate(-414,-302) scale(1,1)"><path fill="none" stroke="#000000" d="M 608 783 L 768 783 L 768 904 L 608 904 L 608 783 Z Z" stroke-miterlimit="10"/></g><g transform="translate(-414,-302) scale(1,1)"><rect fill="#fff2e4" stroke="none" x="608" y="768" width="64" height="15"/></g><g transform="translate(-414,-302) scale(1,1)"><path fill="none" stroke="#000000" d="M 608 768 L 672 768 L 672 783 L 608 783 L 608 768 Z Z" stroke-miterlimit="10"/></g><g transform="translate(-414,-302) scale(1,1)"><rect fill="#fff2e4" stroke="none" x="608" y="782" width="160" height="122"/></g><g transform="translate(-414,-302) scale(1,1)"><path fill="none" stroke="#000000" d="M 608 782 L 768 782 L 768 904 L 608 904 L 608 782 Z Z" stroke-miterlimit="10"/></g><g transform="translate(-414,-302) scale(1,1)"><g><path fill="none" stroke="none"/><text fill="#000000" stroke="none" font-family="Arial" font-size="13px" font-style="normal" font-weight="bold" text-decoration="none" x="648.01611328125" y="802.5">lottery.catalog</text></g></g><g transform="translate(-414,-302) scale(1,1)"><rect fill="#C0C0C0" stroke="none" x="855" y="815" width="73.60000000000002" height="15" opacity="0.2"/></g><g transform="translate(-414,-302) scale(1,1)"><rect fill="#C0C0C0" stroke="none" x="855" y="829" width="184" height="130" opacity="0.2"/></g><g transform="translate(-414,-302) scale(1,1)"><rect fill="#fff2e4" stroke="none" x="848" y="823" width="184" height="129"/></g><g transform="translate(-414,-302) scale(1,1)"><path fill="none" stroke="#000000" d="M 848 823 L 1032 823 L 1032 952 L 848 952 L 848 823 Z Z" stroke-miterlimit="10"/></g><g transform="translate(-414,-302) scale(1,1)"><rect fill="#fff2e4" stroke="none" x="848" y="808" width="73.60000000000002" height="15"/></g><g transform="translate(-414,-302) scale(1,1)"><path fill="none" stroke="#000000" d="M 848 808 L 921.6 808 L 921.6 823 L 848 823 L 848 808 Z Z" stroke-miterlimit="10"/></g><g transform="translate(-414,-302) scale(1,1)"><rect fill="#fff2e4" stroke="none" x="848" y="822" width="184" height="130"/></g><g transform="translate(-414,-302) scale(1,1)"><path fill="none" stroke="#000000" d="M 848 822 L 1032 822 L 1032 952 L 848 952 L 848 822 Z Z" stroke-miterlimit="10"/></g><g transform="translate(-414,-302) scale(1,1)"><g><path fill="none" stroke="none"/><text fill="#000000" stroke="none" font-family="Arial" font-size="13px" font-style="normal" font-weight="bold" text-decoration="none" x="894.24609375" y="842.5">lottery.customer</text></g></g><g transform="translate(-414,-302) scale(1,1)"><rect fill="#C0C0C0" stroke="none" x="639" y="855" width="100.72998046875" height="24" opacity="0.2"/></g><g transform="translate(-414,-302) scale(1,1)"><rect fill="#d8e1f8" stroke="none" x="632" y="848" width="100.72998046875" height="24"/></g><g transform="translate(-414,-302) scale(1,1)"><path fill="none" stroke="#000000" d="M 632 848 L 732.72998046875 848 L 732.72998046875 872 L 632 872 L 632 848 Z Z" stroke-miterlimit="10"/></g><g transform="translate(-414,-302) scale(1,1)"><g><path fill="none" stroke="none"/><text fill="#000000" stroke="none" font-family="Arial" font-size="13px" font-style="normal" font-weight="bold" text-decoration="none" x="640.089599609375" y="867.5">LotteryCatalog</text></g></g><g transform="translate(-414,-302) scale(1,1)"><rect fill="#C0C0C0" stroke="none" x="1087" y="823" width="64" height="15" opacity="0.2"/></g><g transform="translate(-414,-302) scale(1,1)"><rect fill="#C0C0C0" stroke="none" x="1087" y="837" width="160" height="154" opacity="0.2"/></g><g transform="translate(-414,-302) scale(1,1)"><rect fill="#fff2e4" stroke="none" x="1080" y="831" width="160" height="153"/></g><g transform="translate(-414,-302) scale(1,1)"><path fill="none" stroke="#000000" d="M 1080 831 L 1240 831 L 1240 984 L 1080 984 L 1080 831 Z Z" stroke-miterlimit="10"/></g><g transform="translate(-414,-302) scale(1,1)"><rect fill="#fff2e4" stroke="none" x="1080" y="816" width="64" height="15"/></g><g transform="translate(-414,-302) scale(1,1)"><path fill="none" stroke="#000000" d="M 1080 816 L 1144 816 L 1144 831 L 1080 831 L 1080 816 Z Z" stroke-miterlimit="10"/></g><g transform="translate(-414,-302) scale(1,1)"><rect fill="#fff2e4" stroke="none" x="1080" y="830" width="160" height="154"/></g><g transform="translate(-414,-302) scale(1,1)"><path fill="none" stroke="#000000" d="M 1080 830 L 1240 830 L 1240 984 L 1080 984 L 1080 830 Z Z" stroke-miterlimit="10"/></g><g transform="translate(-414,-302) scale(1,1)"><g><path fill="none" stroke="none"/><text fill="#000000" stroke="none" font-family="Arial" font-size="13px" font-style="normal" font-weight="bold" text-decoration="none" x="1145.797119140625" y="850.5">Time</text></g></g><g transform="translate(-414,-302) scale(1,1)"><rect fill="#C0C0C0" stroke="none" x="1119" y="879" width="101.23779296875" height="24" opacity="0.2"/></g><g transform="translate(-414,-302) scale(1,1)"><rect fill="#d8e1f8" stroke="none" x="1112" y="872" width="101.23779296875" height="24"/></g><g transform="translate(-414,-302) scale(1,1)"><path fill="none" stroke="#000000" d="M 1112 872 L 1213.23779296875 872 L 1213.23779296875 896 L 1112 896 L 1112 872 Z Z" stroke-miterlimit="10"/></g><g transform="translate(-414,-302) scale(1,1)"><g><path fill="none" stroke="none"/><text fill="#000000" stroke="none" font-family="Arial" font-size="13px" font-style="normal" font-weight="bold" text-decoration="none" x="1133.349853515625" y="891.5">LocalDate</text></g></g><g transform="translate(-414,-302) scale(1,1)"><rect fill="#C0C0C0" stroke="none" x="1119" y="943" width="101.23779296875" height="24" opacity="0.2"/></g><g transform="translate(-414,-302) scale(1,1)"><rect fill="#d8e1f8" stroke="none" x="1112" y="936" width="101.23779296875" height="24"/></g><g transform="translate(-414,-302) scale(1,1)"><path fill="none" stroke="#000000" d="M 1112 936 L 1213.23779296875 936 L 1213.23779296875 960 L 1112 960 L 1112 936 Z Z" stroke-miterlimit="10"/></g><g transform="translate(-414,-302) scale(1,1)"><g><path fill="none" stroke="none"/><text fill="#000000" stroke="none" font-family="Arial" font-size="13px" font-style="normal" font-weight="bold" text-decoration="none" x="1119.14697265625" y="955.5">LocalDateTime</text></g></g><g transform="translate(-414,-302) scale(1,1)"><rect fill="#C0C0C0" stroke="none" x="1279" y="863" width="57.59999999999991" height="15" opacity="0.2"/></g><g transform="translate(-414,-302) scale(1,1)"><rect fill="#C0C0C0" stroke="none" x="1279" y="877" width="144" height="106" opacity="0.2"/></g><g transform="translate(-414,-302) scale(1,1)"><rect fill="#fff2e4" stroke="none" x="1272" y="871" width="144" height="105"/></g><g transform="translate(-414,-302) scale(1,1)"><path fill="none" stroke="#000000" d="M 1272 871 L 1416 871 L 1416 976 L 1272 976 L 1272 871 Z Z" stroke-miterlimit="10"/></g><g transform="translate(-414,-302) scale(1,1)"><rect fill="#fff2e4" stroke="none" x="1272" y="856" width="57.59999999999991" height="15"/></g><g transform="translate(-414,-302) scale(1,1)"><path fill="none" stroke="#000000" d="M 1272 856 L 1329.6 856 L 1329.6 871 L 1272 871 L 1272 856 Z Z" stroke-miterlimit="10"/></g><g transform="translate(-414,-302) scale(1,1)"><rect fill="#fff2e4" stroke="none" x="1272" y="870" width="144" height="106"/></g><g transform="translate(-414,-302) scale(1,1)"><path fill="none" stroke="#000000" d="M 1272 870 L 1416 870 L 1416 976 L 1272 976 L 1272 870 Z Z" stroke-miterlimit="10"/></g><g transform="translate(-414,-302) scale(1,1)"><g><path fill="none" stroke="none"/><text fill="#000000" stroke="none" font-family="Arial" font-size="13px" font-style="normal" font-weight="bold" text-decoration="none" x="1310.760498046875" y="890.5">JavaMoney</text></g></g><g transform="translate(-414,-302) scale(1,1)"><path fill="none" stroke="#000000" d="M 656 652 L 656 848" stroke-miterlimit="10"/></g><g transform="translate(-414,-302) scale(1,1)"><path fill="none" stroke="#000000" d="M 651.790482243984 837.8373251423759 L 656 848 L 660.209517756016 837.8373251423759" stroke-miterlimit="10"/></g><g transform="translate(-414,-302) scale(1,1)"><g><path fill="none" stroke="none"/><text fill="#000000" stroke="none" font-family="Arial" font-size="13px" font-style="normal" font-weight="normal" text-decoration="none" x="665.13134765625" y="836.5">-lotteryCatalog</text></g></g><g transform="translate(-414,-302) scale(1,1)"><g><path fill="none" stroke="none"/><text fill="#000000" stroke="none" font-family="Arial" font-size="13px" font-style="normal" font-weight="normal" text-decoration="none" x="639.5" y="841.5">1</text></g></g><g transform="translate(-414,-302) scale(1,1)"><path fill="none" stroke="#000000" d="M 880 652 L 880 888" stroke-miterlimit="10"/></g><g transform="translate(-414,-302) scale(1,1)"><path fill="none" stroke="#000000" d="M 875.790482243984 877.8373251423759 L 880 888 L 884.209517756016 877.8373251423759" stroke-miterlimit="10"/></g><g transform="translate(-414,-302) scale(1,1)"><g><path fill="none" stroke="none"/><text fill="#000000" stroke="none" font-family="Arial" font-size="13px" font-style="normal" font-weight="normal" text-decoration="none" x="888.13134765625" y="875.5">-customerRepository</text></g></g><g transform="translate(-414,-302) scale(1,1)"><g><path fill="none" stroke="none"/><text fill="#000000" stroke="none" font-family="Arial" font-size="13px" font-style="normal" font-weight="normal" text-decoration="none" x="863.5" y="881.5">1</text></g></g><g transform="translate(-414,-302) scale(1,1)"><rect fill="#C0C0C0" stroke="none" x="879" y="895" width="137.578125" height="32" opacity="0.2"/></g><g transform="translate(-414,-302) scale(1,1)"><rect fill="#d8e1f8" stroke="none" x="872" y="888" width="137.578125" height="32"/></g><g transform="translate(-414,-302) scale(1,1)"><path fill="none" stroke="#000000" d="M 872 888 L 1009.578125 888 L 1009.578125 920 L 872 920 L 872 888 Z Z" stroke-miterlimit="10"/></g><g transform="translate(-414,-302) scale(1,1)"><g><path fill="none" stroke="none"/><text fill="#000000" stroke="none" font-family="Arial" font-size="13px" font-style="normal" font-weight="bold" text-decoration="none" x="881.54638671875" y="907.5">CustomerRepository</text></g></g><g transform="translate(-414,-302) scale(1,1)"><rect fill="#C0C0C0" stroke="none" x="1319" y="919" width="50.919921875" height="24" opacity="0.2"/></g><g transform="translate(-414,-302) scale(1,1)"><rect fill="#d8e1f8" stroke="none" x="1312" y="912" width="50.919921875" height="24"/></g><g transform="translate(-414,-302) scale(1,1)"><path fill="none" stroke="#000000" d="M 1312 912 L 1362.919921875 912 L 1362.919921875 936 L 1312 936 L 1312 912 Z Z" stroke-miterlimit="10"/></g><g transform="translate(-414,-302) scale(1,1)"><g><path fill="none" stroke="none"/><text fill="#000000" stroke="none" font-family="Arial" font-size="13px" font-style="normal" font-weight="bold" text-decoration="none" x="1317.950439453125" y="931.5">Money</text></g></g><g transform="translate(-414,-302) scale(1,1)"><rect fill="#C0C0C0" stroke="none" x="447" y="791" width="44.80000000000001" height="15" opacity="0.2"/></g><g transform="translate(-414,-302) scale(1,1)"><rect fill="#C0C0C0" stroke="none" x="447" y="805" width="112" height="106" opacity="0.2"/></g><g transform="translate(-414,-302) scale(1,1)"><rect fill="#fff2e4" stroke="none" x="440" y="799" width="112" height="105"/></g><g transform="translate(-414,-302) scale(1,1)"><path fill="none" stroke="#000000" d="M 440 799 L 552 799 L 552 904 L 440 904 L 440 799 Z Z" stroke-miterlimit="10"/></g><g transform="translate(-414,-302) scale(1,1)"><rect fill="#fff2e4" stroke="none" x="440" y="784" width="44.80000000000001" height="15"/></g><g transform="translate(-414,-302) scale(1,1)"><path fill="none" stroke="#000000" d="M 440 784 L 484.8 784 L 484.8 799 L 440 799 L 440 784 Z Z" stroke-miterlimit="10"/></g><g transform="translate(-414,-302) scale(1,1)"><rect fill="#fff2e4" stroke="none" x="440" y="798" width="112" height="106"/></g><g transform="translate(-414,-302) scale(1,1)"><path fill="none" stroke="#000000" d="M 440 798 L 552 798 L 552 904 L 440 904 L 440 798 Z Z" stroke-miterlimit="10"/></g><g transform="translate(-414,-302) scale(1,1)"><g><path fill="none" stroke="none"/><text fill="#000000" stroke="none" font-family="Arial" font-size="13px" font-style="normal" font-weight="bold" text-decoration="none" x="473.9609375" y="818.5">java.util</text></g></g><g transform="translate(-414,-302) scale(1,1)"><rect fill="#C0C0C0" stroke="none" x="463" y="855" width="61" height="32" opacity="0.2"/></g><g transform="translate(-414,-302) scale(1,1)"><rect fill="#d8e1f8" stroke="none" x="456" y="848" width="61" height="32"/></g><g transform="translate(-414,-302) scale(1,1)"><path fill="none" stroke="#000000" d="M 456 848 L 517 848 L 517 880 L 456 880 L 456 848 Z Z" stroke-miterlimit="10"/></g><g transform="translate(-414,-302) scale(1,1)"><g><path fill="none" stroke="none"/><text fill="#000000" stroke="none" font-family="Arial" font-size="13px" font-style="normal" font-weight="bold" text-decoration="none" x="461.931396484375" y="867.5">Random</text></g></g><g transform="translate(-414,-302) scale(1,1)"><path fill="none" stroke="#000000" d="M 552 472 L 464 472 L 464 848" stroke-miterlimit="10" stroke-dasharray="3"/></g><g transform="translate(-414,-302) scale(1,1)"><path fill="none" stroke="#000000" d="M 459.790482243984 837.8373251423759 L 464 848 L 468.209517756016 837.8373251423759" stroke-miterlimit="10"/></g><g transform="translate(-414,-302) scale(1,1)"><g><path fill="none" stroke="none"/><text fill="#000000" stroke="none" font-family="Arial" font-size="13px" font-style="normal" font-weight="normal" text-decoration="none" x="429" y="466">&lt;&lt;use&gt;&gt;</text></g></g><g transform="translate(-414,-302) scale(1,1)"><path fill="none" stroke="#000000" d="M 754 560 L 754 422 L 754 422" stroke-miterlimit="10" stroke-dasharray="3"/></g><g transform="translate(-414,-302) scale(1,1)"><path fill="none" stroke="#000000" d="M NaN NaN L 754 422 L NaN NaN" stroke-miterlimit="10"/></g><g transform="translate(-414,-302) scale(1,1)"><g><path fill="none" stroke="none"/><text fill="#000000" stroke="none" font-family="Arial" font-size="13px" font-style="normal" font-weight="normal" text-decoration="none" x="765" y="410">&lt;&lt;use&gt;&gt;</text></g></g><g transform="translate(-414,-302) scale(1,1)"><path fill="none" stroke="#000000" d="M 1109 614 L 1120 614 L 1120 872" stroke-miterlimit="10" stroke-dasharray="3"/></g><g transform="translate(-414,-302) scale(1,1)"><path fill="none" stroke="#000000" d="M 1115.7904822439841 861.8373251423759 L 1120 872 L 1124.2095177560159 861.8373251423759" stroke-miterlimit="10"/></g><g transform="translate(-414,-302) scale(1,1)"><g><path fill="none" stroke="none"/><text fill="#000000" stroke="none" font-family="Arial" font-size="13px" font-style="normal" font-weight="normal" text-decoration="none" x="1333" y="714">&lt;&lt;use&gt;&gt;</text></g></g><g transform="translate(-414,-302) scale(1,1)"><path fill="none" stroke="#000000" d="M 1048 652 L 1048 948 L 1112 948" stroke-miterlimit="10" stroke-dasharray="3"/></g><g transform="translate(-414,-302) scale(1,1)"><path fill="none" stroke="#000000" d="M 1101.837325142376 952.209517756016 L 1112 948 L 1101.837325142376 943.790482243984" stroke-miterlimit="10"/></g><g transform="translate(-414,-302) scale(1,1)"><g><path fill="none" stroke="none"/><text fill="#000000" stroke="none" font-family="Arial" font-size="13px" font-style="normal" font-weight="normal" text-decoration="none" x="1053" y="738">&lt;&lt;use&gt;&gt;</text></g></g><g transform="translate(-414,-302) scale(1,1)"><path fill="none" stroke="#000000" d="M 1109 606 L 1320 606 L 1320 912" stroke-miterlimit="10" stroke-dasharray="3"/></g><g transform="translate(-414,-302) scale(1,1)"><path fill="none" stroke="#000000" d="M 1315.7904822439841 901.8373251423759 L 1320 912 L 1324.2095177560159 901.8373251423759" stroke-miterlimit="10"/></g><g transform="translate(-414,-302) scale(1,1)"><g><path fill="none" stroke="none"/><text fill="#000000" stroke="none" font-family="Arial" font-size="13px" font-style="normal" font-weight="normal" text-decoration="none" x="1133" y="746">&lt;&lt;use&gt;&gt;</text></g></g></g></svg>