<svg version="1.1" xmlns="http://www.w3.org/2000/svg" xmlns:xlink="http://www.w3.org/1999/xlink" width="1180" height="1244"><defs/><g><g transform="translate(-14,-30) scale(1,1)"><path fill="none" stroke="#000000" d="M 24 40 L 1184 40 L 1184 1264 L 24 1264 L 24 40" stroke-miterlimit="10"/></g><g transform="translate(-14,-30) scale(1,1)"><path fill="#9ccc95" stroke="none" d="M 24 40 L 24 62 L 110.0908203125 62 L 121.0908203125 51 L 121.0908203125 40 L 24 40"/></g><g transform="translate(-14,-30) scale(1,1)"><path fill="none" stroke="#000000" d="M 24 40 L 24 62 L 110.0908203125 62 L 121.0908203125 51 L 121.0908203125 40 L 24 40 L 24 40" stroke-miterlimit="10"/></g><g transform="translate(-14,-30) scale(1,1)"><g><path fill="none" stroke="none"/><text fill="#000000" stroke="none" font-family="Arial" font-size="13px" font-style="normal" font-weight="normal" text-decoration="none" x="48.72998046875" y="57.5">SeqOrder</text></g></g><g transform="translate(-14,-30) scale(1,1)"><g><path fill="none" stroke="none"/><text fill="#000000" stroke="none" font-family="Arial" font-size="13px" font-style="normal" font-weight="bold" text-decoration="none" x="29" y="57.5">sd</text></g></g><g transform="translate(-14,-30) scale(1,1)"><rect fill="#C0C0C0" stroke="none" x="215" y="95" width="63" height="31" opacity="0.2"/></g><g transform="translate(-14,-30) scale(1,1)"><rect fill="#9ccc95" stroke="none" x="208" y="88" width="63" height="31"/></g><g transform="translate(-14,-30) scale(1,1)"><path fill="none" stroke="#000000" d="M 208 88 L 271 88 L 271 119 L 208 119 L 208 88 Z Z" stroke-miterlimit="10"/></g><g transform="translate(-14,-30) scale(1,1)"><rect fill="#9ccc95" stroke="none" x="208" y="88" width="63" height="31"/></g><g transform="translate(-14,-30) scale(1,1)"><path fill="none" stroke="#000000" d="M 208 88 L 271 88 L 271 119 L 208 119 L 208 88 Z Z" stroke-miterlimit="10"/></g><g transform="translate(-14,-30) scale(1,1)"><g><path fill="none" stroke="none"/><text fill="#000000" stroke="none" font-family="Arial" font-size="13px" font-style="normal" font-weight="bold" text-decoration="none" x="225.7763671875" y="107.5">User</text><path fill="none" stroke="#000000" d="M 253.95361328125 107.5 L 225.04638671875 107.5" stroke-miterlimit="10"/></g></g><g transform="translate(-14,-30) scale(1,1)"><rect fill="#C0C0C0" stroke="none" x="455" y="95" width="63" height="31" opacity="0.2"/></g><g transform="translate(-14,-30) scale(1,1)"><rect fill="#9ccc95" stroke="none" x="448" y="88" width="63" height="31"/></g><g transform="translate(-14,-30) scale(1,1)"><path fill="none" stroke="#000000" d="M 448 88 L 511 88 L 511 119 L 448 119 L 448 88 Z Z" stroke-miterlimit="10"/></g><g transform="translate(-14,-30) scale(1,1)"><rect fill="#9ccc95" stroke="none" x="448" y="88" width="63" height="31"/></g><g transform="translate(-14,-30) scale(1,1)"><path fill="none" stroke="#000000" d="M 448 88 L 511 88 L 511 119 L 448 119 L 448 88 Z Z" stroke-miterlimit="10"/></g><g transform="translate(-14,-30) scale(1,1)"><g><path fill="none" stroke="none"/><text fill="#000000" stroke="none" font-family="Arial" font-size="13px" font-style="normal" font-weight="bold" text-decoration="none" x="462.885009765625" y="107.5">Order</text><path fill="none" stroke="#000000" d="M 497.200439453125 107.5 L 461.799560546875 107.5" stroke-miterlimit="10"/></g></g><g transform="translate(-14,-30) scale(1,1)"><rect fill="#C0C0C0" stroke="none" x="815" y="95" width="74.736328125" height="32" opacity="0.2"/></g><g transform="translate(-14,-30) scale(1,1)"><rect fill="#9ccc95" stroke="none" x="808" y="88" width="74.736328125" height="32"/></g><g transform="translate(-14,-30) scale(1,1)"><path fill="none" stroke="#000000" d="M 808 88 L 882.736328125 88 L 882.736328125 120 L 808 120 L 808 88 Z Z" stroke-miterlimit="10"/></g><g transform="translate(-14,-30) scale(1,1)"><rect fill="#9ccc95" stroke="none" x="808" y="88" width="74.736328125" height="32"/></g><g transform="translate(-14,-30) scale(1,1)"><path fill="none" stroke="#000000" d="M 808 88 L 882.736328125 88 L 882.736328125 120 L 808 120 L 808 88 Z Z" stroke-miterlimit="10"/></g><g transform="translate(-14,-30) scale(1,1)"><g><path fill="none" stroke="none"/><text fill="#000000" stroke="none" font-family="Arial" font-size="13px" font-style="normal" font-weight="bold" text-decoration="none" x="815.013671875" y="107.5">Salespoint</text><path fill="none" stroke="#000000" d="M 878.236328125 107.5 L 812.5 107.5" stroke-miterlimit="10"/></g></g><g transform="translate(-14,-30) scale(1,1)"><rect fill="#C0C0C0" stroke="none" x="959" y="95" width="63" height="32" opacity="0.2"/></g><g transform="translate(-14,-30) scale(1,1)"><rect fill="#9ccc95" stroke="none" x="952" y="88" width="63" height="32"/></g><g transform="translate(-14,-30) scale(1,1)"><path fill="none" stroke="#000000" d="M 952 88 L 1015 88 L 1015 120 L 952 120 L 952 88 Z Z" stroke-miterlimit="10"/></g><g transform="translate(-14,-30) scale(1,1)"><rect fill="#9ccc95" stroke="none" x="952" y="88" width="63" height="32"/></g><g transform="translate(-14,-30) scale(1,1)"><path fill="none" stroke="#000000" d="M 952 88 L 1015 88 L 1015 120 L 952 120 L 952 88 Z Z" stroke-miterlimit="10"/></g><g transform="translate(-14,-30) scale(1,1)"><g><path fill="none" stroke="none"/><text fill="#000000" stroke="none" font-family="Arial" font-size="13px" font-style="normal" font-weight="bold" text-decoration="none" x="964.7109375" y="107.5">Spring</text><path fill="none" stroke="#000000" d="M 1004.082275390625 107.5 L 962.917724609375 107.5" stroke-miterlimit="10"/></g></g><g transform="translate(-14,-30) scale(1,1)"><path fill="none" stroke="#000000" d="M 240 120 L 240 1248" stroke-miterlimit="10" stroke-dasharray="6,4"/></g><g transform="translate(-14,-30) scale(1,1)"><path fill="none" stroke="#000000" d="M 480 120 L 480 1248" stroke-miterlimit="10" stroke-dasharray="6,4"/></g><g transform="translate(-14,-30) scale(1,1)"><path fill="none" stroke="#000000" d="M 848 120 L 848 1248" stroke-miterlimit="10" stroke-dasharray="6,4"/></g><g transform="translate(-14,-30) scale(1,1)"><path fill="none" stroke="#000000" d="M 984 120 L 984 1248" stroke-miterlimit="10" stroke-dasharray="6,4"/></g><g transform="translate(-14,-30) scale(1,1)"><rect fill="#9ccc95" stroke="none" x="232" y="144" width="16" height="792"/></g><g transform="translate(-14,-30) scale(1,1)"><path fill="none" stroke="#000000" d="M 232 144 L 248 144 L 248 936 L 232 936 L 232 144 Z Z" stroke-miterlimit="10"/></g><g transform="translate(-14,-30) scale(1,1)"><rect fill="#9ccc95" stroke="none" x="472" y="144" width="16" height="88"/></g><g transform="translate(-14,-30) scale(1,1)"><path fill="none" stroke="#000000" d="M 472 144 L 488 144 L 488 232 L 472 232 L 472 144 Z Z" stroke-miterlimit="10"/></g><g transform="translate(-14,-30) scale(1,1)"><path fill="none" stroke="#000000" d="M 248 160 L 472 160" stroke-miterlimit="10"/></g><g transform="translate(-14,-30) scale(1,1)"><path fill="none" stroke="#000000" d="M 461.83732514237585 164.209517756016 L 472 160 L 461.83732514237585 155.790482243984" stroke-miterlimit="10"/></g><g transform="translate(-14,-30) scale(1,1)"><g><path fill="none" stroke="none"/><text fill="#000000" stroke="none" font-family="Arial" font-size="13px" font-style="normal" font-weight="normal" text-decoration="none" x="317" y="154">1:viewBets()</text></g></g><g transform="translate(-14,-30) scale(1,1)"><path fill="none" stroke="#000000" d="M 688 1032 L 688 1032" stroke-miterlimit="10"/></g><g transform="translate(-14,-30) scale(1,1)"><path fill="none" stroke="#000000" d="M 800 328 L 800 328" stroke-miterlimit="10"/></g><g transform="translate(-14,-30) scale(1,1)"><rect fill="#9ccc95" stroke="none" x="976" y="168" width="16" height="56"/></g><g transform="translate(-14,-30) scale(1,1)"><path fill="none" stroke="#000000" d="M 976 168 L 992 168 L 992 224 L 976 224 L 976 168 Z Z" stroke-miterlimit="10"/></g><g transform="translate(-14,-30) scale(1,1)"><path fill="none" stroke="#000000" d="M 488 184 L 976 184" stroke-miterlimit="10"/></g><g transform="translate(-14,-30) scale(1,1)"><path fill="none" stroke="#000000" d="M 965.8373251423759 188.209517756016 L 976 184 L 965.8373251423758 179.790482243984" stroke-miterlimit="10"/></g><g transform="translate(-14,-30) scale(1,1)"><path fill="none" stroke="#000000" d="M 624 328 L 624 328" stroke-miterlimit="10"/></g><g transform="translate(-14,-30) scale(1,1)"><path fill="none" stroke="#000000" d="M 976 200 L 488 200" stroke-miterlimit="10" stroke-dasharray="6,4"/></g><g transform="translate(-14,-30) scale(1,1)"><path fill="none" stroke="#000000" d="M 498.16267485762415 195.790482243984 L 488 200 L 498.16267485762415 204.209517756016" stroke-miterlimit="10"/></g><g transform="translate(-14,-30) scale(1,1)"><path fill="none" stroke="#000000" d="M 472 216 L 472 217 L 248 217" stroke-miterlimit="10" stroke-dasharray="6,4"/></g><g transform="translate(-14,-30) scale(1,1)"><path fill="none" stroke="#000000" d="M 258.16267485762415 212.790482243984 L 248 217 L 258.16267485762415 221.209517756016" stroke-miterlimit="10"/></g><g transform="translate(-14,-30) scale(1,1)"><g><path fill="none" stroke="none"/><text fill="#000000" stroke="none" font-family="Arial" font-size="13px" font-style="normal" font-weight="normal" text-decoration="none" x="645" y="178">2:find bets from customer</text></g></g><g transform="translate(-14,-30) scale(1,1)"><g><path fill="none" stroke="none"/><text fill="#000000" stroke="none" font-family="Arial" font-size="13px" font-style="normal" font-weight="normal" text-decoration="none" x="717" y="218">3:bets</text></g></g><g transform="translate(-14,-30) scale(1,1)"><g><path fill="none" stroke="none"/><text fill="#000000" stroke="none" font-family="Arial" font-size="13px" font-style="normal" font-weight="normal" text-decoration="none" x="269" y="234">4:Template:customer_bets.html</text></g></g><g transform="translate(-14,-30) scale(1,1)"><rect fill="#9ccc95" stroke="none" x="472" y="264" width="16" height="144"/></g><g transform="translate(-14,-30) scale(1,1)"><path fill="none" stroke="#000000" d="M 472 264 L 488 264 L 488 408 L 472 408 L 472 264 Z Z" stroke-miterlimit="10"/></g><g transform="translate(-14,-30) scale(1,1)"><rect fill="#9ccc95" stroke="none" x="840" y="280" width="16" height="55"/></g><g transform="translate(-14,-30) scale(1,1)"><path fill="none" stroke="#000000" d="M 840 280 L 856 280 L 856 335 L 840 335 L 840 280 Z Z" stroke-miterlimit="10"/></g><g transform="translate(-14,-30) scale(1,1)"><rect fill="#9ccc95" stroke="none" x="976" y="344" width="16" height="48"/></g><g transform="translate(-14,-30) scale(1,1)"><path fill="none" stroke="#000000" d="M 976 344 L 992 344 L 992 392 L 976 392 L 976 344 Z Z" stroke-miterlimit="10"/></g><g transform="translate(-14,-30) scale(1,1)"><path fill="none" stroke="#000000" d="M 248 288 L 472 288" stroke-miterlimit="10"/></g><g transform="translate(-14,-30) scale(1,1)"><path fill="none" stroke="#000000" d="M 461.83732514237585 292.209517756016 L 472 288 L 461.83732514237585 283.790482243984" stroke-miterlimit="10"/></g><g transform="translate(-14,-30) scale(1,1)"><g><path fill="none" stroke="none"/><text fill="#000000" stroke="none" font-family="Arial" font-size="13px" font-style="normal" font-weight="normal" text-decoration="none" x="301" y="266">5:raiseFootBet()  </text></g></g><g transform="translate(-14,-30) scale(1,1)"><g><path fill="none" stroke="none"/><text fill="#000000" stroke="none" font-family="Arial" font-size="13px" font-style="normal" font-weight="normal" text-decoration="none" x="301" y="281">   raiseNumBet()</text></g></g><g transform="translate(-14,-30) scale(1,1)"><path fill="none" stroke="#000000" d="M 488 304 L 840 304" stroke-miterlimit="10"/></g><g transform="translate(-14,-30) scale(1,1)"><path fill="none" stroke="#000000" d="M 829.8373251423759 308.209517756016 L 840 304 L 829.8373251423758 299.790482243984" stroke-miterlimit="10"/></g><g transform="translate(-14,-30) scale(1,1)"><path fill="none" stroke="#000000" d="M 488 320 L 837 320 L 837 319" stroke-miterlimit="10" stroke-dasharray="6,4"/></g><g transform="translate(-14,-30) scale(1,1)"><path fill="none" stroke="#000000" d="M 498.16267485762415 315.790482243984 L 488 320 L 498.16267485762415 324.209517756016" stroke-miterlimit="10"/></g><g transform="translate(-14,-30) scale(1,1)"><g><path fill="none" stroke="none"/><text fill="#000000" stroke="none" font-family="Arial" font-size="13px" font-style="normal" font-weight="normal" text-decoration="none" x="693" y="298">6:set Inset()</text></g></g><g transform="translate(-14,-30) scale(1,1)"><g><path fill="none" stroke="none"/><text fill="#000000" stroke="none" font-family="Arial" font-size="13px" font-style="normal" font-weight="normal" text-decoration="none" x="725" y="338">7:</text></g></g><g transform="translate(-14,-30) scale(1,1)"><path fill="none" stroke="#000000" d="M 488 360 L 974 360" stroke-miterlimit="10"/></g><g transform="translate(-14,-30) scale(1,1)"><path fill="none" stroke="#000000" d="M 963.8373251423759 364.209517756016 L 974 360 L 963.8373251423758 355.790482243984" stroke-miterlimit="10"/></g><g transform="translate(-14,-30) scale(1,1)"><path fill="none" stroke="#000000" d="M 488 376 L 973 376" stroke-miterlimit="10" stroke-dasharray="6,4"/></g><g transform="translate(-14,-30) scale(1,1)"><path fill="none" stroke="#000000" d="M 498.16267485762415 371.790482243984 L 488 376 L 498.16267485762415 380.209517756016" stroke-miterlimit="10"/></g><g transform="translate(-14,-30) scale(1,1)"><g><path fill="none" stroke="none"/><text fill="#000000" stroke="none" font-family="Arial" font-size="13px" font-style="normal" font-weight="normal" text-decoration="none" x="693" y="354">8:bet.getInset()</text></g></g><g transform="translate(-14,-30) scale(1,1)"><g><path fill="none" stroke="none"/><text fill="#000000" stroke="none" font-family="Arial" font-size="13px" font-style="normal" font-weight="normal" text-decoration="none" x="717" y="394">9:inset</text></g></g><g transform="translate(-14,-30) scale(1,1)"><path fill="none" stroke="#000000" d="M 472 392 L 250 391" stroke-miterlimit="10" stroke-dasharray="6,4"/></g><g transform="translate(-14,-30) scale(1,1)"><path fill="none" stroke="#000000" d="M 260.18153335533094 386.83630230032446 L 250 391 L 260.14361015668294 395.2552524001801" stroke-miterlimit="10"/></g><g transform="translate(-14,-30) scale(1,1)"><g><path fill="none" stroke="none"/><text fill="#000000" stroke="none" font-family="Arial" font-size="13px" font-style="normal" font-weight="normal" text-decoration="none" x="269" y="410">10:Template:customer_bets.html</text></g></g><g transform="translate(-14,-30) scale(1,1)"><rect fill="#9ccc95" stroke="none" x="472" y="728" width="16" height="184"/></g><g transform="translate(-14,-30) scale(1,1)"><path fill="none" stroke="#000000" d="M 472 728 L 488 728 L 488 912 L 472 912 L 472 728 Z Z" stroke-miterlimit="10"/></g><g transform="translate(-14,-30) scale(1,1)"><rect fill="#9ccc95" stroke="none" x="976" y="760" width="17" height="56"/></g><g transform="translate(-14,-30) scale(1,1)"><path fill="none" stroke="#000000" d="M 976 760 L 993 760 L 993 816 L 976 816 L 976 760 Z Z" stroke-miterlimit="10"/></g><g transform="translate(-14,-30) scale(1,1)"><rect fill="#9ccc95" stroke="none" x="840" y="832" width="17" height="56"/></g><g transform="translate(-14,-30) scale(1,1)"><path fill="none" stroke="#000000" d="M 840 832 L 857 832 L 857 888 L 840 888 L 840 832 Z Z" stroke-miterlimit="10"/></g><g transform="translate(-14,-30) scale(1,1)"><path fill="none" stroke="#000000" d="M 248 752 L 248 753 L 469 753" stroke-miterlimit="10"/></g><g transform="translate(-14,-30) scale(1,1)"><path fill="none" stroke="#000000" d="M 458.83732514237585 757.209517756016 L 469 753 L 458.83732514237585 748.790482243984" stroke-miterlimit="10"/></g><g transform="translate(-14,-30) scale(1,1)"><path fill="none" stroke="#000000" d="M 488 776 L 976 776" stroke-miterlimit="10"/></g><g transform="translate(-14,-30) scale(1,1)"><path fill="none" stroke="#000000" d="M 965.8373251423759 780.209517756016 L 976 776 L 965.8373251423758 771.790482243984" stroke-miterlimit="10"/></g><g transform="translate(-14,-30) scale(1,1)"><path fill="none" stroke="#000000" d="M 976 792 L 487 792" stroke-miterlimit="10" stroke-dasharray="6,4"/></g><g transform="translate(-14,-30) scale(1,1)"><path fill="none" stroke="#000000" d="M 497.16267485762415 787.790482243984 L 487 792 L 497.16267485762415 796.209517756016" stroke-miterlimit="10"/></g><g transform="translate(-14,-30) scale(1,1)"><path fill="none" stroke="#000000" d="M 488 856 L 840 856" stroke-miterlimit="10"/></g><g transform="translate(-14,-30) scale(1,1)"><path fill="none" stroke="#000000" d="M 829.8373251423759 860.209517756016 L 840 856 L 829.8373251423758 851.790482243984" stroke-miterlimit="10"/></g><g transform="translate(-14,-30) scale(1,1)"><path fill="none" stroke="#000000" d="M 840 872 L 492 872" stroke-miterlimit="10" stroke-dasharray="6,4"/></g><g transform="translate(-14,-30) scale(1,1)"><path fill="none" stroke="#000000" d="M 502.16267485762415 867.790482243984 L 492 872 L 502.16267485762415 876.209517756016" stroke-miterlimit="10"/></g><g transform="translate(-14,-30) scale(1,1)"><path fill="none" stroke="#000000" d="M 440 1136 L 440 1136" stroke-miterlimit="10"/></g><g transform="translate(-14,-30) scale(1,1)"><path fill="none" stroke="#000000" d="M 472 904 L 249 904" stroke-miterlimit="10" stroke-dasharray="6,4"/></g><g transform="translate(-14,-30) scale(1,1)"><path fill="none" stroke="#000000" d="M 259.16267485762415 899.790482243984 L 249 904 L 259.16267485762415 908.209517756016" stroke-miterlimit="10"/></g><g transform="translate(-14,-30) scale(1,1)"><g><path fill="none" stroke="none"/><text fill="#000000" stroke="none" font-family="Arial" font-size="13px" font-style="normal" font-weight="normal" text-decoration="none" x="301" y="754">19:removeBet()</text></g></g><g transform="translate(-14,-30) scale(1,1)"><g><path fill="none" stroke="none"/><text fill="#000000" stroke="none" font-family="Arial" font-size="13px" font-style="normal" font-weight="normal" text-decoration="none" x="645" y="762">20:find all bets from customer</text></g></g><g transform="translate(-14,-30) scale(1,1)"><g><path fill="none" stroke="none"/><text fill="#000000" stroke="none" font-family="Arial" font-size="13px" font-style="normal" font-weight="normal" text-decoration="none" x="717" y="810">21:bets</text></g></g><g transform="translate(-14,-30) scale(1,1)"><g><path fill="none" stroke="none"/><text fill="#000000" stroke="none" font-family="Arial" font-size="13px" font-style="normal" font-weight="normal" text-decoration="none" x="637" y="834">22:remove(footballBetRemove)</text></g></g><g transform="translate(-14,-30) scale(1,1)"><g><path fill="none" stroke="none"/><text fill="#000000" stroke="none" font-family="Arial" font-size="13px" font-style="normal" font-weight="normal" text-decoration="none" x="637" y="849">     remove(numberBetRemove)</text></g></g><g transform="translate(-14,-30) scale(1,1)"><g><path fill="none" stroke="none"/><text fill="#000000" stroke="none" font-family="Arial" font-size="13px" font-style="normal" font-weight="normal" text-decoration="none" x="725" y="890">23:</text></g></g><g transform="translate(-14,-30) scale(1,1)"><g><path fill="none" stroke="none"/><text fill="#000000" stroke="none" font-family="Arial" font-size="13px" font-style="normal" font-weight="normal" text-decoration="none" x="269" y="922">24:Template:customer_bets.html</text></g></g><g transform="translate(-14,-30) scale(1,1)"><rect fill="#C0C0C0" stroke="none" x="71" y="95" width="56" height="32" opacity="0.2"/></g><g transform="translate(-14,-30) scale(1,1)"><rect fill="#9ccc95" stroke="none" x="64" y="88" width="56" height="32"/></g><g transform="translate(-14,-30) scale(1,1)"><path fill="none" stroke="#000000" d="M 64 88 L 120 88 L 120 120 L 64 120 L 64 88 Z Z" stroke-miterlimit="10"/></g><g transform="translate(-14,-30) scale(1,1)"><rect fill="#9ccc95" stroke="none" x="64" y="88" width="56" height="32"/></g><g transform="translate(-14,-30) scale(1,1)"><path fill="none" stroke="#000000" d="M 64 88 L 120 88 L 120 120 L 64 120 L 64 88 Z Z" stroke-miterlimit="10"/></g><g transform="translate(-14,-30) scale(1,1)"><g><path fill="none" stroke="none"/><text fill="#000000" stroke="none" font-family="Arial" font-size="13px" font-style="normal" font-weight="bold" text-decoration="none" x="73.575927734375" y="107.5">Admin</text><path fill="none" stroke="#000000" d="M 112.220458984375 107.5 L 71.779541015625 107.5" stroke-miterlimit="10"/></g></g><g transform="translate(-14,-30) scale(1,1)"><path fill="none" stroke="#000000" d="M 80 816 L 80 816" stroke-miterlimit="10"/></g><g transform="translate(-14,-30) scale(1,1)"><path fill="none" stroke="#000000" d="M 96 120 L 96 1248" stroke-miterlimit="10" stroke-dasharray="6,4"/></g><g transform="translate(-14,-30) scale(1,1)"><rect fill="#9ccc95" stroke="none" x="88" y="976" width="16" height="167"/></g><g transform="translate(-14,-30) scale(1,1)"><path fill="none" stroke="#000000" d="M 88 976 L 104 976 L 104 1143 L 88 1143 L 88 976 Z Z" stroke-miterlimit="10"/></g><g transform="translate(-14,-30) scale(1,1)"><rect fill="#9ccc95" stroke="none" x="472" y="992" width="16" height="144"/></g><g transform="translate(-14,-30) scale(1,1)"><path fill="none" stroke="#000000" d="M 472 992 L 488 992 L 488 1136 L 472 1136 L 472 992 Z Z" stroke-miterlimit="10"/></g><g transform="translate(-14,-30) scale(1,1)"><rect fill="#9ccc95" stroke="none" x="840" y="1000" width="16" height="40"/></g><g transform="translate(-14,-30) scale(1,1)"><path fill="none" stroke="#000000" d="M 840 1000 L 856 1000 L 856 1040 L 840 1040 L 840 1000 Z Z" stroke-miterlimit="10"/></g><g transform="translate(-14,-30) scale(1,1)"><rect fill="#9ccc95" stroke="none" x="976" y="1064" width="16" height="57"/></g><g transform="translate(-14,-30) scale(1,1)"><path fill="none" stroke="#000000" d="M 976 1064 L 992 1064 L 992 1121 L 976 1121 L 976 1064 Z Z" stroke-miterlimit="10"/></g><g transform="translate(-14,-30) scale(1,1)"><path fill="none" stroke="#000000" d="M 104 1000 L 104 1002 L 472 1002" stroke-miterlimit="10"/></g><g transform="translate(-14,-30) scale(1,1)"><path fill="none" stroke="#000000" d="M 461.83732514237585 1006.209517756016 L 472 1002 L 461.83732514237585 997.790482243984" stroke-miterlimit="10"/></g><g transform="translate(-14,-30) scale(1,1)"><path fill="none" stroke="#000000" d="M 488 1016 L 840 1016" stroke-miterlimit="10"/></g><g transform="translate(-14,-30) scale(1,1)"><path fill="none" stroke="#000000" d="M 829.8373251423759 1020.209517756016 L 840 1016 L 829.8373251423758 1011.790482243984" stroke-miterlimit="10"/></g><g transform="translate(-14,-30) scale(1,1)"><path fill="none" stroke="#000000" d="M 488 1032 L 840 1032 L 840 1035" stroke-miterlimit="10" stroke-dasharray="6,4"/></g><g transform="translate(-14,-30) scale(1,1)"><path fill="none" stroke="#000000" d="M 498.16267485762415 1027.7904822439841 L 488 1032 L 498.16267485762415 1036.2095177560159" stroke-miterlimit="10"/></g><g transform="translate(-14,-30) scale(1,1)"><path fill="none" stroke="#000000" d="M 488 1088 L 976 1088" stroke-miterlimit="10"/></g><g transform="translate(-14,-30) scale(1,1)"><path fill="none" stroke="#000000" d="M 965.8373251423759 1092.2095177560159 L 976 1088 L 965.8373251423758 1083.7904822439841" stroke-miterlimit="10"/></g><g transform="translate(-14,-30) scale(1,1)"><path fill="none" stroke="#000000" d="M 976 1104 L 488 1104" stroke-miterlimit="10" stroke-dasharray="6,4"/></g><g transform="translate(-14,-30) scale(1,1)"><path fill="none" stroke="#000000" d="M 498.16267485762415 1099.7904822439841 L 488 1104 L 498.16267485762415 1108.2095177560159" stroke-miterlimit="10"/></g><g transform="translate(-14,-30) scale(1,1)"><path fill="none" stroke="#000000" d="M 472 1112 L 472 1120 L 104 1120" stroke-miterlimit="10" stroke-dasharray="6,4"/></g><g transform="translate(-14,-30) scale(1,1)"><path fill="none" stroke="#000000" d="M 114.16267485762415 1115.7904822439841 L 104 1120 L 114.16267485762415 1124.2095177560159" stroke-miterlimit="10"/></g><g transform="translate(-14,-30) scale(1,1)"><path fill="none" stroke="#000000" d="M 232 784 L 232 784" stroke-miterlimit="10"/></g><g transform="translate(-14,-30) scale(1,1)"><g><path fill="none" stroke="none"/><text fill="#000000" stroke="none" font-family="Arial" font-size="13px" font-style="normal" font-weight="normal" text-decoration="none" x="261" y="994">25:result()</text></g></g><g transform="translate(-14,-30) scale(1,1)"><g><path fill="none" stroke="none"/><text fill="#000000" stroke="none" font-family="Arial" font-size="13px" font-style="normal" font-weight="normal" text-decoration="none" x="677" y="1002">26:getscoreHost</text></g></g><g transform="translate(-14,-30) scale(1,1)"><g><path fill="none" stroke="none"/><text fill="#000000" stroke="none" font-family="Arial" font-size="13px" font-style="normal" font-weight="normal" text-decoration="none" x="677" y="1017">          scoreGuest</text></g></g><g transform="translate(-14,-30) scale(1,1)"><g><path fill="none" stroke="none"/><text fill="#000000" stroke="none" font-family="Arial" font-size="13px" font-style="normal" font-weight="normal" text-decoration="none" x="709" y="1050">27:score</text></g></g><g transform="translate(-14,-30) scale(1,1)"><g><path fill="none" stroke="none"/><text fill="#000000" stroke="none" font-family="Arial" font-size="13px" font-style="normal" font-weight="normal" text-decoration="none" x="645" y="1082">28:add match.result to Model</text></g></g><g transform="translate(-14,-30) scale(1,1)"><g><path fill="none" stroke="none"/><text fill="#000000" stroke="none" font-family="Arial" font-size="13px" font-style="normal" font-weight="normal" text-decoration="none" x="709" y="1122">29:result</text></g></g><g transform="translate(-14,-30) scale(1,1)"><g><path fill="none" stroke="none"/><text fill="#000000" stroke="none" font-family="Arial" font-size="13px" font-style="normal" font-weight="normal" text-decoration="none" x="245" y="1138">30:Template:navigation.html</text></g></g><g transform="translate(-14,-30) scale(1,1)"><rect fill="#9ccc95" stroke="none" x="472" y="448" width="16" height="192"/></g><g transform="translate(-14,-30) scale(1,1)"><path fill="none" stroke="#000000" d="M 472 448 L 488 448 L 488 640 L 472 640 L 472 448 Z Z" stroke-miterlimit="10"/></g><g transform="translate(-14,-30) scale(1,1)"><path fill="none" stroke="#000000" d="M 248 456 L 248 462 L 472 462" stroke-miterlimit="10"/></g><g transform="translate(-14,-30) scale(1,1)"><path fill="none" stroke="#000000" d="M 461.83732514237585 466.209517756016 L 472 462 L 461.83732514237585 457.790482243984" stroke-miterlimit="10"/></g><g transform="translate(-14,-30) scale(1,1)"><g><path fill="none" stroke="none"/><text fill="#000000" stroke="none" font-family="Arial" font-size="13px" font-style="normal" font-weight="normal" text-decoration="none" x="301" y="442">11:changeFootBet()</text></g></g><g transform="translate(-14,-30) scale(1,1)"><g><path fill="none" stroke="none"/><text fill="#000000" stroke="none" font-family="Arial" font-size="13px" font-style="normal" font-weight="normal" text-decoration="none" x="301" y="457">     changeNumBet()</text></g></g><g transform="translate(-14,-30) scale(1,1)"><rect fill="#C0C0C0" stroke="none" x="607" y="95" width="63" height="32" opacity="0.2"/></g><g transform="translate(-14,-30) scale(1,1)"><rect fill="#9ccc95" stroke="none" x="600" y="88" width="63" height="32"/></g><g transform="translate(-14,-30) scale(1,1)"><path fill="none" stroke="#000000" d="M 600 88 L 663 88 L 663 120 L 600 120 L 600 88 Z Z" stroke-miterlimit="10"/></g><g transform="translate(-14,-30) scale(1,1)"><rect fill="#9ccc95" stroke="none" x="600" y="88" width="63" height="32"/></g><g transform="translate(-14,-30) scale(1,1)"><path fill="none" stroke="#000000" d="M 600 88 L 663 88 L 663 120 L 600 120 L 600 88 Z Z" stroke-miterlimit="10"/></g><g transform="translate(-14,-30) scale(1,1)"><g><path fill="none" stroke="none"/><text fill="#000000" stroke="none" font-family="Arial" font-size="13px" font-style="normal" font-weight="bold" text-decoration="none" x="609.095947265625" y="107.5">Catalog</text><path fill="none" stroke="#000000" d="M 655.33544921875 107.5 L 607.66455078125 107.5" stroke-miterlimit="10"/></g></g><g transform="translate(-14,-30) scale(1,1)"><path fill="none" stroke="#000000" d="M 632 96 L 632 96" stroke-miterlimit="10"/></g><g transform="translate(-14,-30) scale(1,1)"><path fill="none" stroke="#000000" d="M 632 120 L 632 1248" stroke-miterlimit="10" stroke-dasharray="6,4"/></g><g transform="translate(-14,-30) scale(1,1)"><rect fill="#9ccc95" stroke="none" x="624" y="456" width="16" height="224"/></g><g transform="translate(-14,-30) scale(1,1)"><path fill="none" stroke="#000000" d="M 624 456 L 640 456 L 640 680 L 624 680 L 624 456 Z Z" stroke-miterlimit="10"/></g><g transform="translate(-14,-30) scale(1,1)"><path fill="none" stroke="#000000" d="M 488 472 L 624 472" stroke-miterlimit="10"/></g><g transform="translate(-14,-30) scale(1,1)"><path fill="none" stroke="#000000" d="M 613.8373251423759 476.209517756016 L 624 472 L 613.8373251423758 467.790482243984" stroke-miterlimit="10"/></g><g transform="translate(-14,-30) scale(1,1)"><g><path fill="none" stroke="none"/><text fill="#000000" stroke="none" font-family="Arial" font-size="13px" font-style="normal" font-weight="normal" text-decoration="none" x="501" y="450">12:ticketCatalog()</text></g></g><g transform="translate(-14,-30) scale(1,1)"><g><path fill="none" stroke="none"/><text fill="#000000" stroke="none" font-family="Arial" font-size="13px" font-style="normal" font-weight="normal" text-decoration="none" x="501" y="465">     footballCatalog()</text></g></g><g transform="translate(-14,-30) scale(1,1)"><rect fill="#9ccc95" stroke="none" x="632" y="488" width="16" height="32"/></g><g transform="translate(-14,-30) scale(1,1)"><path fill="none" stroke="#000000" d="M 632 488 L 648 488 L 648 520 L 632 520 L 632 488 Z Z" stroke-miterlimit="10"/></g><g transform="translate(-14,-30) scale(1,1)"><path fill="none" stroke="#000000" d="M 640 464 L 672 464 L 672 505 L 648 505" stroke-miterlimit="10"/></g><g transform="translate(-14,-30) scale(1,1)"><path fill="none" stroke="#000000" d="M 658.1626748576241 500.790482243984 L 648 505 L 658.1626748576241 509.209517756016" stroke-miterlimit="10"/></g><g transform="translate(-14,-30) scale(1,1)"><g><path fill="none" stroke="none"/><text fill="#000000" stroke="none" font-family="Arial" font-size="13px" font-style="normal" font-weight="normal" text-decoration="none" x="677" y="490">13:lotteryCatalog.findbyid()</text></g></g><g transform="translate(-14,-30) scale(1,1)"><rect fill="#C0C0C0" stroke="none" x="1079" y="95" width="56.68359375" height="31" opacity="0.2"/></g><g transform="translate(-14,-30) scale(1,1)"><rect fill="#9ccc95" stroke="none" x="1072" y="88" width="56.68359375" height="31"/></g><g transform="translate(-14,-30) scale(1,1)"><path fill="none" stroke="#000000" d="M 1072 88 L 1128.68359375 88 L 1128.68359375 119 L 1072 119 L 1072 88 Z Z" stroke-miterlimit="10"/></g><g transform="translate(-14,-30) scale(1,1)"><rect fill="#9ccc95" stroke="none" x="1072" y="88" width="56.68359375" height="31"/></g><g transform="translate(-14,-30) scale(1,1)"><path fill="none" stroke="#000000" d="M 1072 88 L 1128.68359375 88 L 1128.68359375 119 L 1072 119 L 1072 88 Z Z" stroke-miterlimit="10"/></g><g transform="translate(-14,-30) scale(1,1)"><g><path fill="none" stroke="none"/><text fill="#000000" stroke="none" font-family="Arial" font-size="13px" font-style="normal" font-weight="bold" text-decoration="none" x="1086.138916015625" y="107.5">Time</text><path fill="none" stroke="#000000" d="M 1115.395263671875 107.5 L 1085.288330078125 107.5" stroke-miterlimit="10"/></g></g><g transform="translate(-14,-30) scale(1,1)"><path fill="none" stroke="#000000" d="M 1104 120 L 1104 1248" stroke-miterlimit="10" stroke-dasharray="6,4"/></g><g transform="translate(-14,-30) scale(1,1)"><rect fill="#9ccc95" stroke="none" x="1096" y="520" width="16" height="49"/></g><g transform="translate(-14,-30) scale(1,1)"><path fill="none" stroke="#000000" d="M 1096 520 L 1112 520 L 1112 569 L 1096 569 L 1096 520 Z Z" stroke-miterlimit="10"/></g><g transform="translate(-14,-30) scale(1,1)"><path fill="none" stroke="#000000" d="M 640 536 L 1096 537" stroke-miterlimit="10"/></g><g transform="translate(-14,-30) scale(1,1)"><path fill="none" stroke="#000000" d="M 1085.8281182029234 541.1872211198245 L 1096 537 L 1085.8465809557038 532.7682058520146" stroke-miterlimit="10"/></g><g transform="translate(-14,-30) scale(1,1)"><path fill="none" stroke="#000000" d="M 1096 552 L 639 552" stroke-miterlimit="10" stroke-dasharray="6,4"/></g><g transform="translate(-14,-30) scale(1,1)"><path fill="none" stroke="#000000" d="M 649.1626748576241 547.790482243984 L 639 552 L 649.1626748576241 556.209517756016" stroke-miterlimit="10"/></g><g transform="translate(-14,-30) scale(1,1)"><g><path fill="none" stroke="none"/><text fill="#000000" stroke="none" font-family="Arial" font-size="13px" font-style="normal" font-weight="normal" text-decoration="none" x="677" y="530">14:LocalDateTime.now()</text></g></g><g transform="translate(-14,-30) scale(1,1)"><g><path fill="none" stroke="none"/><text fill="#000000" stroke="none" font-family="Arial" font-size="13px" font-style="normal" font-weight="normal" text-decoration="none" x="701" y="570">15:time</text></g></g><g transform="translate(-14,-30) scale(1,1)"><rect fill="#9ccc95" stroke="none" x="840" y="600" width="16" height="72"/></g><g transform="translate(-14,-30) scale(1,1)"><path fill="none" stroke="#000000" d="M 840 600 L 856 600 L 856 672 L 840 672 L 840 600 Z Z" stroke-miterlimit="10"/></g><g transform="translate(-14,-30) scale(1,1)"><path fill="none" stroke="#000000" d="M 640 624 L 840 625" stroke-miterlimit="10"/></g><g transform="translate(-14,-30) scale(1,1)"><path fill="none" stroke="#000000" d="M 829.8164048477396 629.1586523988977 L 840 625 L 829.85849949912 620.7397221228365" stroke-miterlimit="10"/></g><g transform="translate(-14,-30) scale(1,1)"><path fill="none" stroke="#000000" d="M 840 640 L 642 640" stroke-miterlimit="10" stroke-dasharray="6,4"/></g><g transform="translate(-14,-30) scale(1,1)"><path fill="none" stroke="#000000" d="M 652.1626748576241 635.790482243984 L 642 640 L 652.1626748576241 644.209517756016" stroke-miterlimit="10"/></g><g transform="translate(-14,-30) scale(1,1)"><g><path fill="none" stroke="none"/><text fill="#000000" stroke="none" font-family="Arial" font-size="13px" font-style="normal" font-weight="normal" text-decoration="none" x="677" y="610">16:bet.setNumbers()</text></g></g><g transform="translate(-14,-30) scale(1,1)"><g><path fill="none" stroke="none"/><text fill="#000000" stroke="none" font-family="Arial" font-size="13px" font-style="normal" font-weight="normal" text-decoration="none" x="677" y="625">    bet.setTippedStatus()</text></g></g><g transform="translate(-14,-30) scale(1,1)"><g><path fill="none" stroke="none"/><text fill="#000000" stroke="none" font-family="Arial" font-size="13px" font-style="normal" font-weight="normal" text-decoration="none" x="669" y="666">17:newNumers</text></g></g><g transform="translate(-14,-30) scale(1,1)"><g><path fill="none" stroke="none"/><text fill="#000000" stroke="none" font-family="Arial" font-size="13px" font-style="normal" font-weight="normal" text-decoration="none" x="669" y="681">     newTippedStatus</text></g></g><g transform="translate(-14,-30) scale(1,1)"><path fill="none" stroke="#000000" d="M 512 664 L 512 664" stroke-miterlimit="10"/></g><g transform="translate(-14,-30) scale(1,1)"><path fill="none" stroke="#000000" d="M 248 664 L 628 664" stroke-miterlimit="10" stroke-dasharray="6,4"/></g><g transform="translate(-14,-30) scale(1,1)"><path fill="none" stroke="#000000" d="M 258.16267485762415 659.790482243984 L 248 664 L 258.16267485762415 668.209517756016" stroke-miterlimit="10"/></g><g transform="translate(-14,-30) scale(1,1)"><g><path fill="none" stroke="none"/><text fill="#000000" stroke="none" font-family="Arial" font-size="13px" font-style="normal" font-weight="normal" text-decoration="none" x="293" y="682">18:Template:time_up.html</text></g></g></g></svg>