<svg version="1.1" xmlns="http://www.w3.org/2000/svg" xmlns:xlink="http://www.w3.org/1999/xlink" width="892" height="980"><defs/><g><g transform="translate(-30,-38) scale(1,1)"><path fill="none" stroke="#000000" d="M 40 48 L 912 48 L 912 1008 L 40 1008 L 40 48" stroke-miterlimit="10"/></g><g transform="translate(-30,-38) scale(1,1)"><path fill="#9ccc95" stroke="none" d="M 40 48 L 40 70 L 128.26806640625 70 L 139.26806640625 59 L 139.26806640625 48 L 40 48"/></g><g transform="translate(-30,-38) scale(1,1)"><path fill="none" stroke="#000000" d="M 40 48 L 40 70 L 128.26806640625 70 L 139.26806640625 59 L 139.26806640625 48 L 40 48 L 40 48" stroke-miterlimit="10"/></g><g transform="translate(-30,-38) scale(1,1)"><g><path fill="none" stroke="none"/><text fill="#000000" stroke="none" font-family="Arial" font-size="13px" font-style="normal" font-weight="normal" text-decoration="none" x="64.72998046875" y="65.5">seq_order</text></g></g><g transform="translate(-30,-38) scale(1,1)"><g><path fill="none" stroke="none"/><text fill="#000000" stroke="none" font-family="Arial" font-size="13px" font-style="normal" font-weight="bold" text-decoration="none" x="45" y="65.5">sd</text></g></g><g transform="translate(-30,-38) scale(1,1)"><rect fill="#C0C0C0" stroke="none" x="215" y="95" width="63" height="31" opacity="0.2"/></g><g transform="translate(-30,-38) scale(1,1)"><rect fill="#9ccc95" stroke="none" x="208" y="88" width="63" height="31"/></g><g transform="translate(-30,-38) scale(1,1)"><path fill="none" stroke="#000000" d="M 208 88 L 271 88 L 271 119 L 208 119 L 208 88 Z Z" stroke-miterlimit="10"/></g><g transform="translate(-30,-38) scale(1,1)"><rect fill="#9ccc95" stroke="none" x="208" y="88" width="63" height="31"/></g><g transform="translate(-30,-38) scale(1,1)"><path fill="none" stroke="#000000" d="M 208 88 L 271 88 L 271 119 L 208 119 L 208 88 Z Z" stroke-miterlimit="10"/></g><g transform="translate(-30,-38) scale(1,1)"><g><path fill="none" stroke="none"/><text fill="#000000" stroke="none" font-family="Arial" font-size="13px" font-style="normal" font-weight="bold" text-decoration="none" x="225.7763671875" y="107.5">User</text><path fill="none" stroke="#000000" d="M 253.95361328125 107.5 L 225.04638671875 107.5" stroke-miterlimit="10"/></g></g><g transform="translate(-30,-38) scale(1,1)"><rect fill="#C0C0C0" stroke="none" x="455" y="95" width="63" height="31" opacity="0.2"/></g><g transform="translate(-30,-38) scale(1,1)"><rect fill="#9ccc95" stroke="none" x="448" y="88" width="63" height="31"/></g><g transform="translate(-30,-38) scale(1,1)"><path fill="none" stroke="#000000" d="M 448 88 L 511 88 L 511 119 L 448 119 L 448 88 Z Z" stroke-miterlimit="10"/></g><g transform="translate(-30,-38) scale(1,1)"><rect fill="#9ccc95" stroke="none" x="448" y="88" width="63" height="31"/></g><g transform="translate(-30,-38) scale(1,1)"><path fill="none" stroke="#000000" d="M 448 88 L 511 88 L 511 119 L 448 119 L 448 88 Z Z" stroke-miterlimit="10"/></g><g transform="translate(-30,-38) scale(1,1)"><g><path fill="none" stroke="none"/><text fill="#000000" stroke="none" font-family="Arial" font-size="13px" font-style="normal" font-weight="bold" text-decoration="none" x="462.885009765625" y="107.5">Order</text><path fill="none" stroke="#000000" d="M 497.200439453125 107.5 L 461.799560546875 107.5" stroke-miterlimit="10"/></g></g><g transform="translate(-30,-38) scale(1,1)"><rect fill="#C0C0C0" stroke="none" x="671" y="95" width="74.736328125" height="32" opacity="0.2"/></g><g transform="translate(-30,-38) scale(1,1)"><rect fill="#9ccc95" stroke="none" x="664" y="88" width="74.736328125" height="32"/></g><g transform="translate(-30,-38) scale(1,1)"><path fill="none" stroke="#000000" d="M 664 88 L 738.736328125 88 L 738.736328125 120 L 664 120 L 664 88 Z Z" stroke-miterlimit="10"/></g><g transform="translate(-30,-38) scale(1,1)"><rect fill="#9ccc95" stroke="none" x="664" y="88" width="74.736328125" height="32"/></g><g transform="translate(-30,-38) scale(1,1)"><path fill="none" stroke="#000000" d="M 664 88 L 738.736328125 88 L 738.736328125 120 L 664 120 L 664 88 Z Z" stroke-miterlimit="10"/></g><g transform="translate(-30,-38) scale(1,1)"><g><path fill="none" stroke="none"/><text fill="#000000" stroke="none" font-family="Arial" font-size="13px" font-style="normal" font-weight="bold" text-decoration="none" x="671.013671875" y="107.5">Salespoint</text><path fill="none" stroke="#000000" d="M 734.236328125 107.5 L 668.5 107.5" stroke-miterlimit="10"/></g></g><g transform="translate(-30,-38) scale(1,1)"><rect fill="#C0C0C0" stroke="none" x="815" y="95" width="63" height="32" opacity="0.2"/></g><g transform="translate(-30,-38) scale(1,1)"><rect fill="#9ccc95" stroke="none" x="808" y="88" width="63" height="32"/></g><g transform="translate(-30,-38) scale(1,1)"><path fill="none" stroke="#000000" d="M 808 88 L 871 88 L 871 120 L 808 120 L 808 88 Z Z" stroke-miterlimit="10"/></g><g transform="translate(-30,-38) scale(1,1)"><rect fill="#9ccc95" stroke="none" x="808" y="88" width="63" height="32"/></g><g transform="translate(-30,-38) scale(1,1)"><path fill="none" stroke="#000000" d="M 808 88 L 871 88 L 871 120 L 808 120 L 808 88 Z Z" stroke-miterlimit="10"/></g><g transform="translate(-30,-38) scale(1,1)"><g><path fill="none" stroke="none"/><text fill="#000000" stroke="none" font-family="Arial" font-size="13px" font-style="normal" font-weight="bold" text-decoration="none" x="820.7109375" y="107.5">Spring</text><path fill="none" stroke="#000000" d="M 860.082275390625 107.5 L 818.917724609375 107.5" stroke-miterlimit="10"/></g></g><g transform="translate(-30,-38) scale(1,1)"><path fill="none" stroke="#000000" d="M 240 120 L 240 968" stroke-miterlimit="10" stroke-dasharray="6,4"/></g><g transform="translate(-30,-38) scale(1,1)"><path fill="none" stroke="#000000" d="M 480 120 L 480 968" stroke-miterlimit="10" stroke-dasharray="6,4"/></g><g transform="translate(-30,-38) scale(1,1)"><path fill="none" stroke="#000000" d="M 704 120 L 704 960" stroke-miterlimit="10" stroke-dasharray="6,4"/></g><g transform="translate(-30,-38) scale(1,1)"><path fill="none" stroke="#000000" d="M 840 120 L 840 960" stroke-miterlimit="10" stroke-dasharray="6,4"/></g><g transform="translate(-30,-38) scale(1,1)"><rect fill="#9ccc95" stroke="none" x="232" y="144" width="16" height="512"/></g><g transform="translate(-30,-38) scale(1,1)"><path fill="none" stroke="#000000" d="M 232 144 L 248 144 L 248 656 L 232 656 L 232 144 Z Z" stroke-miterlimit="10"/></g><g transform="translate(-30,-38) scale(1,1)"><rect fill="#9ccc95" stroke="none" x="472" y="144" width="16" height="88"/></g><g transform="translate(-30,-38) scale(1,1)"><path fill="none" stroke="#000000" d="M 472 144 L 488 144 L 488 232 L 472 232 L 472 144 Z Z" stroke-miterlimit="10"/></g><g transform="translate(-30,-38) scale(1,1)"><path fill="none" stroke="#000000" d="M 248 160 L 472 160" stroke-miterlimit="10"/></g><g transform="translate(-30,-38) scale(1,1)"><path fill="none" stroke="#000000" d="M 461.83732514237585 164.209517756016 L 472 160 L 461.83732514237585 155.790482243984" stroke-miterlimit="10"/></g><g transform="translate(-30,-38) scale(1,1)"><g><path fill="none" stroke="none"/><text fill="#000000" stroke="none" font-family="Arial" font-size="13px" font-style="normal" font-weight="normal" text-decoration="none" x="317" y="154">1:viewBets()</text></g></g><g transform="translate(-30,-38) scale(1,1)"><path fill="none" stroke="#000000" d="M 688 568 L 688 568" stroke-miterlimit="10"/></g><g transform="translate(-30,-38) scale(1,1)"><path fill="none" stroke="#000000" d="M 656 328 L 656 328" stroke-miterlimit="10"/></g><g transform="translate(-30,-38) scale(1,1)"><rect fill="#9ccc95" stroke="none" x="832" y="168" width="16" height="56"/></g><g transform="translate(-30,-38) scale(1,1)"><path fill="none" stroke="#000000" d="M 832 168 L 848 168 L 848 224 L 832 224 L 832 168 Z Z" stroke-miterlimit="10"/></g><g transform="translate(-30,-38) scale(1,1)"><path fill="none" stroke="#000000" d="M 488 184 L 832 184" stroke-miterlimit="10"/></g><g transform="translate(-30,-38) scale(1,1)"><path fill="none" stroke="#000000" d="M 821.8373251423759 188.209517756016 L 832 184 L 821.8373251423758 179.790482243984" stroke-miterlimit="10"/></g><g transform="translate(-30,-38) scale(1,1)"><path fill="none" stroke="#000000" d="M 624 328 L 624 328" stroke-miterlimit="10"/></g><g transform="translate(-30,-38) scale(1,1)"><path fill="none" stroke="#000000" d="M 832 200 L 488 200" stroke-miterlimit="10" stroke-dasharray="6,4"/></g><g transform="translate(-30,-38) scale(1,1)"><path fill="none" stroke="#000000" d="M 498.16267485762415 195.790482243984 L 488 200 L 498.16267485762415 204.209517756016" stroke-miterlimit="10"/></g><g transform="translate(-30,-38) scale(1,1)"><path fill="none" stroke="#000000" d="M 472 216 L 472 217 L 248 217" stroke-miterlimit="10" stroke-dasharray="6,4"/></g><g transform="translate(-30,-38) scale(1,1)"><path fill="none" stroke="#000000" d="M 258.16267485762415 212.790482243984 L 248 217 L 258.16267485762415 221.209517756016" stroke-miterlimit="10"/></g><g transform="translate(-30,-38) scale(1,1)"><g><path fill="none" stroke="none"/><text fill="#000000" stroke="none" font-family="Arial" font-size="13px" font-style="normal" font-weight="normal" text-decoration="none" x="597" y="162">2:customer.getAll    NumberBetList()</text></g></g><g transform="translate(-30,-38) scale(1,1)"><g><path fill="none" stroke="none"/><text fill="#000000" stroke="none" font-family="Arial" font-size="13px" font-style="normal" font-weight="normal" text-decoration="none" x="597" y="177">   customer.getAll    FootballBetList()</text></g></g><g transform="translate(-30,-38) scale(1,1)"><g><path fill="none" stroke="none"/><text fill="#000000" stroke="none" font-family="Arial" font-size="13px" font-style="normal" font-weight="normal" text-decoration="none" x="685" y="218">3:</text></g></g><g transform="translate(-30,-38) scale(1,1)"><g><path fill="none" stroke="none"/><text fill="#000000" stroke="none" font-family="Arial" font-size="13px" font-style="normal" font-weight="normal" text-decoration="none" x="269" y="234">4:Template:customer_bets.html</text></g></g><g transform="translate(-30,-38) scale(1,1)"><rect fill="#9ccc95" stroke="none" x="472" y="264" width="16" height="144"/></g><g transform="translate(-30,-38) scale(1,1)"><path fill="none" stroke="#000000" d="M 472 264 L 488 264 L 488 408 L 472 408 L 472 264 Z Z" stroke-miterlimit="10"/></g><g transform="translate(-30,-38) scale(1,1)"><rect fill="#9ccc95" stroke="none" x="696" y="280" width="16" height="55"/></g><g transform="translate(-30,-38) scale(1,1)"><path fill="none" stroke="#000000" d="M 696 280 L 712 280 L 712 335 L 696 335 L 696 280 Z Z" stroke-miterlimit="10"/></g><g transform="translate(-30,-38) scale(1,1)"><rect fill="#9ccc95" stroke="none" x="832" y="344" width="16" height="48"/></g><g transform="translate(-30,-38) scale(1,1)"><path fill="none" stroke="#000000" d="M 832 344 L 848 344 L 848 392 L 832 392 L 832 344 Z Z" stroke-miterlimit="10"/></g><g transform="translate(-30,-38) scale(1,1)"><path fill="none" stroke="#000000" d="M 248 288 L 472 288" stroke-miterlimit="10"/></g><g transform="translate(-30,-38) scale(1,1)"><path fill="none" stroke="#000000" d="M 461.83732514237585 292.209517756016 L 472 288 L 461.83732514237585 283.790482243984" stroke-miterlimit="10"/></g><g transform="translate(-30,-38) scale(1,1)"><g><path fill="none" stroke="none"/><text fill="#000000" stroke="none" font-family="Arial" font-size="13px" font-style="normal" font-weight="normal" text-decoration="none" x="325" y="282">5:raiseBet()</text></g></g><g transform="translate(-30,-38) scale(1,1)"><path fill="none" stroke="#000000" d="M 488 304 L 696 304" stroke-miterlimit="10"/></g><g transform="translate(-30,-38) scale(1,1)"><path fill="none" stroke="#000000" d="M 685.8373251423759 308.209517756016 L 696 304 L 685.8373251423758 299.790482243984" stroke-miterlimit="10"/></g><g transform="translate(-30,-38) scale(1,1)"><path fill="none" stroke="#000000" d="M 488 320 L 693 320 L 693 319" stroke-miterlimit="10" stroke-dasharray="6,4"/></g><g transform="translate(-30,-38) scale(1,1)"><path fill="none" stroke="#000000" d="M 498.16267485762415 315.790482243984 L 488 320 L 498.16267485762415 324.209517756016" stroke-miterlimit="10"/></g><g transform="translate(-30,-38) scale(1,1)"><g><path fill="none" stroke="none"/><text fill="#000000" stroke="none" font-family="Arial" font-size="13px" font-style="normal" font-weight="normal" text-decoration="none" x="549" y="298">6:set Inset()</text></g></g><g transform="translate(-30,-38) scale(1,1)"><g><path fill="none" stroke="none"/><text fill="#000000" stroke="none" font-family="Arial" font-size="13px" font-style="normal" font-weight="normal" text-decoration="none" x="581" y="338">7:</text></g></g><g transform="translate(-30,-38) scale(1,1)"><path fill="none" stroke="#000000" d="M 488 360 L 830 360" stroke-miterlimit="10"/></g><g transform="translate(-30,-38) scale(1,1)"><path fill="none" stroke="#000000" d="M 819.8373251423759 364.209517756016 L 830 360 L 819.8373251423758 355.790482243984" stroke-miterlimit="10"/></g><g transform="translate(-30,-38) scale(1,1)"><path fill="none" stroke="#000000" d="M 488 376 L 829 376" stroke-miterlimit="10" stroke-dasharray="6,4"/></g><g transform="translate(-30,-38) scale(1,1)"><path fill="none" stroke="#000000" d="M 498.16267485762415 371.790482243984 L 488 376 L 498.16267485762415 380.209517756016" stroke-miterlimit="10"/></g><g transform="translate(-30,-38) scale(1,1)"><g><path fill="none" stroke="none"/><text fill="#000000" stroke="none" font-family="Arial" font-size="13px" font-style="normal" font-weight="normal" text-decoration="none" x="605" y="354">8:bet.getInset()</text></g></g><g transform="translate(-30,-38) scale(1,1)"><g><path fill="none" stroke="none"/><text fill="#000000" stroke="none" font-family="Arial" font-size="13px" font-style="normal" font-weight="normal" text-decoration="none" x="645" y="394">9:</text></g></g><g transform="translate(-30,-38) scale(1,1)"><path fill="none" stroke="#000000" d="M 472 400 L 250 399" stroke-miterlimit="10" stroke-dasharray="6,4"/></g><g transform="translate(-30,-38) scale(1,1)"><path fill="none" stroke="#000000" d="M 260.18153335533094 394.83630230032446 L 250 399 L 260.14361015668294 403.2552524001801" stroke-miterlimit="10"/></g><g transform="translate(-30,-38) scale(1,1)"><g><path fill="none" stroke="none"/><text fill="#000000" stroke="none" font-family="Arial" font-size="13px" font-style="normal" font-weight="normal" text-decoration="none" x="269" y="418">10:Template:customer_bets.html</text></g></g><g transform="translate(-30,-38) scale(1,1)"><rect fill="#9ccc95" stroke="none" x="472" y="440" width="16" height="184"/></g><g transform="translate(-30,-38) scale(1,1)"><path fill="none" stroke="#000000" d="M 472 440 L 488 440 L 488 624 L 472 624 L 472 440 Z Z" stroke-miterlimit="10"/></g><g transform="translate(-30,-38) scale(1,1)"><rect fill="#9ccc95" stroke="none" x="832" y="464" width="17" height="56"/></g><g transform="translate(-30,-38) scale(1,1)"><path fill="none" stroke="#000000" d="M 832 464 L 849 464 L 849 520 L 832 520 L 832 464 Z Z" stroke-miterlimit="10"/></g><g transform="translate(-30,-38) scale(1,1)"><rect fill="#9ccc95" stroke="none" x="696" y="536" width="17" height="56"/></g><g transform="translate(-30,-38) scale(1,1)"><path fill="none" stroke="#000000" d="M 696 536 L 713 536 L 713 592 L 696 592 L 696 536 Z Z" stroke-miterlimit="10"/></g><g transform="translate(-30,-38) scale(1,1)"><path fill="none" stroke="#000000" d="M 248 464 L 248 465 L 469 465" stroke-miterlimit="10"/></g><g transform="translate(-30,-38) scale(1,1)"><path fill="none" stroke="#000000" d="M 458.83732514237585 469.209517756016 L 469 465 L 458.83732514237585 460.790482243984" stroke-miterlimit="10"/></g><g transform="translate(-30,-38) scale(1,1)"><path fill="none" stroke="#000000" d="M 488 480 L 832 480" stroke-miterlimit="10"/></g><g transform="translate(-30,-38) scale(1,1)"><path fill="none" stroke="#000000" d="M 821.8373251423759 484.209517756016 L 832 480 L 821.8373251423758 475.790482243984" stroke-miterlimit="10"/></g><g transform="translate(-30,-38) scale(1,1)"><path fill="none" stroke="#000000" d="M 832 496 L 487 496" stroke-miterlimit="10" stroke-dasharray="6,4"/></g><g transform="translate(-30,-38) scale(1,1)"><path fill="none" stroke="#000000" d="M 497.16267485762415 491.790482243984 L 487 496 L 497.16267485762415 500.209517756016" stroke-miterlimit="10"/></g><g transform="translate(-30,-38) scale(1,1)"><path fill="none" stroke="#000000" d="M 488 552 L 488 555 L 696 555" stroke-miterlimit="10"/></g><g transform="translate(-30,-38) scale(1,1)"><path fill="none" stroke="#000000" d="M 685.8373251423759 559.209517756016 L 696 555 L 685.8373251423758 550.790482243984" stroke-miterlimit="10"/></g><g transform="translate(-30,-38) scale(1,1)"><path fill="none" stroke="#000000" d="M 696 576 L 492 576" stroke-miterlimit="10" stroke-dasharray="6,4"/></g><g transform="translate(-30,-38) scale(1,1)"><path fill="none" stroke="#000000" d="M 502.16267485762415 571.790482243984 L 492 576 L 502.16267485762415 580.209517756016" stroke-miterlimit="10"/></g><g transform="translate(-30,-38) scale(1,1)"><path fill="none" stroke="#000000" d="M 440 832 L 440 832" stroke-miterlimit="10"/></g><g transform="translate(-30,-38) scale(1,1)"><path fill="none" stroke="#000000" d="M 472 616 L 249 616" stroke-miterlimit="10" stroke-dasharray="6,4"/></g><g transform="translate(-30,-38) scale(1,1)"><path fill="none" stroke="#000000" d="M 259.16267485762415 611.790482243984 L 249 616 L 259.16267485762415 620.209517756016" stroke-miterlimit="10"/></g><g transform="translate(-30,-38) scale(1,1)"><g><path fill="none" stroke="none"/><text fill="#000000" stroke="none" font-family="Arial" font-size="13px" font-style="normal" font-weight="normal" text-decoration="none" x="301" y="466">11:removeBet()</text></g></g><g transform="translate(-30,-38) scale(1,1)"><g><path fill="none" stroke="none"/><text fill="#000000" stroke="none" font-family="Arial" font-size="13px" font-style="normal" font-weight="normal" text-decoration="none" x="589" y="458">12:customer.getAll    NumberBetList()</text></g></g><g transform="translate(-30,-38) scale(1,1)"><g><path fill="none" stroke="none"/><text fill="#000000" stroke="none" font-family="Arial" font-size="13px" font-style="normal" font-weight="normal" text-decoration="none" x="589" y="473">    customer.getAll    FootballBetList()</text></g></g><g transform="translate(-30,-38) scale(1,1)"><g><path fill="none" stroke="none"/><text fill="#000000" stroke="none" font-family="Arial" font-size="13px" font-style="normal" font-weight="normal" text-decoration="none" x="661" y="514">13:</text></g></g><g transform="translate(-30,-38) scale(1,1)"><g><path fill="none" stroke="none"/><text fill="#000000" stroke="none" font-family="Arial" font-size="13px" font-style="normal" font-weight="normal" text-decoration="none" x="501" y="538">14:remove(footballBetRemove)</text></g></g><g transform="translate(-30,-38) scale(1,1)"><g><path fill="none" stroke="none"/><text fill="#000000" stroke="none" font-family="Arial" font-size="13px" font-style="normal" font-weight="normal" text-decoration="none" x="501" y="553">     remove(numberBetRemove)</text></g></g><g transform="translate(-30,-38) scale(1,1)"><g><path fill="none" stroke="none"/><text fill="#000000" stroke="none" font-family="Arial" font-size="13px" font-style="normal" font-weight="normal" text-decoration="none" x="581" y="602">15:</text></g></g><g transform="translate(-30,-38) scale(1,1)"><g><path fill="none" stroke="none"/><text fill="#000000" stroke="none" font-family="Arial" font-size="13px" font-style="normal" font-weight="normal" text-decoration="none" x="269" y="610">16:Template:customer_bets.html</text></g></g><g transform="translate(-30,-38) scale(1,1)"><rect fill="#C0C0C0" stroke="none" x="71" y="95" width="56" height="32" opacity="0.2"/></g><g transform="translate(-30,-38) scale(1,1)"><rect fill="#9ccc95" stroke="none" x="64" y="88" width="56" height="32"/></g><g transform="translate(-30,-38) scale(1,1)"><path fill="none" stroke="#000000" d="M 64 88 L 120 88 L 120 120 L 64 120 L 64 88 Z Z" stroke-miterlimit="10"/></g><g transform="translate(-30,-38) scale(1,1)"><rect fill="#9ccc95" stroke="none" x="64" y="88" width="56" height="32"/></g><g transform="translate(-30,-38) scale(1,1)"><path fill="none" stroke="#000000" d="M 64 88 L 120 88 L 120 120 L 64 120 L 64 88 Z Z" stroke-miterlimit="10"/></g><g transform="translate(-30,-38) scale(1,1)"><g><path fill="none" stroke="none"/><text fill="#000000" stroke="none" font-family="Arial" font-size="13px" font-style="normal" font-weight="bold" text-decoration="none" x="73.575927734375" y="107.5">Admin</text><path fill="none" stroke="#000000" d="M 112.220458984375 107.5 L 71.779541015625 107.5" stroke-miterlimit="10"/></g></g><g transform="translate(-30,-38) scale(1,1)"><path fill="none" stroke="#000000" d="M 80 816 L 80 816" stroke-miterlimit="10"/></g><g transform="translate(-30,-38) scale(1,1)"><path fill="none" stroke="#000000" d="M 96 120 L 96 976" stroke-miterlimit="10" stroke-dasharray="6,4"/></g><g transform="translate(-30,-38) scale(1,1)"><rect fill="#9ccc95" stroke="none" x="88" y="680" width="16" height="167"/></g><g transform="translate(-30,-38) scale(1,1)"><path fill="none" stroke="#000000" d="M 88 680 L 104 680 L 104 847 L 88 847 L 88 680 Z Z" stroke-miterlimit="10"/></g><g transform="translate(-30,-38) scale(1,1)"><rect fill="#9ccc95" stroke="none" x="472" y="688" width="16" height="144"/></g><g transform="translate(-30,-38) scale(1,1)"><path fill="none" stroke="#000000" d="M 472 688 L 488 688 L 488 832 L 472 832 L 472 688 Z Z" stroke-miterlimit="10"/></g><g transform="translate(-30,-38) scale(1,1)"><rect fill="#9ccc95" stroke="none" x="696" y="696" width="16" height="40"/></g><g transform="translate(-30,-38) scale(1,1)"><path fill="none" stroke="#000000" d="M 696 696 L 712 696 L 712 736 L 696 736 L 696 696 Z Z" stroke-miterlimit="10"/></g><g transform="translate(-30,-38) scale(1,1)"><rect fill="#9ccc95" stroke="none" x="832" y="752" width="16" height="57"/></g><g transform="translate(-30,-38) scale(1,1)"><path fill="none" stroke="#000000" d="M 832 752 L 848 752 L 848 809 L 832 809 L 832 752 Z Z" stroke-miterlimit="10"/></g><g transform="translate(-30,-38) scale(1,1)"><path fill="none" stroke="#000000" d="M 104 696 L 104 698 L 472 698" stroke-miterlimit="10"/></g><g transform="translate(-30,-38) scale(1,1)"><path fill="none" stroke="#000000" d="M 461.83732514237585 702.209517756016 L 472 698 L 461.83732514237585 693.790482243984" stroke-miterlimit="10"/></g><g transform="translate(-30,-38) scale(1,1)"><path fill="none" stroke="#000000" d="M 488 704 L 488 710 L 694 710" stroke-miterlimit="10"/></g><g transform="translate(-30,-38) scale(1,1)"><path fill="none" stroke="#000000" d="M 683.8373251423759 714.209517756016 L 694 710 L 683.8373251423758 705.790482243984" stroke-miterlimit="10"/></g><g transform="translate(-30,-38) scale(1,1)"><path fill="none" stroke="#000000" d="M 488 728 L 694 728 L 694 731" stroke-miterlimit="10" stroke-dasharray="6,4"/></g><g transform="translate(-30,-38) scale(1,1)"><path fill="none" stroke="#000000" d="M 498.16267485762415 723.790482243984 L 488 728 L 498.16267485762415 732.209517756016" stroke-miterlimit="10"/></g><g transform="translate(-30,-38) scale(1,1)"><path fill="none" stroke="#000000" d="M 488 760 L 488 770 L 832 770" stroke-miterlimit="10"/></g><g transform="translate(-30,-38) scale(1,1)"><path fill="none" stroke="#000000" d="M 821.8373251423759 774.209517756016 L 832 770 L 821.8373251423758 765.790482243984" stroke-miterlimit="10"/></g><g transform="translate(-30,-38) scale(1,1)"><path fill="none" stroke="#000000" d="M 832 792 L 488 792" stroke-miterlimit="10"/></g><g transform="translate(-30,-38) scale(1,1)"><path fill="none" stroke="#000000" d="M 498.16267485762415 787.790482243984 L 488 792 L 498.16267485762415 796.209517756016" stroke-miterlimit="10"/></g><g transform="translate(-30,-38) scale(1,1)"><path fill="none" stroke="#000000" d="M 472 808 L 472 816 L 104 816" stroke-miterlimit="10" stroke-dasharray="6,4"/></g><g transform="translate(-30,-38) scale(1,1)"><path fill="none" stroke="#000000" d="M 114.16267485762415 811.790482243984 L 104 816 L 114.16267485762415 820.209517756016" stroke-miterlimit="10"/></g><g transform="translate(-30,-38) scale(1,1)"><path fill="none" stroke="#000000" d="M 232 784 L 232 784" stroke-miterlimit="10"/></g><g transform="translate(-30,-38) scale(1,1)"><g><path fill="none" stroke="none"/><text fill="#000000" stroke="none" font-family="Arial" font-size="13px" font-style="normal" font-weight="normal" text-decoration="none" x="261" y="690">17:result()</text></g></g><g transform="translate(-30,-38) scale(1,1)"><g><path fill="none" stroke="none"/><text fill="#000000" stroke="none" font-family="Arial" font-size="13px" font-style="normal" font-weight="normal" text-decoration="none" x="533" y="690">18:getscoreHost,</text></g></g><g transform="translate(-30,-38) scale(1,1)"><g><path fill="none" stroke="none"/><text fill="#000000" stroke="none" font-family="Arial" font-size="13px" font-style="normal" font-weight="normal" text-decoration="none" x="533" y="705">          scoreGuest</text></g></g><g transform="translate(-30,-38) scale(1,1)"><g><path fill="none" stroke="none"/><text fill="#000000" stroke="none" font-family="Arial" font-size="13px" font-style="normal" font-weight="normal" text-decoration="none" x="581" y="746">19:</text></g></g><g transform="translate(-30,-38) scale(1,1)"><g><path fill="none" stroke="none"/><text fill="#000000" stroke="none" font-family="Arial" font-size="13px" font-style="normal" font-weight="normal" text-decoration="none" x="581" y="770">20:add match.result   to Model</text></g></g><g transform="translate(-30,-38) scale(1,1)"><g><path fill="none" stroke="none"/><text fill="#000000" stroke="none" font-family="Arial" font-size="13px" font-style="normal" font-weight="normal" text-decoration="none" x="605" y="810">21:</text></g></g><g transform="translate(-30,-38) scale(1,1)"><g><path fill="none" stroke="none"/><text fill="#000000" stroke="none" font-family="Arial" font-size="13px" font-style="normal" font-weight="normal" text-decoration="none" x="245" y="834">22:Template:navigation.html</text></g></g></g></svg>