<svg version="1.1" xmlns="http://www.w3.org/2000/svg" xmlns:xlink="http://www.w3.org/1999/xlink" width="820" height="1252"><defs/><g><g transform="translate(-1230,2) scale(1,1)"><path fill="none" stroke="#000000" d="M 1240 8 L 2040 8 L 2040 1240 L 1240 1240 L 1240 8" stroke-miterlimit="10"/></g><g transform="translate(-1230,2) scale(1,1)"><path fill="#9ccc95" stroke="none" d="M 1240 8 L 1240 30 L 1339.83984375 30 L 1350.83984375 19 L 1350.83984375 8 L 1240 8"/></g><g transform="translate(-1230,2) scale(1,1)"><path fill="none" stroke="#000000" d="M 1240 8 L 1240 30 L 1339.83984375 30 L 1350.83984375 19 L 1350.83984375 8 L 1240 8 L 1240 8" stroke-miterlimit="10"/></g><g transform="translate(-1230,2) scale(1,1)"><g><path fill="none" stroke="none"/><text fill="#000000" stroke="none" font-family="Arial" font-size="13px" font-style="normal" font-weight="normal" text-decoration="none" x="1264.72998046875" y="25.5">seq_catalog</text></g></g><g transform="translate(-1230,2) scale(1,1)"><g><path fill="none" stroke="none"/><text fill="#000000" stroke="none" font-family="Arial" font-size="13px" font-style="normal" font-weight="bold" text-decoration="none" x="1245" y="25.5">sd</text></g></g><g transform="translate(-1230,2) scale(1,1)"><rect fill="#C0C0C0" stroke="none" x="1343" y="47" width="47.9072265625" height="39" opacity="0.2"/></g><g transform="translate(-1230,2) scale(1,1)"><rect fill="#9ccc95" stroke="none" x="1336" y="40" width="47.9072265625" height="39"/></g><g transform="translate(-1230,2) scale(1,1)"><path fill="none" stroke="#000000" d="M 1336 40 L 1383.9072265625 40 L 1383.9072265625 79 L 1336 79 L 1336 40 Z Z" stroke-miterlimit="10"/></g><g transform="translate(-1230,2) scale(1,1)"><g><path fill="none" stroke="none"/><text fill="#000000" stroke="none" font-family="Arial" font-size="13px" font-style="normal" font-weight="bold" text-decoration="none" x="1346.22998046875" y="59.5">User</text></g></g><g transform="translate(-1230,2) scale(1,1)"><path fill="none" stroke="#000000" d="M 1360.5 80 L 1360.5 1216" stroke-miterlimit="10" stroke-dasharray="3"/></g><g transform="translate(-1230,2) scale(1,1)"><rect fill="#C0C0C0" stroke="none" x="1471" y="47" width="71.736328125" height="39" opacity="0.2"/></g><g transform="translate(-1230,2) scale(1,1)"><rect fill="#9ccc95" stroke="none" x="1464" y="40" width="71.736328125" height="39"/></g><g transform="translate(-1230,2) scale(1,1)"><path fill="none" stroke="#000000" d="M 1464 40 L 1535.736328125 40 L 1535.736328125 79 L 1464 79 L 1464 40 Z Z" stroke-miterlimit="10"/></g><g transform="translate(-1230,2) scale(1,1)"><g><path fill="none" stroke="none"/><text fill="#000000" stroke="none" font-family="Arial" font-size="13px" font-style="normal" font-weight="bold" text-decoration="none" x="1477.464111328125" y="59.5">Catalog</text></g></g><g transform="translate(-1230,2) scale(1,1)"><path fill="none" stroke="#000000" d="M 1500.5 80 L 1500.5 1216" stroke-miterlimit="10" stroke-dasharray="3"/></g><g transform="translate(-1230,2) scale(1,1)"><rect fill="#C0C0C0" stroke="none" x="1719" y="47" width="84.736328125" height="39" opacity="0.2"/></g><g transform="translate(-1230,2) scale(1,1)"><rect fill="#9ccc95" stroke="none" x="1712" y="40" width="84.736328125" height="39"/></g><g transform="translate(-1230,2) scale(1,1)"><path fill="none" stroke="#000000" d="M 1712 40 L 1796.736328125 40 L 1796.736328125 79 L 1712 79 L 1712 40 Z Z" stroke-miterlimit="10"/></g><g transform="translate(-1230,2) scale(1,1)"><g><path fill="none" stroke="none"/><text fill="#000000" stroke="none" font-family="Arial" font-size="13px" font-style="normal" font-weight="bold" text-decoration="none" x="1724.013671875" y="59.5">Salespoint</text></g></g><g transform="translate(-1230,2) scale(1,1)"><path fill="none" stroke="#000000" d="M 1755.5 80 L 1755.5 1216" stroke-miterlimit="10" stroke-dasharray="3"/></g><g transform="translate(-1230,2) scale(1,1)"><rect fill="#C0C0C0" stroke="none" x="1839" y="47" width="71.736328125" height="39" opacity="0.2"/></g><g transform="translate(-1230,2) scale(1,1)"><rect fill="#9ccc95" stroke="none" x="1832" y="40" width="71.736328125" height="39"/></g><g transform="translate(-1230,2) scale(1,1)"><path fill="none" stroke="#000000" d="M 1832 40 L 1903.736328125 40 L 1903.736328125 79 L 1832 79 L 1832 40 Z Z" stroke-miterlimit="10"/></g><g transform="translate(-1230,2) scale(1,1)"><g><path fill="none" stroke="none"/><text fill="#000000" stroke="none" font-family="Arial" font-size="13px" font-style="normal" font-weight="bold" text-decoration="none" x="1849.0791015625" y="59.5">Spring</text></g></g><g transform="translate(-1230,2) scale(1,1)"><path fill="none" stroke="#000000" d="M 1868.5 80 L 1868.5 1216" stroke-miterlimit="10" stroke-dasharray="3"/></g><g transform="translate(-1230,2) scale(1,1)"><rect fill="#C0C0C0" stroke="none" x="1951" y="47" width="71.736328125" height="39" opacity="0.2"/></g><g transform="translate(-1230,2) scale(1,1)"><rect fill="#9ccc95" stroke="none" x="1944" y="40" width="71.736328125" height="39"/></g><g transform="translate(-1230,2) scale(1,1)"><path fill="none" stroke="#000000" d="M 1944 40 L 2015.736328125 40 L 2015.736328125 79 L 1944 79 L 1944 40 Z Z" stroke-miterlimit="10"/></g><g transform="translate(-1230,2) scale(1,1)"><g><path fill="none" stroke="none"/><text fill="#000000" stroke="none" font-family="Arial" font-size="13px" font-style="normal" font-weight="bold" text-decoration="none" x="1965.665283203125" y="59.5">Time</text></g></g><g transform="translate(-1230,2) scale(1,1)"><path fill="none" stroke="#000000" d="M 1980.5 80 L 1980.5 1216" stroke-miterlimit="10" stroke-dasharray="3"/></g><g transform="translate(-1230,2) scale(1,1)"><g><path fill="none" stroke="none"/><text fill="#000000" stroke="none" font-family="Arial" font-size="13px" font-style="normal" font-weight="normal" text-decoration="none" x="1365" y="282">3_catalog_num.html</text></g></g><g transform="translate(-1230,2) scale(1,1)"><g><path fill="none" stroke="none"/><text fill="#000000" stroke="none" font-family="Arial" font-size="13px" font-style="normal" font-weight="normal" text-decoration="none" x="1373" y="530">2_catalg_foot.html</text></g></g><g transform="translate(-1230,2) scale(1,1)"><g><path fill="none" stroke="none"/><text fill="#000000" stroke="none" font-family="Arial" font-size="13px" font-style="normal" font-weight="normal" text-decoration="none" x="1373" y="850">3_catalg_num.html</text></g></g><g transform="translate(-1230,2) scale(1,1)"><g><path fill="none" stroke="none"/><text fill="#000000" stroke="none" font-family="Arial" font-size="13px" font-style="normal" font-weight="normal" text-decoration="none" x="1573" y="1130">save football item in</text><text fill="#000000" stroke="none" font-family="Arial" font-size="13px" font-style="normal" font-weight="normal" text-decoration="none" x="1573" y="1143">lotteryCatalog</text></g></g><g transform="translate(-1230,2) scale(1,1)"><g><path fill="none" stroke="none"/><text fill="#000000" stroke="none" font-family="Arial" font-size="13px" font-style="normal" font-weight="normal" text-decoration="none" x="1373" y="1162">2_catalg_foot.html</text></g></g><g transform="translate(-1230,2) scale(1,1)"><rect fill="#9ccc95" stroke="none" x="1352" y="104" width="9" height="1080"/></g><g transform="translate(-1230,2) scale(1,1)"><path fill="none" stroke="#000000" d="M 1352 104 L 1361 104 L 1361 1184 L 1352 1184 L 1352 104 Z Z" stroke-miterlimit="10"/></g><g transform="translate(-1230,2) scale(1,1)"><path fill="none" stroke="#000000" d="M 1360 107 L 1493 107" stroke-miterlimit="10"/></g><g transform="translate(-1230,2) scale(1,1)"><path fill="#000000" stroke="none" d="M 1482.837325142376 111.20951775601598 L 1493 107 L 1482.837325142376 102.79048224398402"/></g><g transform="translate(-1230,2) scale(1,1)"><path fill="none" stroke="#000000" d="M 1482.837325142376 111.20951775601598 L 1493 107 L 1482.837325142376 102.79048224398402 L 1482.837325142376 111.20951775601598" stroke-miterlimit="10"/></g><g transform="translate(-1230,2) scale(1,1)"><g><path fill="none" stroke="none"/><text fill="#000000" stroke="none" font-family="Arial" font-size="13px" font-style="normal" font-weight="normal" text-decoration="none" x="1375.5" y="100.5">1 : ticketCatalog()</text></g></g><g transform="translate(-1230,2) scale(1,1)"><rect fill="#9ccc95" stroke="none" x="1493" y="107" width="13" height="189"/></g><g transform="translate(-1230,2) scale(1,1)"><path fill="none" stroke="#000000" d="M 1493 107 L 1506 107 L 1506 296 L 1493 296 L 1493 107 Z Z" stroke-miterlimit="10"/></g><g transform="translate(-1230,2) scale(1,1)"><path fill="none" stroke="#000000" d="M 1506 112 L 1536 112 L 1536 132 L 1513 132" stroke-miterlimit="10"/></g><g transform="translate(-1230,2) scale(1,1)"><path fill="#000000" stroke="none" d="M 1523.162674857624 127.79048224398402 L 1513 132 L 1523.162674857624 136.209517756016"/></g><g transform="translate(-1230,2) scale(1,1)"><path fill="none" stroke="#000000" d="M 1523.162674857624 127.79048224398402 L 1513 132 L 1523.162674857624 136.209517756016 L 1523.162674857624 127.79048224398402" stroke-miterlimit="10"/></g><g transform="translate(-1230,2) scale(1,1)"><g><path fill="none" stroke="none"/><text fill="#000000" stroke="none" font-family="Arial" font-size="13px" font-style="normal" font-weight="normal" text-decoration="none" x="1543.5" y="124.5">2 : lotteryCatalog.findbyType()</text></g></g><g transform="translate(-1230,2) scale(1,1)"><rect fill="#9ccc95" stroke="none" x="1500" y="132" width="13" height="28"/></g><g transform="translate(-1230,2) scale(1,1)"><path fill="none" stroke="#000000" d="M 1500 132 L 1513 132 L 1513 160 L 1500 160 L 1500 132 Z Z" stroke-miterlimit="10"/></g><g transform="translate(-1230,2) scale(1,1)"><path fill="none" stroke="#000000" d="M 1506 177 L 1861 177" stroke-miterlimit="10"/></g><g transform="translate(-1230,2) scale(1,1)"><path fill="#000000" stroke="none" d="M 1850.837325142376 181.209517756016 L 1861 177 L 1850.837325142376 172.790482243984"/></g><g transform="translate(-1230,2) scale(1,1)"><path fill="none" stroke="#000000" d="M 1850.837325142376 181.209517756016 L 1861 177 L 1850.837325142376 172.790482243984 L 1850.837325142376 181.209517756016" stroke-miterlimit="10"/></g><g transform="translate(-1230,2) scale(1,1)"><g><path fill="none" stroke="none"/><text fill="#000000" stroke="none" font-family="Arial" font-size="13px" font-style="normal" font-weight="normal" text-decoration="none" x="1616.5" y="171.5">3 : add Ticket to Model</text></g></g><g transform="translate(-1230,2) scale(1,1)"><rect fill="#9ccc95" stroke="none" x="1861" y="177" width="13" height="28"/></g><g transform="translate(-1230,2) scale(1,1)"><path fill="none" stroke="#000000" d="M 1861 177 L 1874 177 L 1874 205 L 1861 205 L 1861 177 Z Z" stroke-miterlimit="10"/></g><g transform="translate(-1230,2) scale(1,1)"><path fill="none" stroke="#000000" d="M 1861 200 L 1506 200" stroke-miterlimit="10" stroke-dasharray="3"/></g><g transform="translate(-1230,2) scale(1,1)"><path fill="none" stroke="#000000" d="M 1516.162674857624 195.790482243984 L 1506 200 L 1516.162674857624 204.209517756016" stroke-miterlimit="10"/></g><g transform="translate(-1230,2) scale(1,1)"><g><path fill="none" stroke="none"/><text fill="#000000" stroke="none" font-family="Arial" font-size="13px" font-style="normal" font-weight="normal" text-decoration="none" x="1672.5" y="216.5">4 : </text></g></g><g transform="translate(-1230,2) scale(1,1)"><path fill="none" stroke="#000000" d="M 1506 247 L 1861 247" stroke-miterlimit="10"/></g><g transform="translate(-1230,2) scale(1,1)"><path fill="#000000" stroke="none" d="M 1850.837325142376 251.209517756016 L 1861 247 L 1850.837325142376 242.790482243984"/></g><g transform="translate(-1230,2) scale(1,1)"><path fill="none" stroke="#000000" d="M 1850.837325142376 251.209517756016 L 1861 247 L 1850.837325142376 242.790482243984 L 1850.837325142376 251.209517756016" stroke-miterlimit="10"/></g><g transform="translate(-1230,2) scale(1,1)"><g><path fill="none" stroke="none"/><text fill="#000000" stroke="none" font-family="Arial" font-size="13px" font-style="normal" font-weight="normal" text-decoration="none" x="1624.5" y="243.5">5 : add title to Model</text></g></g><g transform="translate(-1230,2) scale(1,1)"><rect fill="#9ccc95" stroke="none" x="1861" y="247" width="13" height="28"/></g><g transform="translate(-1230,2) scale(1,1)"><path fill="none" stroke="#000000" d="M 1861 247 L 1874 247 L 1874 275 L 1861 275 L 1861 247 Z Z" stroke-miterlimit="10"/></g><g transform="translate(-1230,2) scale(1,1)"><path fill="none" stroke="#000000" d="M 1861 270 L 1506 270" stroke-miterlimit="10" stroke-dasharray="3"/></g><g transform="translate(-1230,2) scale(1,1)"><path fill="none" stroke="#000000" d="M 1516.162674857624 265.790482243984 L 1506 270 L 1516.162674857624 274.209517756016" stroke-miterlimit="10"/></g><g transform="translate(-1230,2) scale(1,1)"><g><path fill="none" stroke="none"/><text fill="#000000" stroke="none" font-family="Arial" font-size="13px" font-style="normal" font-weight="normal" text-decoration="none" x="1672.5" y="286.5">6 : </text></g></g><g transform="translate(-1230,2) scale(1,1)"><path fill="none" stroke="#000000" d="M 1493 292 L 1360 292" stroke-miterlimit="10" stroke-dasharray="3"/></g><g transform="translate(-1230,2) scale(1,1)"><path fill="none" stroke="#000000" d="M 1370.162674857624 287.790482243984 L 1360 292 L 1370.162674857624 296.209517756016" stroke-miterlimit="10"/></g><g transform="translate(-1230,2) scale(1,1)"><g><path fill="none" stroke="none"/><text fill="#000000" stroke="none" font-family="Arial" font-size="13px" font-style="normal" font-weight="normal" text-decoration="none" x="1386.034912109375" y="267.5">7 : Template: </text></g></g><g transform="translate(-1230,2) scale(1,1)"><path fill="none" stroke="#000000" d="M 1360 340 L 1493 340" stroke-miterlimit="10"/></g><g transform="translate(-1230,2) scale(1,1)"><path fill="#000000" stroke="none" d="M 1482.837325142376 344.209517756016 L 1493 340 L 1482.837325142376 335.790482243984"/></g><g transform="translate(-1230,2) scale(1,1)"><path fill="none" stroke="#000000" d="M 1482.837325142376 344.209517756016 L 1493 340 L 1482.837325142376 335.790482243984 L 1482.837325142376 344.209517756016" stroke-miterlimit="10"/></g><g transform="translate(-1230,2) scale(1,1)"><g><path fill="none" stroke="none"/><text fill="#000000" stroke="none" font-family="Arial" font-size="13px" font-style="normal" font-weight="normal" text-decoration="none" x="1369.5" y="336.5">8 : footballCatalog()</text></g></g><g transform="translate(-1230,2) scale(1,1)"><rect fill="#9ccc95" stroke="none" x="1493" y="340" width="13" height="204"/></g><g transform="translate(-1230,2) scale(1,1)"><path fill="none" stroke="#000000" d="M 1493 340 L 1506 340 L 1506 544 L 1493 544 L 1493 340 Z Z" stroke-miterlimit="10"/></g><g transform="translate(-1230,2) scale(1,1)"><path fill="none" stroke="#000000" d="M 1506 360 L 1536 360 L 1536 380 L 1513 380" stroke-miterlimit="10"/></g><g transform="translate(-1230,2) scale(1,1)"><path fill="#000000" stroke="none" d="M 1523.162674857624 375.790482243984 L 1513 380 L 1523.162674857624 384.209517756016"/></g><g transform="translate(-1230,2) scale(1,1)"><path fill="none" stroke="#000000" d="M 1523.162674857624 375.790482243984 L 1513 380 L 1523.162674857624 384.209517756016 L 1523.162674857624 375.790482243984" stroke-miterlimit="10"/></g><g transform="translate(-1230,2) scale(1,1)"><g><path fill="none" stroke="none"/><text fill="#000000" stroke="none" font-family="Arial" font-size="13px" font-style="normal" font-weight="normal" text-decoration="none" x="1519.5" y="356.5">9 : lotteryCatalog.findbyType()</text></g></g><g transform="translate(-1230,2) scale(1,1)"><rect fill="#9ccc95" stroke="none" x="1500" y="380" width="13" height="28"/></g><g transform="translate(-1230,2) scale(1,1)"><path fill="none" stroke="#000000" d="M 1500 380 L 1513 380 L 1513 408 L 1500 408 L 1500 380 Z Z" stroke-miterlimit="10"/></g><g transform="translate(-1230,2) scale(1,1)"><path fill="none" stroke="#000000" d="M 1506 444 L 1861 444" stroke-miterlimit="10"/></g><g transform="translate(-1230,2) scale(1,1)"><path fill="#000000" stroke="none" d="M 1850.837325142376 448.209517756016 L 1861 444 L 1850.837325142376 439.790482243984"/></g><g transform="translate(-1230,2) scale(1,1)"><path fill="none" stroke="#000000" d="M 1850.837325142376 448.209517756016 L 1861 444 L 1850.837325142376 439.790482243984 L 1850.837325142376 448.209517756016" stroke-miterlimit="10"/></g><g transform="translate(-1230,2) scale(1,1)"><g><path fill="none" stroke="none"/><text fill="#000000" stroke="none" font-family="Arial" font-size="13px" font-style="normal" font-weight="normal" text-decoration="none" x="1583.5" y="440.5">10 : add football matches to Model</text></g></g><g transform="translate(-1230,2) scale(1,1)"><rect fill="#9ccc95" stroke="none" x="1861" y="444" width="13" height="28"/></g><g transform="translate(-1230,2) scale(1,1)"><path fill="none" stroke="#000000" d="M 1861 444 L 1874 444 L 1874 472 L 1861 472 L 1861 444 Z Z" stroke-miterlimit="10"/></g><g transform="translate(-1230,2) scale(1,1)"><path fill="none" stroke="#000000" d="M 1868 473 L 1506 473" stroke-miterlimit="10" stroke-dasharray="3"/></g><g transform="translate(-1230,2) scale(1,1)"><path fill="none" stroke="#000000" d="M 1516.162674857624 468.790482243984 L 1506 473 L 1516.162674857624 477.209517756016" stroke-miterlimit="10"/></g><g transform="translate(-1230,2) scale(1,1)"><g><path fill="none" stroke="none"/><text fill="#000000" stroke="none" font-family="Arial" font-size="13px" font-style="normal" font-weight="normal" text-decoration="none" x="1673.5" y="489.5">11 : </text></g></g><g transform="translate(-1230,2) scale(1,1)"><path fill="none" stroke="#000000" d="M 1506 512 L 1861 512" stroke-miterlimit="10"/></g><g transform="translate(-1230,2) scale(1,1)"><path fill="#000000" stroke="none" d="M 1850.837325142376 516.209517756016 L 1861 512 L 1850.837325142376 507.790482243984"/></g><g transform="translate(-1230,2) scale(1,1)"><path fill="none" stroke="#000000" d="M 1850.837325142376 516.209517756016 L 1861 512 L 1850.837325142376 507.790482243984 L 1850.837325142376 516.209517756016" stroke-miterlimit="10"/></g><g transform="translate(-1230,2) scale(1,1)"><g><path fill="none" stroke="none"/><text fill="#000000" stroke="none" font-family="Arial" font-size="13px" font-style="normal" font-weight="normal" text-decoration="none" x="1620.5" y="508.5">12 : add title to Model</text></g></g><g transform="translate(-1230,2) scale(1,1)"><rect fill="#9ccc95" stroke="none" x="1861" y="512" width="13" height="28"/></g><g transform="translate(-1230,2) scale(1,1)"><path fill="none" stroke="#000000" d="M 1861 512 L 1874 512 L 1874 540 L 1861 540 L 1861 512 Z Z" stroke-miterlimit="10"/></g><g transform="translate(-1230,2) scale(1,1)"><path fill="none" stroke="#000000" d="M 1861 536 L 1506 536" stroke-miterlimit="10" stroke-dasharray="3"/></g><g transform="translate(-1230,2) scale(1,1)"><path fill="none" stroke="#000000" d="M 1516.162674857624 531.790482243984 L 1506 536 L 1516.162674857624 540.209517756016" stroke-miterlimit="10"/></g><g transform="translate(-1230,2) scale(1,1)"><g><path fill="none" stroke="none"/><text fill="#000000" stroke="none" font-family="Arial" font-size="13px" font-style="normal" font-weight="normal" text-decoration="none" x="1669.5" y="552.5">13 : </text></g></g><g transform="translate(-1230,2) scale(1,1)"><path fill="none" stroke="#000000" d="M 1500 544 L 1360 544" stroke-miterlimit="10" stroke-dasharray="3"/></g><g transform="translate(-1230,2) scale(1,1)"><path fill="none" stroke="#000000" d="M 1370.162674857624 539.790482243984 L 1360 544 L 1370.162674857624 548.209517756016" stroke-miterlimit="10"/></g><g transform="translate(-1230,2) scale(1,1)"><g><path fill="none" stroke="none"/><text fill="#000000" stroke="none" font-family="Arial" font-size="13px" font-style="normal" font-weight="normal" text-decoration="none" x="1382.5" y="499.5">14 : Template</text></g></g><g transform="translate(-1230,2) scale(1,1)"><path fill="none" stroke="#000000" d="M 1360 607 L 1493 607" stroke-miterlimit="10"/></g><g transform="translate(-1230,2) scale(1,1)"><path fill="#000000" stroke="none" d="M 1482.837325142376 611.209517756016 L 1493 607 L 1482.837325142376 602.790482243984"/></g><g transform="translate(-1230,2) scale(1,1)"><path fill="none" stroke="#000000" d="M 1482.837325142376 611.209517756016 L 1493 607 L 1482.837325142376 602.790482243984 L 1482.837325142376 611.209517756016" stroke-miterlimit="10"/></g><g transform="translate(-1230,2) scale(1,1)"><g><path fill="none" stroke="none"/><text fill="#000000" stroke="none" font-family="Arial" font-size="13px" font-style="normal" font-weight="normal" text-decoration="none" x="1383.864990234375" y="603.5">15 : bet_num()</text></g></g><g transform="translate(-1230,2) scale(1,1)"><rect fill="#9ccc95" stroke="none" x="1493" y="607" width="13" height="260"/></g><g transform="translate(-1230,2) scale(1,1)"><path fill="none" stroke="#000000" d="M 1493 607 L 1506 607 L 1506 867 L 1493 867 L 1493 607 Z Z" stroke-miterlimit="10"/></g><g transform="translate(-1230,2) scale(1,1)"><path fill="none" stroke="#000000" d="M 1506 610 L 1973 610" stroke-miterlimit="10"/></g><g transform="translate(-1230,2) scale(1,1)"><path fill="#000000" stroke="none" d="M 1962.837325142376 614.209517756016 L 1973 610 L 1962.837325142376 605.790482243984"/></g><g transform="translate(-1230,2) scale(1,1)"><path fill="none" stroke="#000000" d="M 1962.837325142376 614.209517756016 L 1973 610 L 1962.837325142376 605.790482243984 L 1962.837325142376 614.209517756016" stroke-miterlimit="10"/></g><g transform="translate(-1230,2) scale(1,1)"><g><path fill="none" stroke="none"/><text fill="#000000" stroke="none" font-family="Arial" font-size="13px" font-style="normal" font-weight="normal" text-decoration="none" x="1664.5" y="606.5">16 : LocalDateTime.now()</text></g></g><g transform="translate(-1230,2) scale(1,1)"><rect fill="#9ccc95" stroke="none" x="1973" y="610" width="13" height="28"/></g><g transform="translate(-1230,2) scale(1,1)"><path fill="none" stroke="#000000" d="M 1973 610 L 1986 610 L 1986 638 L 1973 638 L 1973 610 Z Z" stroke-miterlimit="10"/></g><g transform="translate(-1230,2) scale(1,1)"><path fill="none" stroke="#000000" d="M 1973 632 L 1506 632" stroke-miterlimit="10" stroke-dasharray="3"/></g><g transform="translate(-1230,2) scale(1,1)"><path fill="none" stroke="#000000" d="M 1516.162674857624 627.790482243984 L 1506 632 L 1516.162674857624 636.209517756016" stroke-miterlimit="10"/></g><g transform="translate(-1230,2) scale(1,1)"><g><path fill="none" stroke="none"/><text fill="#000000" stroke="none" font-family="Arial" font-size="13px" font-style="normal" font-weight="normal" text-decoration="none" x="1695.5" y="648.5">17 : time</text></g></g><g transform="translate(-1230,2) scale(1,1)"><path fill="none" stroke="#000000" d="M 1506 685 L 1748 685" stroke-miterlimit="10"/></g><g transform="translate(-1230,2) scale(1,1)"><path fill="#000000" stroke="none" d="M 1737.837325142376 689.209517756016 L 1748 685 L 1737.837325142376 680.790482243984"/></g><g transform="translate(-1230,2) scale(1,1)"><path fill="none" stroke="#000000" d="M 1737.837325142376 689.209517756016 L 1748 685 L 1737.837325142376 680.790482243984 L 1737.837325142376 689.209517756016" stroke-miterlimit="10"/></g><g transform="translate(-1230,2) scale(1,1)"><g><path fill="none" stroke="none"/><text fill="#000000" stroke="none" font-family="Arial" font-size="13px" font-style="normal" font-weight="normal" text-decoration="none" x="1546.5" y="681.5">18 : get Price of item (ticket)</text></g></g><g transform="translate(-1230,2) scale(1,1)"><rect fill="#9ccc95" stroke="none" x="1748" y="685" width="13" height="28"/></g><g transform="translate(-1230,2) scale(1,1)"><path fill="none" stroke="#000000" d="M 1748 685 L 1761 685 L 1761 713 L 1748 713 L 1748 685 Z Z" stroke-miterlimit="10"/></g><g transform="translate(-1230,2) scale(1,1)"><path fill="none" stroke="#000000" d="M 1748 711 L 1506 711" stroke-miterlimit="10" stroke-dasharray="3"/></g><g transform="translate(-1230,2) scale(1,1)"><path fill="none" stroke="#000000" d="M 1516.162674857624 706.790482243984 L 1506 711 L 1516.162674857624 715.209517756016" stroke-miterlimit="10"/></g><g transform="translate(-1230,2) scale(1,1)"><g><path fill="none" stroke="none"/><text fill="#000000" stroke="none" font-family="Arial" font-size="13px" font-style="normal" font-weight="normal" text-decoration="none" x="1599.5" y="727.5">19 : price</text></g></g><g transform="translate(-1230,2) scale(1,1)"><path fill="none" stroke="#000000" d="M 1506 752 L 1536 752 L 1536 772 L 1513 772" stroke-miterlimit="10"/></g><g transform="translate(-1230,2) scale(1,1)"><path fill="#000000" stroke="none" d="M 1523.162674857624 767.790482243984 L 1513 772 L 1523.162674857624 776.209517756016"/></g><g transform="translate(-1230,2) scale(1,1)"><path fill="none" stroke="#000000" d="M 1523.162674857624 767.790482243984 L 1513 772 L 1523.162674857624 776.209517756016 L 1523.162674857624 767.790482243984" stroke-miterlimit="10"/></g><g transform="translate(-1230,2) scale(1,1)"><g><path fill="none" stroke="none"/><text fill="#000000" stroke="none" font-family="Arial" font-size="13px" font-style="normal" font-weight="normal" text-decoration="none" x="1543.5" y="767.5">20 : ticket.addBet()</text></g></g><g transform="translate(-1230,2) scale(1,1)"><rect fill="#9ccc95" stroke="none" x="1500" y="772" width="13" height="28"/></g><g transform="translate(-1230,2) scale(1,1)"><path fill="none" stroke="#000000" d="M 1500 772 L 1513 772 L 1513 800 L 1500 800 L 1500 772 Z Z" stroke-miterlimit="10"/></g><g transform="translate(-1230,2) scale(1,1)"><path fill="none" stroke="#000000" d="M 1506 816 L 1536 816 L 1536 836 L 1513 836" stroke-miterlimit="10"/></g><g transform="translate(-1230,2) scale(1,1)"><path fill="#000000" stroke="none" d="M 1523.162674857624 831.790482243984 L 1513 836 L 1523.162674857624 840.209517756016"/></g><g transform="translate(-1230,2) scale(1,1)"><path fill="none" stroke="#000000" d="M 1523.162674857624 831.790482243984 L 1513 836 L 1523.162674857624 840.209517756016 L 1523.162674857624 831.790482243984" stroke-miterlimit="10"/></g><g transform="translate(-1230,2) scale(1,1)"><g><path fill="none" stroke="none"/><text fill="#000000" stroke="none" font-family="Arial" font-size="13px" font-style="normal" font-weight="normal" text-decoration="none" x="1542.5" y="831.5">21 : save ticket in lotteryCatalog</text></g></g><g transform="translate(-1230,2) scale(1,1)"><rect fill="#9ccc95" stroke="none" x="1500" y="836" width="13" height="28"/></g><g transform="translate(-1230,2) scale(1,1)"><path fill="none" stroke="#000000" d="M 1500 836 L 1513 836 L 1513 864 L 1500 864 L 1500 836 Z Z" stroke-miterlimit="10"/></g><g transform="translate(-1230,2) scale(1,1)"><path fill="none" stroke="#000000" d="M 1493 864 L 1360 864" stroke-miterlimit="10" stroke-dasharray="3"/></g><g transform="translate(-1230,2) scale(1,1)"><path fill="none" stroke="#000000" d="M 1370.162674857624 859.790482243984 L 1360 864 L 1370.162674857624 868.209517756016" stroke-miterlimit="10"/></g><g transform="translate(-1230,2) scale(1,1)"><g><path fill="none" stroke="none"/><text fill="#000000" stroke="none" font-family="Arial" font-size="13px" font-style="normal" font-weight="normal" text-decoration="none" x="1374.5" y="827.5">22 : Template</text></g></g><g transform="translate(-1230,2) scale(1,1)"><path fill="none" stroke="#000000" d="M 1360 919 L 1493 919" stroke-miterlimit="10"/></g><g transform="translate(-1230,2) scale(1,1)"><path fill="#000000" stroke="none" d="M 1482.837325142376 923.209517756016 L 1493 919 L 1482.837325142376 914.790482243984"/></g><g transform="translate(-1230,2) scale(1,1)"><path fill="none" stroke="#000000" d="M 1482.837325142376 923.209517756016 L 1493 919 L 1482.837325142376 914.790482243984 L 1482.837325142376 923.209517756016" stroke-miterlimit="10"/></g><g transform="translate(-1230,2) scale(1,1)"><g><path fill="none" stroke="none"/><text fill="#000000" stroke="none" font-family="Arial" font-size="13px" font-style="normal" font-weight="normal" text-decoration="none" x="1385.667724609375" y="915.5">23 : bet_foot()</text></g></g><g transform="translate(-1230,2) scale(1,1)"><rect fill="#9ccc95" stroke="none" x="1493" y="919" width="13" height="265"/></g><g transform="translate(-1230,2) scale(1,1)"><path fill="none" stroke="#000000" d="M 1493 919 L 1506 919 L 1506 1184 L 1493 1184 L 1493 919 Z Z" stroke-miterlimit="10"/></g><g transform="translate(-1230,2) scale(1,1)"><path fill="none" stroke="#000000" d="M 1506 920 L 1973 920" stroke-miterlimit="10"/></g><g transform="translate(-1230,2) scale(1,1)"><path fill="#000000" stroke="none" d="M 1962.837325142376 924.209517756016 L 1973 920 L 1962.837325142376 915.790482243984"/></g><g transform="translate(-1230,2) scale(1,1)"><path fill="none" stroke="#000000" d="M 1962.837325142376 924.209517756016 L 1973 920 L 1962.837325142376 915.790482243984 L 1962.837325142376 924.209517756016" stroke-miterlimit="10"/></g><g transform="translate(-1230,2) scale(1,1)"><g><path fill="none" stroke="none"/><text fill="#000000" stroke="none" font-family="Arial" font-size="13px" font-style="normal" font-weight="normal" text-decoration="none" x="1664.5" y="916.5">24 : LocalDateTime.now()</text></g></g><g transform="translate(-1230,2) scale(1,1)"><rect fill="#9ccc95" stroke="none" x="1973" y="920" width="13" height="28"/></g><g transform="translate(-1230,2) scale(1,1)"><path fill="none" stroke="#000000" d="M 1973 920 L 1986 920 L 1986 948 L 1973 948 L 1973 920 Z Z" stroke-miterlimit="10"/></g><g transform="translate(-1230,2) scale(1,1)"><path fill="none" stroke="#000000" d="M 1973 944 L 1506 944" stroke-miterlimit="10" stroke-dasharray="3"/></g><g transform="translate(-1230,2) scale(1,1)"><path fill="none" stroke="#000000" d="M 1516.162674857624 939.790482243984 L 1506 944 L 1516.162674857624 948.209517756016" stroke-miterlimit="10"/></g><g transform="translate(-1230,2) scale(1,1)"><g><path fill="none" stroke="none"/><text fill="#000000" stroke="none" font-family="Arial" font-size="13px" font-style="normal" font-weight="normal" text-decoration="none" x="1703.5" y="960.5">25 : time</text></g></g><g transform="translate(-1230,2) scale(1,1)"><path fill="none" stroke="#000000" d="M 1506 993 L 1748 993" stroke-miterlimit="10"/></g><g transform="translate(-1230,2) scale(1,1)"><path fill="#000000" stroke="none" d="M 1737.837325142376 997.209517756016 L 1748 993 L 1737.837325142376 988.790482243984"/></g><g transform="translate(-1230,2) scale(1,1)"><path fill="none" stroke="#000000" d="M 1737.837325142376 997.209517756016 L 1748 993 L 1737.837325142376 988.790482243984 L 1737.837325142376 997.209517756016" stroke-miterlimit="10"/></g><g transform="translate(-1230,2) scale(1,1)"><g><path fill="none" stroke="none"/><text fill="#000000" stroke="none" font-family="Arial" font-size="13px" font-style="normal" font-weight="normal" text-decoration="none" x="1540.5" y="989.5">26 : get Price of item (football)</text></g></g><g transform="translate(-1230,2) scale(1,1)"><rect fill="#9ccc95" stroke="none" x="1748" y="993" width="13" height="28"/></g><g transform="translate(-1230,2) scale(1,1)"><path fill="none" stroke="#000000" d="M 1748 993 L 1761 993 L 1761 1021 L 1748 1021 L 1748 993 Z Z" stroke-miterlimit="10"/></g><g transform="translate(-1230,2) scale(1,1)"><path fill="none" stroke="#000000" d="M 1748 1019 L 1506 1019" stroke-miterlimit="10" stroke-dasharray="3"/></g><g transform="translate(-1230,2) scale(1,1)"><path fill="none" stroke="#000000" d="M 1516.162674857624 1014.790482243984 L 1506 1019 L 1516.162674857624 1023.209517756016" stroke-miterlimit="10"/></g><g transform="translate(-1230,2) scale(1,1)"><g><path fill="none" stroke="none"/><text fill="#000000" stroke="none" font-family="Arial" font-size="13px" font-style="normal" font-weight="normal" text-decoration="none" x="1599.5" y="1035.5">27 : price</text></g></g><g transform="translate(-1230,2) scale(1,1)"><path fill="none" stroke="#000000" d="M 1506 1056 L 1536 1056 L 1536 1076 L 1513 1076" stroke-miterlimit="10"/></g><g transform="translate(-1230,2) scale(1,1)"><path fill="#000000" stroke="none" d="M 1523.162674857624 1071.7904822439841 L 1513 1076 L 1523.162674857624 1080.2095177560159"/></g><g transform="translate(-1230,2) scale(1,1)"><path fill="none" stroke="#000000" d="M 1523.162674857624 1071.7904822439841 L 1513 1076 L 1523.162674857624 1080.2095177560159 L 1523.162674857624 1071.7904822439841" stroke-miterlimit="10"/></g><g transform="translate(-1230,2) scale(1,1)"><g><path fill="none" stroke="none"/><text fill="#000000" stroke="none" font-family="Arial" font-size="13px" font-style="normal" font-weight="normal" text-decoration="none" x="1542.5" y="1071.5">28 : football.addBet()</text></g></g><g transform="translate(-1230,2) scale(1,1)"><rect fill="#9ccc95" stroke="none" x="1500" y="1076" width="13" height="28"/></g><g transform="translate(-1230,2) scale(1,1)"><path fill="none" stroke="#000000" d="M 1500 1076 L 1513 1076 L 1513 1104 L 1500 1104 L 1500 1076 Z Z" stroke-miterlimit="10"/></g><g transform="translate(-1230,2) scale(1,1)"><path fill="none" stroke="#000000" d="M 1506 1120 L 1536 1120 L 1536 1140 L 1513 1140" stroke-miterlimit="10"/></g><g transform="translate(-1230,2) scale(1,1)"><path fill="#000000" stroke="none" d="M 1523.162674857624 1135.7904822439841 L 1513 1140 L 1523.162674857624 1144.2095177560159"/></g><g transform="translate(-1230,2) scale(1,1)"><path fill="none" stroke="#000000" d="M 1523.162674857624 1135.7904822439841 L 1513 1140 L 1523.162674857624 1144.2095177560159 L 1523.162674857624 1135.7904822439841" stroke-miterlimit="10"/></g><g transform="translate(-1230,2) scale(1,1)"><g><path fill="none" stroke="none"/><text fill="#000000" stroke="none" font-family="Arial" font-size="13px" font-style="normal" font-weight="normal" text-decoration="none" x="1542.356689453125" y="1132.5">29 : </text></g></g><g transform="translate(-1230,2) scale(1,1)"><rect fill="#9ccc95" stroke="none" x="1500" y="1140" width="13" height="28"/></g><g transform="translate(-1230,2) scale(1,1)"><path fill="none" stroke="#000000" d="M 1500 1140 L 1513 1140 L 1513 1168 L 1500 1168 L 1500 1140 Z Z" stroke-miterlimit="10"/></g><g transform="translate(-1230,2) scale(1,1)"><path fill="none" stroke="#000000" d="M 1493 1178 L 1360 1178" stroke-miterlimit="10" stroke-dasharray="3"/></g><g transform="translate(-1230,2) scale(1,1)"><path fill="none" stroke="#000000" d="M 1370.162674857624 1173.7904822439841 L 1360 1178 L 1370.162674857624 1182.2095177560159" stroke-miterlimit="10"/></g><g transform="translate(-1230,2) scale(1,1)"><g><path fill="none" stroke="none"/><text fill="#000000" stroke="none" font-family="Arial" font-size="13px" font-style="normal" font-weight="normal" text-decoration="none" x="1375.5" y="1131.5">30 : Template:</text></g></g></g></svg>