<svg version="1.1" xmlns="http://www.w3.org/2000/svg" xmlns:xlink="http://www.w3.org/1999/xlink" width="916" height="964"><defs/><g><g transform="translate(-30,10) scale(1,1)"><path fill="none" stroke="#000000" d="M 40 0 L 936 0 L 936 944 L 40 944 L 40 0" stroke-miterlimit="10"/></g><g transform="translate(-30,10) scale(1,1)"><path fill="#9ccc95" stroke="none" d="M 40 0 L 40 22 L 136.93896484375 22 L 147.93896484375 11 L 147.93896484375 0 L 40 0"/></g><g transform="translate(-30,10) scale(1,1)"><path fill="none" stroke="#000000" d="M 40 0 L 40 22 L 136.93896484375 22 L 147.93896484375 11 L 147.93896484375 0 L 40 0 L 40 0" stroke-miterlimit="10"/></g><g transform="translate(-30,10) scale(1,1)"><g><path fill="none" stroke="none"/><text fill="#000000" stroke="none" font-family="Arial" font-size="13px" font-style="normal" font-weight="normal" text-decoration="none" x="64.72998046875" y="17.5">Seq_Result</text></g></g><g transform="translate(-30,10) scale(1,1)"><g><path fill="none" stroke="none"/><text fill="#000000" stroke="none" font-family="Arial" font-size="13px" font-style="normal" font-weight="bold" text-decoration="none" x="45" y="17.5">sd</text></g></g><g transform="translate(-30,10) scale(1,1)"><rect fill="#C0C0C0" stroke="none" x="79" y="47" width="71.736328125" height="39" opacity="0.2"/></g><g transform="translate(-30,10) scale(1,1)"><rect fill="#9ccc95" stroke="none" x="72" y="40" width="71.736328125" height="39"/></g><g transform="translate(-30,10) scale(1,1)"><path fill="none" stroke="#000000" d="M 72 40 L 143.736328125 40 L 143.736328125 79 L 72 79 L 72 40 Z Z" stroke-miterlimit="10"/></g><g transform="translate(-30,10) scale(1,1)"><g><path fill="none" stroke="none"/><text fill="#000000" stroke="none" font-family="Arial" font-size="13px" font-style="normal" font-weight="bold" text-decoration="none" x="94.14453125" y="59.5">User</text></g></g><g transform="translate(-30,10) scale(1,1)"><path fill="none" stroke="#000000" d="M 108.5 80 L 108.5 904" stroke-miterlimit="10" stroke-dasharray="3"/></g><g transform="translate(-30,10) scale(1,1)"><rect fill="#C0C0C0" stroke="none" x="271" y="47" width="71.736328125" height="39" opacity="0.2"/></g><g transform="translate(-30,10) scale(1,1)"><rect fill="#9ccc95" stroke="none" x="264" y="40" width="71.736328125" height="39"/></g><g transform="translate(-30,10) scale(1,1)"><path fill="none" stroke="#000000" d="M 264 40 L 335.736328125 40 L 335.736328125 79 L 264 79 L 264 40 Z Z" stroke-miterlimit="10"/></g><g transform="translate(-30,10) scale(1,1)"><g><path fill="none" stroke="none"/><text fill="#000000" stroke="none" font-family="Arial" font-size="13px" font-style="normal" font-weight="bold" text-decoration="none" x="281.444091796875" y="59.5">Result</text></g></g><g transform="translate(-30,10) scale(1,1)"><path fill="none" stroke="#000000" d="M 300.5 80 L 300.5 904" stroke-miterlimit="10" stroke-dasharray="3"/></g><g transform="translate(-30,10) scale(1,1)"><rect fill="#9ccc95" stroke="none" x="104" y="120" width="8" height="744"/></g><g transform="translate(-30,10) scale(1,1)"><path fill="none" stroke="#000000" d="M 104 120 L 112 120 L 112 864 L 104 864 L 104 120 Z Z" stroke-miterlimit="10"/></g><g transform="translate(-30,10) scale(1,1)"><rect fill="#C0C0C0" stroke="none" x="855" y="47" width="71.736328125" height="39" opacity="0.2"/></g><g transform="translate(-30,10) scale(1,1)"><rect fill="#9ccc95" stroke="none" x="848" y="40" width="71.736328125" height="39"/></g><g transform="translate(-30,10) scale(1,1)"><path fill="none" stroke="#000000" d="M 848 40 L 919.736328125 40 L 919.736328125 79 L 848 79 L 848 40 Z Z" stroke-miterlimit="10"/></g><g transform="translate(-30,10) scale(1,1)"><g><path fill="none" stroke="none"/><text fill="#000000" stroke="none" font-family="Arial" font-size="13px" font-style="normal" font-weight="bold" text-decoration="none" x="869.665283203125" y="59.5">Time</text></g></g><g transform="translate(-30,10) scale(1,1)"><path fill="none" stroke="#000000" d="M 884.5 80 L 884.5 912" stroke-miterlimit="10" stroke-dasharray="3"/></g><g transform="translate(-30,10) scale(1,1)"><rect fill="#C0C0C0" stroke="none" x="743" y="47" width="71.736328125" height="39" opacity="0.2"/></g><g transform="translate(-30,10) scale(1,1)"><rect fill="#9ccc95" stroke="none" x="736" y="40" width="71.736328125" height="39"/></g><g transform="translate(-30,10) scale(1,1)"><path fill="none" stroke="#000000" d="M 736 40 L 807.736328125 40 L 807.736328125 79 L 736 79 L 736 40 Z Z" stroke-miterlimit="10"/></g><g transform="translate(-30,10) scale(1,1)"><g><path fill="none" stroke="none"/><text fill="#000000" stroke="none" font-family="Arial" font-size="13px" font-style="normal" font-weight="bold" text-decoration="none" x="749.464111328125" y="59.5">Catalog</text></g></g><g transform="translate(-30,10) scale(1,1)"><path fill="none" stroke="#000000" d="M 772.5 80 L 772.5 912" stroke-miterlimit="10" stroke-dasharray="3"/></g><g transform="translate(-30,10) scale(1,1)"><g><path fill="none" stroke="none"/><text fill="#000000" stroke="none" font-family="Arial" font-size="13px" font-style="normal" font-weight="normal" text-decoration="none" x="165" y="466">home.html</text></g></g><g transform="translate(-30,10) scale(1,1)"><g><path fill="none" stroke="none"/><text fill="#000000" stroke="none" font-family="Arial" font-size="13px" font-style="normal" font-weight="normal" text-decoration="none" x="157" y="850">home.html</text></g></g><g transform="translate(-30,10) scale(1,1)"><rect fill="#C0C0C0" stroke="none" x="575" y="47" width="112.17724609375" height="39" opacity="0.2"/></g><g transform="translate(-30,10) scale(1,1)"><rect fill="#9ccc95" stroke="none" x="568" y="40" width="112.17724609375" height="39"/></g><g transform="translate(-30,10) scale(1,1)"><path fill="none" stroke="#000000" d="M 568 40 L 680.17724609375 40 L 680.17724609375 79 L 568 79 L 568 40 Z Z" stroke-miterlimit="10"/></g><g transform="translate(-30,10) scale(1,1)"><g><path fill="none" stroke="none"/><text fill="#000000" stroke="none" font-family="Arial" font-size="13px" font-style="normal" font-weight="bold" text-decoration="none" x="581.09912109375" y="59.5">NumberLottery</text></g></g><g transform="translate(-30,10) scale(1,1)"><path fill="none" stroke="#000000" d="M 625.5 80 L 625.5 912" stroke-miterlimit="10" stroke-dasharray="3"/></g><g transform="translate(-30,10) scale(1,1)"><path fill="none" stroke="#000000" d="M 108 124 L 293 124" stroke-miterlimit="10"/></g><g transform="translate(-30,10) scale(1,1)"><path fill="#000000" stroke="none" d="M 282.83732514237585 128.209517756016 L 293 124 L 282.83732514237585 119.79048224398402"/></g><g transform="translate(-30,10) scale(1,1)"><path fill="none" stroke="#000000" d="M 282.83732514237585 128.209517756016 L 293 124 L 282.83732514237585 119.79048224398402 L 282.83732514237585 128.209517756016" stroke-miterlimit="10"/></g><g transform="translate(-30,10) scale(1,1)"><g><path fill="none" stroke="none"/><text fill="#000000" stroke="none" font-family="Arial" font-size="13px" font-style="normal" font-weight="normal" text-decoration="none" x="138.5" y="120.5">1 : evalNumberBets()</text></g></g><g transform="translate(-30,10) scale(1,1)"><rect fill="#9ccc95" stroke="none" x="293" y="124" width="13" height="348"/></g><g transform="translate(-30,10) scale(1,1)"><path fill="none" stroke="#000000" d="M 293 124 L 306 124 L 306 472 L 293 472 L 293 124 Z Z" stroke-miterlimit="10"/></g><g transform="translate(-30,10) scale(1,1)"><path fill="none" stroke="#000000" d="M 306 128 L 877 128" stroke-miterlimit="10"/></g><g transform="translate(-30,10) scale(1,1)"><path fill="#000000" stroke="none" d="M 866.8373251423759 132.209517756016 L 877 128 L 866.8373251423758 123.79048224398402"/></g><g transform="translate(-30,10) scale(1,1)"><path fill="none" stroke="#000000" d="M 866.8373251423759 132.209517756016 L 877 128 L 866.8373251423758 123.79048224398402 L 866.8373251423759 132.209517756016" stroke-miterlimit="10"/></g><g transform="translate(-30,10) scale(1,1)"><g><path fill="none" stroke="none"/><text fill="#000000" stroke="none" font-family="Arial" font-size="13px" font-style="normal" font-weight="normal" text-decoration="none" x="520.5" y="124.5">2 : LocalDateTime.now()</text></g></g><g transform="translate(-30,10) scale(1,1)"><rect fill="#9ccc95" stroke="none" x="877" y="128" width="13" height="28"/></g><g transform="translate(-30,10) scale(1,1)"><path fill="none" stroke="#000000" d="M 877 128 L 890 128 L 890 156 L 877 156 L 877 128 Z Z" stroke-miterlimit="10"/></g><g transform="translate(-30,10) scale(1,1)"><path fill="none" stroke="#000000" d="M 877 152 L 306 152" stroke-miterlimit="10" stroke-dasharray="3"/></g><g transform="translate(-30,10) scale(1,1)"><path fill="none" stroke="#000000" d="M 316.16267485762415 147.790482243984 L 306 152 L 316.16267485762415 156.209517756016" stroke-miterlimit="10"/></g><g transform="translate(-30,10) scale(1,1)"><g><path fill="none" stroke="none"/><text fill="#000000" stroke="none" font-family="Arial" font-size="13px" font-style="normal" font-weight="normal" text-decoration="none" x="568.5" y="168.5">3 : time</text></g></g><g transform="translate(-30,10) scale(1,1)"><path fill="none" stroke="#000000" d="M 306 192 L 765 192" stroke-miterlimit="10"/></g><g transform="translate(-30,10) scale(1,1)"><path fill="#000000" stroke="none" d="M 754.8373251423759 196.209517756016 L 765 192 L 754.8373251423758 187.790482243984"/></g><g transform="translate(-30,10) scale(1,1)"><path fill="none" stroke="#000000" d="M 754.8373251423759 196.209517756016 L 765 192 L 754.8373251423758 187.790482243984 L 754.8373251423759 196.209517756016" stroke-miterlimit="10"/></g><g transform="translate(-30,10) scale(1,1)"><g><path fill="none" stroke="none"/><text fill="#000000" stroke="none" font-family="Arial" font-size="13px" font-style="normal" font-weight="normal" text-decoration="none" x="458.5" y="188.5">4 : lotterycatalog.findbyId()</text></g></g><g transform="translate(-30,10) scale(1,1)"><rect fill="#9ccc95" stroke="none" x="765" y="192" width="13" height="28"/></g><g transform="translate(-30,10) scale(1,1)"><path fill="none" stroke="#000000" d="M 765 192 L 778 192 L 778 220 L 765 220 L 765 192 Z Z" stroke-miterlimit="10"/></g><g transform="translate(-30,10) scale(1,1)"><path fill="none" stroke="#000000" d="M 765 216 L 306 216" stroke-miterlimit="10" stroke-dasharray="3"/></g><g transform="translate(-30,10) scale(1,1)"><path fill="none" stroke="#000000" d="M 316.16267485762415 211.790482243984 L 306 216 L 316.16267485762415 220.209517756016" stroke-miterlimit="10"/></g><g transform="translate(-30,10) scale(1,1)"><g><path fill="none" stroke="none"/><text fill="#000000" stroke="none" font-family="Arial" font-size="13px" font-style="normal" font-weight="normal" text-decoration="none" x="509.5" y="232.5">5 : ticket</text></g></g><g transform="translate(-30,10) scale(1,1)"><path fill="none" stroke="#000000" d="M 306 256 L 618 256" stroke-miterlimit="10"/></g><g transform="translate(-30,10) scale(1,1)"><path fill="#000000" stroke="none" d="M 607.8373251423759 260.209517756016 L 618 256 L 607.8373251423758 251.790482243984"/></g><g transform="translate(-30,10) scale(1,1)"><path fill="none" stroke="#000000" d="M 607.8373251423759 260.209517756016 L 618 256 L 607.8373251423758 251.790482243984 L 607.8373251423759 260.209517756016" stroke-miterlimit="10"/></g><g transform="translate(-30,10) scale(1,1)"><g><path fill="none" stroke="none"/><text fill="#000000" stroke="none" font-family="Arial" font-size="13px" font-style="normal" font-weight="normal" text-decoration="none" x="403.5" y="252.5">6 : generate_nums()</text></g></g><g transform="translate(-30,10) scale(1,1)"><rect fill="#9ccc95" stroke="none" x="618" y="256" width="13" height="28"/></g><g transform="translate(-30,10) scale(1,1)"><path fill="none" stroke="#000000" d="M 618 256 L 631 256 L 631 284 L 618 284 L 618 256 Z Z" stroke-miterlimit="10"/></g><g transform="translate(-30,10) scale(1,1)"><path fill="none" stroke="#000000" d="M 618 280 L 306 280" stroke-miterlimit="10" stroke-dasharray="3"/></g><g transform="translate(-30,10) scale(1,1)"><path fill="none" stroke="#000000" d="M 316.16267485762415 275.790482243984 L 306 280 L 316.16267485762415 284.209517756016" stroke-miterlimit="10"/></g><g transform="translate(-30,10) scale(1,1)"><g><path fill="none" stroke="none"/><text fill="#000000" stroke="none" font-family="Arial" font-size="13px" font-style="normal" font-weight="normal" text-decoration="none" x="436.5" y="296.5">7 : nums</text></g></g><g transform="translate(-30,10) scale(1,1)"><path fill="none" stroke="#000000" d="M 306 321 L 618 321" stroke-miterlimit="10"/></g><g transform="translate(-30,10) scale(1,1)"><path fill="#000000" stroke="none" d="M 607.8373251423759 325.209517756016 L 618 321 L 607.8373251423758 316.790482243984"/></g><g transform="translate(-30,10) scale(1,1)"><path fill="none" stroke="#000000" d="M 607.8373251423759 325.209517756016 L 618 321 L 607.8373251423758 316.790482243984 L 607.8373251423759 325.209517756016" stroke-miterlimit="10"/></g><g transform="translate(-30,10) scale(1,1)"><g><path fill="none" stroke="none"/><text fill="#000000" stroke="none" font-family="Arial" font-size="13px" font-style="normal" font-weight="normal" text-decoration="none" x="371.5" y="317.5">8 : generateAdditionalNumber()</text></g></g><g transform="translate(-30,10) scale(1,1)"><rect fill="#9ccc95" stroke="none" x="618" y="321" width="13" height="28"/></g><g transform="translate(-30,10) scale(1,1)"><path fill="none" stroke="#000000" d="M 618 321 L 631 321 L 631 349 L 618 349 L 618 321 Z Z" stroke-miterlimit="10"/></g><g transform="translate(-30,10) scale(1,1)"><path fill="none" stroke="#000000" d="M 618 345 L 306 345" stroke-miterlimit="10" stroke-dasharray="3"/></g><g transform="translate(-30,10) scale(1,1)"><path fill="none" stroke="#000000" d="M 316.16267485762415 340.790482243984 L 306 345 L 316.16267485762415 349.209517756016" stroke-miterlimit="10"/></g><g transform="translate(-30,10) scale(1,1)"><g><path fill="none" stroke="none"/><text fill="#000000" stroke="none" font-family="Arial" font-size="13px" font-style="normal" font-weight="normal" text-decoration="none" x="401.5" y="361.5">9 : additionalNumber</text></g></g><g transform="translate(-30,10) scale(1,1)"><path fill="none" stroke="#000000" d="M 306 376 L 336 376 L 336 396 L 313 396" stroke-miterlimit="10"/></g><g transform="translate(-30,10) scale(1,1)"><path fill="#000000" stroke="none" d="M 323.16267485762415 391.790482243984 L 313 396 L 323.16267485762415 400.209517756016"/></g><g transform="translate(-30,10) scale(1,1)"><path fill="none" stroke="#000000" d="M 323.16267485762415 391.790482243984 L 313 396 L 323.16267485762415 400.209517756016 L 323.16267485762415 391.790482243984" stroke-miterlimit="10"/></g><g transform="translate(-30,10) scale(1,1)"><g><path fill="none" stroke="none"/><text fill="#000000" stroke="none" font-family="Arial" font-size="13px" font-style="normal" font-weight="normal" text-decoration="none" x="357.404052734375" y="395.5">10 : evaluate</text><text fill="#000000" stroke="none" font-family="Arial" font-size="13px" font-style="normal" font-weight="normal" text-decoration="none" x="342.6044921875" y="408.5">ticket.numberBets</text></g></g><g transform="translate(-30,10) scale(1,1)"><rect fill="#9ccc95" stroke="none" x="300" y="396" width="13" height="28"/></g><g transform="translate(-30,10) scale(1,1)"><path fill="none" stroke="#000000" d="M 300 396 L 313 396 L 313 424 L 300 424 L 300 396 Z Z" stroke-miterlimit="10"/></g><g transform="translate(-30,10) scale(1,1)"><path fill="none" stroke="#000000" d="M 306 432 L 765 432" stroke-miterlimit="10"/></g><g transform="translate(-30,10) scale(1,1)"><path fill="#000000" stroke="none" d="M 754.8373251423759 436.209517756016 L 765 432 L 754.8373251423758 427.790482243984"/></g><g transform="translate(-30,10) scale(1,1)"><path fill="none" stroke="#000000" d="M 754.8373251423759 436.209517756016 L 765 432 L 754.8373251423758 427.790482243984 L 754.8373251423759 436.209517756016" stroke-miterlimit="10"/></g><g transform="translate(-30,10) scale(1,1)"><g><path fill="none" stroke="none"/><text fill="#000000" stroke="none" font-family="Arial" font-size="13px" font-style="normal" font-weight="normal" text-decoration="none" x="491.982421875" y="428.5">11 : save ticket</text></g></g><g transform="translate(-30,10) scale(1,1)"><rect fill="#9ccc95" stroke="none" x="765" y="432" width="13" height="28"/></g><g transform="translate(-30,10) scale(1,1)"><path fill="none" stroke="#000000" d="M 765 432 L 778 432 L 778 460 L 765 460 L 765 432 Z Z" stroke-miterlimit="10"/></g><g transform="translate(-30,10) scale(1,1)"><path fill="none" stroke="#000000" d="M 765 456 L 306 456" stroke-miterlimit="10" stroke-dasharray="3"/></g><g transform="translate(-30,10) scale(1,1)"><path fill="none" stroke="#000000" d="M 316.16267485762415 451.790482243984 L 306 456 L 316.16267485762415 460.209517756016" stroke-miterlimit="10"/></g><g transform="translate(-30,10) scale(1,1)"><g><path fill="none" stroke="none"/><text fill="#000000" stroke="none" font-family="Arial" font-size="13px" font-style="normal" font-weight="normal" text-decoration="none" x="521.5" y="472.5">12 : </text></g></g><g transform="translate(-30,10) scale(1,1)"><path fill="none" stroke="#000000" d="M 300 472 L 108 472" stroke-miterlimit="10" stroke-dasharray="3"/></g><g transform="translate(-30,10) scale(1,1)"><path fill="none" stroke="#000000" d="M 118.16267485762415 467.790482243984 L 108 472 L 118.16267485762415 476.209517756016" stroke-miterlimit="10"/></g><g transform="translate(-30,10) scale(1,1)"><g><path fill="none" stroke="none"/><text fill="#000000" stroke="none" font-family="Arial" font-size="13px" font-style="normal" font-weight="normal" text-decoration="none" x="161.5" y="443.5">13 : Template:</text></g></g><g transform="translate(-30,10) scale(1,1)"><path fill="none" stroke="#000000" d="M 108 520 L 293 520" stroke-miterlimit="10"/></g><g transform="translate(-30,10) scale(1,1)"><path fill="#000000" stroke="none" d="M 282.83732514237585 524.209517756016 L 293 520 L 282.83732514237585 515.790482243984"/></g><g transform="translate(-30,10) scale(1,1)"><path fill="none" stroke="#000000" d="M 282.83732514237585 524.209517756016 L 293 520 L 282.83732514237585 515.790482243984 L 282.83732514237585 524.209517756016" stroke-miterlimit="10"/></g><g transform="translate(-30,10) scale(1,1)"><g><path fill="none" stroke="none"/><text fill="#000000" stroke="none" font-family="Arial" font-size="13px" font-style="normal" font-weight="normal" text-decoration="none" x="134.5" y="516.5">14 : evalFootballBets()</text></g></g><g transform="translate(-30,10) scale(1,1)"><rect fill="#9ccc95" stroke="none" x="293" y="520" width="13" height="354"/></g><g transform="translate(-30,10) scale(1,1)"><path fill="none" stroke="#000000" d="M 293 520 L 306 520 L 306 874 L 293 874 L 293 520 Z Z" stroke-miterlimit="10"/></g><g transform="translate(-30,10) scale(1,1)"><path fill="none" stroke="#000000" d="M 306 525 L 765 525" stroke-miterlimit="10"/></g><g transform="translate(-30,10) scale(1,1)"><path fill="#000000" stroke="none" d="M 754.8373251423759 529.209517756016 L 765 525 L 754.8373251423758 520.790482243984"/></g><g transform="translate(-30,10) scale(1,1)"><path fill="none" stroke="#000000" d="M 754.8373251423759 529.209517756016 L 765 525 L 754.8373251423758 520.790482243984 L 754.8373251423759 529.209517756016" stroke-miterlimit="10"/></g><g transform="translate(-30,10) scale(1,1)"><g><path fill="none" stroke="none"/><text fill="#000000" stroke="none" font-family="Arial" font-size="13px" font-style="normal" font-weight="normal" text-decoration="none" x="454.5" y="521.5">15 : lotterycatalog.findById()</text></g></g><g transform="translate(-30,10) scale(1,1)"><rect fill="#9ccc95" stroke="none" x="765" y="525" width="13" height="28"/></g><g transform="translate(-30,10) scale(1,1)"><path fill="none" stroke="#000000" d="M 765 525 L 778 525 L 778 553 L 765 553 L 765 525 Z Z" stroke-miterlimit="10"/></g><g transform="translate(-30,10) scale(1,1)"><path fill="none" stroke="#000000" d="M 765 551 L 306 551" stroke-miterlimit="10" stroke-dasharray="3"/></g><g transform="translate(-30,10) scale(1,1)"><path fill="none" stroke="#000000" d="M 316.16267485762415 546.790482243984 L 306 551 L 316.16267485762415 555.209517756016" stroke-miterlimit="10"/></g><g transform="translate(-30,10) scale(1,1)"><g><path fill="none" stroke="none"/><text fill="#000000" stroke="none" font-family="Arial" font-size="13px" font-style="normal" font-weight="normal" text-decoration="none" x="500.5" y="567.5">16 : football</text></g></g><g transform="translate(-30,10) scale(1,1)"><path fill="none" stroke="#000000" d="M 306 603 L 877 603" stroke-miterlimit="10"/></g><g transform="translate(-30,10) scale(1,1)"><path fill="#000000" stroke="none" d="M 866.8373251423759 607.209517756016 L 877 603 L 866.8373251423758 598.790482243984"/></g><g transform="translate(-30,10) scale(1,1)"><path fill="none" stroke="#000000" d="M 866.8373251423759 607.209517756016 L 877 603 L 866.8373251423758 598.790482243984 L 866.8373251423759 607.209517756016" stroke-miterlimit="10"/></g><g transform="translate(-30,10) scale(1,1)"><g><path fill="none" stroke="none"/><text fill="#000000" stroke="none" font-family="Arial" font-size="13px" font-style="normal" font-weight="normal" text-decoration="none" x="516.5" y="599.5">17 : LocalDateTime.now()</text></g></g><g transform="translate(-30,10) scale(1,1)"><rect fill="#9ccc95" stroke="none" x="877" y="603" width="13" height="28"/></g><g transform="translate(-30,10) scale(1,1)"><path fill="none" stroke="#000000" d="M 877 603 L 890 603 L 890 631 L 877 631 L 877 603 Z Z" stroke-miterlimit="10"/></g><g transform="translate(-30,10) scale(1,1)"><path fill="none" stroke="#000000" d="M 884 632 L 306 632" stroke-miterlimit="10" stroke-dasharray="3"/></g><g transform="translate(-30,10) scale(1,1)"><path fill="none" stroke="#000000" d="M 316.16267485762415 627.790482243984 L 306 632 L 316.16267485762415 636.209517756016" stroke-miterlimit="10"/></g><g transform="translate(-30,10) scale(1,1)"><g><path fill="none" stroke="none"/><text fill="#000000" stroke="none" font-family="Arial" font-size="13px" font-style="normal" font-weight="normal" text-decoration="none" x="569.5" y="648.5">18 : time</text></g></g><g transform="translate(-30,10) scale(1,1)"><path fill="none" stroke="#000000" d="M 306 672 L 336 672 L 336 692 L 313 692" stroke-miterlimit="10"/></g><g transform="translate(-30,10) scale(1,1)"><path fill="#000000" stroke="none" d="M 323.16267485762415 687.790482243984 L 313 692 L 323.16267485762415 696.209517756016"/></g><g transform="translate(-30,10) scale(1,1)"><path fill="none" stroke="#000000" d="M 323.16267485762415 687.790482243984 L 313 692 L 323.16267485762415 696.209517756016 L 323.16267485762415 687.790482243984" stroke-miterlimit="10"/></g><g transform="translate(-30,10) scale(1,1)"><g><path fill="none" stroke="none"/><text fill="#000000" stroke="none" font-family="Arial" font-size="13px" font-style="normal" font-weight="normal" text-decoration="none" x="367.317626953125" y="691.5">19 : evaluate</text><text fill="#000000" stroke="none" font-family="Arial" font-size="13px" font-style="normal" font-weight="normal" text-decoration="none" x="348.528564453125" y="704.5">football.footballbets</text></g></g><g transform="translate(-30,10) scale(1,1)"><rect fill="#9ccc95" stroke="none" x="300" y="692" width="13" height="28"/></g><g transform="translate(-30,10) scale(1,1)"><path fill="none" stroke="#000000" d="M 300 692 L 313 692 L 313 720 L 300 720 L 300 692 Z Z" stroke-miterlimit="10"/></g><g transform="translate(-30,10) scale(1,1)"><path fill="none" stroke="#000000" d="M 306 744 L 336 744 L 336 764 L 313 764" stroke-miterlimit="10"/></g><g transform="translate(-30,10) scale(1,1)"><path fill="#000000" stroke="none" d="M 323.16267485762415 759.790482243984 L 313 764 L 323.16267485762415 768.209517756016"/></g><g transform="translate(-30,10) scale(1,1)"><path fill="none" stroke="#000000" d="M 323.16267485762415 759.790482243984 L 313 764 L 323.16267485762415 768.209517756016 L 323.16267485762415 759.790482243984" stroke-miterlimit="10"/></g><g transform="translate(-30,10) scale(1,1)"><g><path fill="none" stroke="none"/><text fill="#000000" stroke="none" font-family="Arial" font-size="13px" font-style="normal" font-weight="normal" text-decoration="none" x="363.982177734375" y="755.5">20 : evaluate</text><text fill="#000000" stroke="none" font-family="Arial" font-size="13px" font-style="normal" font-weight="normal" text-decoration="none" x="349.528564453125" y="768.5">football.groupbets</text></g></g><g transform="translate(-30,10) scale(1,1)"><rect fill="#9ccc95" stroke="none" x="300" y="764" width="13" height="28"/></g><g transform="translate(-30,10) scale(1,1)"><path fill="none" stroke="#000000" d="M 300 764 L 313 764 L 313 792 L 300 792 L 300 764 Z Z" stroke-miterlimit="10"/></g><g transform="translate(-30,10) scale(1,1)"><path fill="none" stroke="#000000" d="M 306 808 L 765 808" stroke-miterlimit="10"/></g><g transform="translate(-30,10) scale(1,1)"><path fill="#000000" stroke="none" d="M 754.8373251423759 812.209517756016 L 765 808 L 754.8373251423758 803.790482243984"/></g><g transform="translate(-30,10) scale(1,1)"><path fill="none" stroke="#000000" d="M 754.8373251423759 812.209517756016 L 765 808 L 754.8373251423758 803.790482243984 L 754.8373251423759 812.209517756016" stroke-miterlimit="10"/></g><g transform="translate(-30,10) scale(1,1)"><g><path fill="none" stroke="none"/><text fill="#000000" stroke="none" font-family="Arial" font-size="13px" font-style="normal" font-weight="normal" text-decoration="none" x="485.5" y="804.5">21 : save football</text></g></g><g transform="translate(-30,10) scale(1,1)"><rect fill="#9ccc95" stroke="none" x="765" y="808" width="13" height="28"/></g><g transform="translate(-30,10) scale(1,1)"><path fill="none" stroke="#000000" d="M 765 808 L 778 808 L 778 836 L 765 836 L 765 808 Z Z" stroke-miterlimit="10"/></g><g transform="translate(-30,10) scale(1,1)"><path fill="none" stroke="#000000" d="M 765 835 L 306 835" stroke-miterlimit="10" stroke-dasharray="3"/></g><g transform="translate(-30,10) scale(1,1)"><path fill="none" stroke="#000000" d="M 316.16267485762415 830.790482243984 L 306 835 L 316.16267485762415 839.209517756016" stroke-miterlimit="10"/></g><g transform="translate(-30,10) scale(1,1)"><g><path fill="none" stroke="none"/><text fill="#000000" stroke="none" font-family="Arial" font-size="13px" font-style="normal" font-weight="normal" text-decoration="none" x="521.5" y="851.5">22 : </text></g></g><g transform="translate(-30,10) scale(1,1)"><path fill="none" stroke="#000000" d="M 293 856 L 108 856" stroke-miterlimit="10" stroke-dasharray="3"/></g><g transform="translate(-30,10) scale(1,1)"><path fill="none" stroke="#000000" d="M 118.16267485762415 851.790482243984 L 108 856 L 118.16267485762415 860.209517756016" stroke-miterlimit="10"/></g><g transform="translate(-30,10) scale(1,1)"><g><path fill="none" stroke="none"/><text fill="#000000" stroke="none" font-family="Arial" font-size="13px" font-style="normal" font-weight="normal" text-decoration="none" x="151.5" y="827.5">23 : Template:</text></g></g></g></svg>